<svg width="80" height="29" viewBox="0 0 80 29" fill="none" xmlns="http://www.w3.org/2000/svg">
<path d="M6.83508 5.49007H3.53508V6.71107C3.67441 6.5644 3.86508 6.44707 4.10708 6.35907C4.34908 6.27107 4.61674 6.22707 4.91008 6.22707C5.43808 6.22707 5.87808 6.34807 6.23008 6.59007C6.58941 6.83207 6.85341 7.15107 7.02208 7.54707C7.19074 7.94307 7.27508 8.37573 7.27508 8.84507C7.27508 9.7104 7.02941 10.3924 6.53808 10.8911C6.04674 11.3824 5.36474 11.6281 4.49208 11.6281C3.88341 11.6281 3.35541 11.5254 2.90808 11.3201C2.46808 11.1074 2.13074 10.8141 1.89608 10.4401C1.66141 10.0661 1.54041 9.63707 1.53308 9.15307H3.63408C3.65608 9.32173 3.72941 9.4684 3.85408 9.59307C3.97874 9.71773 4.16208 9.78007 4.40408 9.78007C4.66074 9.78007 4.85508 9.69207 4.98708 9.51607C5.11908 9.34007 5.18508 9.1054 5.18508 8.81207C5.18508 8.52607 5.11541 8.30973 4.97608 8.16307C4.83674 8.00907 4.63508 7.93207 4.37108 7.93207C4.17308 7.93207 4.01174 7.9834 3.88708 8.08607C3.76974 8.1814 3.70008 8.3024 3.67808 8.44907H1.57708V3.58707H6.83508V5.49007ZM8.19108 7.49207C8.19108 6.23073 8.44775 5.23707 8.96109 4.51107C9.47442 3.78507 10.2811 3.42207 11.3811 3.42207C12.4811 3.42207 13.2878 3.78507 13.8011 4.51107C14.3218 5.23707 14.5821 6.23073 14.5821 7.49207C14.5821 8.76807 14.3254 9.76907 13.8121 10.4951C13.2988 11.2211 12.4884 11.5841 11.3811 11.5841C10.2738 11.5841 9.46342 11.2211 8.95008 10.4951C8.44408 9.76907 8.19108 8.76807 8.19108 7.49207ZM12.4481 7.49207C12.4481 6.83207 12.3784 6.32973 12.2391 5.98507C12.0998 5.63307 11.8138 5.45707 11.3811 5.45707C10.9484 5.45707 10.6624 5.63307 10.5231 5.98507C10.3838 6.32973 10.3141 6.83207 10.3141 7.49207C10.3141 8.16673 10.3801 8.68007 10.5121 9.03207C10.6514 9.37673 10.9411 9.54907 11.3811 9.54907C11.8211 9.54907 12.1071 9.37673 12.2391 9.03207C12.3784 8.68007 12.4481 8.16673 12.4481 7.49207ZM15.4206 7.49207C15.4206 6.23073 15.6772 5.23707 16.1906 4.51107C16.7039 3.78507 17.5106 3.42207 18.6106 3.42207C19.7106 3.42207 20.5172 3.78507 21.0306 4.51107C21.5512 5.23707 21.8116 6.23073 21.8116 7.49207C21.8116 8.76807 21.5549 9.76907 21.0416 10.4951C20.5282 11.2211 19.7179 11.5841 18.6106 11.5841C17.5032 11.5841 16.6929 11.2211 16.1796 10.4951C15.6736 9.76907 15.4206 8.76807 15.4206 7.49207ZM19.6776 7.49207C19.6776 6.83207 19.6079 6.32973 19.4686 5.98507C19.3292 5.63307 19.0432 5.45707 18.6106 5.45707C18.1779 5.45707 17.8919 5.63307 17.7526 5.98507C17.6132 6.32973 17.5436 6.83207 17.5436 7.49207C17.5436 8.16673 17.6096 8.68007 17.7416 9.03207C17.8809 9.37673 18.1706 9.54907 18.6106 9.54907C19.0506 9.54907 19.3366 9.37673 19.4686 9.03207C19.6079 8.68007 19.6776 8.16673 19.6776 7.49207ZM27.7871 6.42507C27.6624 6.21973 27.4901 6.06207 27.2701 5.95207C27.0574 5.84207 26.8044 5.78707 26.5111 5.78707C25.9684 5.78707 25.5394 5.96307 25.2241 6.31507C24.9161 6.66707 24.7621 7.14007 24.7621 7.73407C24.7621 8.4014 24.9271 8.91107 25.2571 9.26307C25.5944 9.60773 26.0821 9.78007 26.7201 9.78007C27.4754 9.78007 28.0144 9.43907 28.3371 8.75707H26.1701V7.20607H30.1961V9.29607C30.0274 9.70673 29.7781 10.0917 29.4481 10.4511C29.1254 10.8104 28.7147 11.1074 28.2161 11.3421C27.7174 11.5694 27.1491 11.6831 26.5111 11.6831C25.7337 11.6831 25.0444 11.5181 24.4431 11.1881C23.8491 10.8507 23.3871 10.3851 23.0571 9.79107C22.7344 9.18973 22.5731 8.50407 22.5731 7.73407C22.5731 6.9714 22.7344 6.29307 23.0571 5.69907C23.3871 5.09773 23.8491 4.63207 24.4431 4.30207C25.0371 3.96473 25.7227 3.79607 26.5001 3.79607C27.4754 3.79607 28.2821 4.03073 28.9201 4.50007C29.5581 4.9694 29.9541 5.61107 30.1081 6.42507H27.7871ZM39.2253 5.40207C40.0026 5.40207 40.6113 5.63673 41.0513 6.10607C41.4986 6.5754 41.7223 7.21707 41.7223 8.03107V11.6281H39.5663V8.31707C39.5663 7.98707 39.4746 7.7304 39.2913 7.54707C39.1079 7.36373 38.8586 7.27207 38.5433 7.27207C38.2279 7.27207 37.9786 7.36373 37.7953 7.54707C37.6119 7.7304 37.5203 7.98707 37.5203 8.31707V11.6281H35.3643V8.31707C35.3643 7.98707 35.2726 7.7304 35.0893 7.54707C34.9133 7.36373 34.6676 7.27207 34.3523 7.27207C34.0296 7.27207 33.7766 7.36373 33.5933 7.54707C33.4099 7.7304 33.3183 7.98707 33.3183 8.31707V11.6281H31.1623V5.45707H33.3183V6.27107C33.5089 6.00707 33.7546 5.79807 34.0553 5.64407C34.3633 5.48273 34.7153 5.40207 35.1113 5.40207C35.5659 5.40207 35.9693 5.50107 36.3213 5.69907C36.6806 5.89707 36.9629 6.17573 37.1683 6.53507C37.3883 6.19773 37.6779 5.9264 38.0373 5.72107C38.3966 5.5084 38.7926 5.40207 39.2253 5.40207ZM45.5325 11.7051C44.9751 11.7051 44.4765 11.6134 44.0365 11.4301C43.6038 11.2394 43.2591 10.9827 43.0025 10.6601C42.7531 10.3301 42.6138 9.95973 42.5845 9.54907H44.6745C44.7038 9.74707 44.7955 9.90107 44.9495 10.0111C45.1035 10.1211 45.2941 10.1761 45.5215 10.1761C45.6975 10.1761 45.8368 10.1394 45.9395 10.0661C46.0421 9.99273 46.0935 9.8974 46.0935 9.78007C46.0935 9.62607 46.0091 9.5124 45.8405 9.43907C45.6718 9.36573 45.3931 9.28507 45.0045 9.19707C44.5645 9.10907 44.1978 9.01007 43.9045 8.90007C43.6111 8.79007 43.3545 8.6104 43.1345 8.36107C42.9218 8.11173 42.8155 7.7744 42.8155 7.34907C42.8155 6.9824 42.9145 6.6524 43.1125 6.35907C43.3105 6.0584 43.6001 5.82007 43.9815 5.64407C44.3701 5.46807 44.8358 5.38007 45.3785 5.38007C46.1851 5.38007 46.8195 5.57807 47.2815 5.97407C47.7435 6.37007 48.0111 6.89073 48.0845 7.53607H46.1375C46.1008 7.33807 46.0128 7.18773 45.8735 7.08507C45.7415 6.97507 45.5618 6.92007 45.3345 6.92007C45.1585 6.92007 45.0228 6.95307 44.9275 7.01907C44.8395 7.08507 44.7955 7.17673 44.7955 7.29407C44.7955 7.44073 44.8798 7.5544 45.0485 7.63507C45.2171 7.7084 45.4885 7.7854 45.8625 7.86607C46.3098 7.9614 46.6801 8.06773 46.9735 8.18507C47.2741 8.3024 47.5345 8.49307 47.7545 8.75707C47.9818 9.01373 48.0955 9.36573 48.0955 9.81307C48.0955 10.1724 47.9891 10.4951 47.7765 10.7811C47.5711 11.0671 47.2741 11.2944 46.8855 11.4631C46.5041 11.6244 46.0531 11.7051 45.5325 11.7051ZM1.13008 20.2561C1.13008 19.0081 1.38808 17.8981 1.90408 16.9261C2.43208 15.9421 3.17608 15.1801 4.13608 14.6401C5.09608 14.0881 6.20008 13.8121 7.44808 13.8121C9.03208 13.8121 10.3641 14.2381 11.4441 15.0901C12.5241 15.9301 13.2201 17.0761 13.5321 18.5281H9.73408C9.50608 18.0481 9.18808 17.6821 8.78008 17.4301C8.38408 17.1781 7.92208 17.0521 7.39408 17.0521C6.57808 17.0521 5.92408 17.3461 5.43208 17.9341C4.95208 18.5101 4.71208 19.2841 4.71208 20.2561C4.71208 21.2401 4.95208 22.0261 5.43208 22.6141C5.92408 23.1901 6.57808 23.4781 7.39408 23.4781C7.92208 23.4781 8.38408 23.3521 8.78008 23.1001C9.18808 22.8481 9.50608 22.4821 9.73408 22.0021H13.5321C13.2201 23.4541 12.5241 24.6061 11.4441 25.4581C10.3641 26.2981 9.03208 26.7181 7.44808 26.7181C6.20008 26.7181 5.09608 26.4481 4.13608 25.9081C3.17608 25.3561 2.43208 24.5941 1.90408 23.6221C1.38808 22.6381 1.13008 21.5161 1.13008 20.2561ZM14.6267 21.5701C14.6267 20.5261 14.8127 19.6141 15.1847 18.8341C15.5687 18.0541 16.0847 17.4541 16.7327 17.0341C17.3927 16.6141 18.1247 16.4041 18.9287 16.4041C19.6247 16.4041 20.2247 16.5421 20.7287 16.8181C21.2327 17.0941 21.6227 17.4661 21.8987 17.9341V16.5301H25.4267V26.6281H21.8987V25.2241C21.6227 25.6921 21.2267 26.0641 20.7107 26.3401C20.2067 26.6161 19.6127 26.7541 18.9287 26.7541C18.1247 26.7541 17.3927 26.5441 16.7327 26.1241C16.0847 25.7041 15.5687 25.1041 15.1847 24.3241C14.8127 23.5321 14.6267 22.6141 14.6267 21.5701ZM21.8987 21.5701C21.8987 20.9221 21.7187 20.4121 21.3587 20.0401C21.0107 19.6681 20.5787 19.4821 20.0627 19.4821C19.5347 19.4821 19.0967 19.6681 18.7487 20.0401C18.4007 20.4001 18.2267 20.9101 18.2267 21.5701C18.2267 22.2181 18.4007 22.7341 18.7487 23.1181C19.0967 23.4901 19.5347 23.6761 20.0627 23.6761C20.5787 23.6761 21.0107 23.4901 21.3587 23.1181C21.7187 22.7461 21.8987 22.2301 21.8987 21.5701ZM33.7551 26.6281L30.9651 22.4881V26.6281H27.4371V13.3081H30.9651V20.4901L33.7551 16.5301H37.9851L34.0071 21.6061L38.0571 26.6281H33.7551ZM48.7394 21.4621C48.7394 21.7381 48.7214 22.0141 48.6854 22.2901H42.0074C42.0434 22.8421 42.1934 23.2561 42.4574 23.5321C42.7334 23.7961 43.0814 23.9281 43.5014 23.9281C44.0894 23.9281 44.5094 23.6641 44.7614 23.1361H48.5234C48.3674 23.8321 48.0614 24.4561 47.6054 25.0081C47.1614 25.5481 46.5974 25.9741 45.9134 26.2861C45.2294 26.5981 44.4734 26.7541 43.6454 26.7541C42.6494 26.7541 41.7614 26.5441 40.9814 26.1241C40.2134 25.7041 39.6074 25.1041 39.1634 24.3241C38.7314 23.5441 38.5154 22.6261 38.5154 21.5701C38.5154 20.5141 38.7314 19.6021 39.1634 18.8341C39.5954 18.0541 40.1954 17.4541 40.9634 17.0341C41.7434 16.6141 42.6374 16.4041 43.6454 16.4041C44.6414 16.4041 45.5234 16.6081 46.2914 17.0161C47.0594 17.4241 47.6594 18.0121 48.0914 18.7801C48.5234 19.5361 48.7394 20.4301 48.7394 21.4621ZM45.1394 20.5801C45.1394 20.1481 44.9954 19.8121 44.7074 19.5721C44.4194 19.3201 44.0594 19.1941 43.6274 19.1941C43.1954 19.1941 42.8414 19.3141 42.5654 19.5541C42.2894 19.7821 42.1094 20.1241 42.0254 20.5801H45.1394Z" fill="#944B3C"/>
<g clip-path="url(#clip0_7_158)">
<path d="M68.3966 11.5312H66.6781V6.27806C66.6781 6.09851 66.8243 5.9523 67.0038 5.9523H68.0709C68.2504 5.9523 68.3966 6.09851 68.3966 6.27806V11.5312Z" fill="#F7C194"/>
<path d="M68.335 4.10807C67.8554 5.06225 67.8657 3.2565 67.5348 3.13851C67.504 3.29241 67.4578 3.44374 67.3937 3.58738C67.268 3.86953 67.0602 3.99265 66.8781 4.2235C66.5883 4.59029 66.6165 5.18537 66.9705 5.50086C67.3937 5.87792 68.076 5.72915 68.312 5.21615C68.4659 4.88783 68.3607 4.45691 68.335 4.10807Z" fill="#F9AD5A"/>
<path d="M67.94 6.62945C67.94 6.50633 67.84 6.4063 67.7169 6.4063C67.6476 6.4063 67.586 6.43708 67.545 6.48581C67.504 6.43708 67.4424 6.4063 67.3731 6.4063C67.25 6.4063 67.15 6.50633 67.15 6.62945C67.15 6.69357 67.1808 6.75 67.2218 6.79361L67.545 7.10397L67.8631 6.79618C67.9041 6.75514 67.94 6.69614 67.94 6.62945Z" fill="#DB374B"/>
<path d="M67.4168 4.20042C67.2757 4.51591 66.8935 5.1982 67.4527 5.36236C67.5758 5.39827 67.7323 5.37518 67.8118 5.26489C68.017 4.98274 67.5835 4.65699 67.5784 4.38766C67.5733 4.39279 67.5091 4.49796 67.5066 4.48C67.4937 4.3851 67.4578 4.28763 67.4168 4.20042Z" fill="#EA8500"/>
<path d="M67.4732 4.6416C67.3732 4.82372 67.1577 5.29054 67.4937 5.37262C67.6887 5.42136 67.8015 5.2572 67.7143 5.1033C67.622 4.93658 67.4655 4.85963 67.4732 4.6416Z" fill="#E5653E"/>
<path d="M77.8768 26.0387H56.8439V21.8912C56.8439 21.4577 57.1978 21.1037 57.6313 21.1037H77.0893C77.5228 21.1037 77.8768 21.4577 77.8768 21.8912V26.0388L77.8768 26.0387Z" fill="#FFD778"/>
<path d="M75.0553 21.1037H59.6654V16.8561C59.6654 16.4867 59.968 16.184 60.3374 16.184H74.3833C74.7527 16.184 75.0553 16.4867 75.0553 16.8561L75.0553 21.1037ZM72.2954 16.1841H62.4253V11.7954C62.4253 11.4978 62.669 11.2567 62.964 11.2567H71.7567C72.0543 11.2567 72.2954 11.5004 72.2954 11.7954L72.2954 16.1841Z" fill="#FFD778"/>
<path d="M74.3833 16.1841H60.3374C60.0553 16.1841 59.8116 16.361 59.7115 16.6099C60.1425 17.287 60.8991 18.5952 61.7712 18.7773C63.1307 19.0594 63.6001 17.6974 64.2157 17.723C64.8313 17.7487 64.7697 18.1565 65.4135 18.1924C66.0189 18.2258 66.3549 17.1408 67.0038 17.1151C67.6528 17.0895 67.8939 18.7131 69.0225 18.5592C70.1511 18.4053 69.8612 17.5666 70.4589 17.5512C71.0565 17.5332 70.9052 18.7131 71.7773 18.7388C72.6494 18.7644 72.4775 16.9715 73.2367 16.9612C73.996 16.951 73.878 18.7234 74.391 18.7747C74.904 18.826 75.0553 18.1591 75.0553 18.1591V16.8561C75.0553 16.4867 74.7527 16.1841 74.3833 16.1841Z" fill="#FCB429"/>
<path d="M74.391 18.4643C73.878 18.413 73.9986 16.6406 73.2368 16.6509C72.475 16.6611 72.6494 18.4541 71.7773 18.4284C70.9052 18.4028 71.0565 17.2229 70.4589 17.2408C69.8612 17.2588 70.1511 18.095 69.0225 18.2489C67.8939 18.4028 67.6553 16.7791 67.0038 16.8048C66.3523 16.8304 66.0189 17.9154 65.4135 17.8821C64.7723 17.8462 64.8313 17.4383 64.2157 17.4127C63.6001 17.387 63.1307 18.749 61.7712 18.4669C60.9581 18.2976 60.2476 17.1511 59.8065 16.4483C59.768 16.497 59.7372 16.5534 59.7141 16.6124C60.1425 17.287 60.8991 18.5952 61.7712 18.7773C63.1307 19.0594 63.6001 17.6974 64.2157 17.7231C64.8313 17.7487 64.7697 18.1565 65.4135 18.1924C66.0189 18.2258 66.3549 17.1408 67.0038 17.1151C67.6528 17.0895 67.8939 18.7131 69.0225 18.5592C70.1511 18.4053 69.8612 17.5666 70.4589 17.5512C71.0565 17.5332 70.9052 18.7131 71.7773 18.7388C72.6494 18.7644 72.4775 16.9715 73.2367 16.9612C73.996 16.951 73.878 18.7234 74.391 18.7747C74.904 18.826 75.0553 18.1591 75.0553 18.1591V17.8487C75.0553 17.8487 74.904 18.5156 74.391 18.4643Z" fill="#F99F10"/>
<path d="M72.2954 11.7954C72.2954 11.5312 72.103 11.3106 71.8516 11.2644H62.869C62.6177 11.3106 62.4253 11.5312 62.4253 11.7954V11.9364C62.4894 11.8749 62.5638 11.8415 62.6587 11.8415C63.223 11.8492 63.0948 13.1779 63.7411 13.1599C64.3875 13.142 64.2747 12.2673 64.7184 12.2801C65.1621 12.293 64.9467 12.9137 65.7829 13.0291C66.6191 13.1445 66.7986 11.939 67.2783 11.957C67.7605 11.9749 68.0093 12.7803 68.4582 12.7547C68.9352 12.729 68.8891 12.4238 69.3456 12.4058C69.8022 12.3879 70.151 13.3959 71.1591 13.1881C71.59 13.0984 71.985 12.6367 72.2928 12.1904V11.7954H72.2954Z" fill="#FCB429"/>
<path d="M71.1642 12.8778C70.1562 13.0881 69.8074 12.0775 69.3508 12.0955C68.8942 12.1134 68.9378 12.4186 68.4633 12.4443C68.0144 12.4699 67.7656 11.6645 67.2834 11.6466C66.8012 11.6286 66.6242 12.8316 65.788 12.7187C64.9518 12.6059 65.1673 11.9826 64.7235 11.9698C64.2798 11.9569 64.3927 12.8316 63.7463 12.8496C63.0999 12.8675 63.2282 11.5389 62.6639 11.5312C62.5895 11.5312 62.5254 11.5517 62.4715 11.5927C62.4458 11.6569 62.4305 11.7235 62.4305 11.7954V11.9364C62.4946 11.8749 62.569 11.8415 62.6639 11.8415C63.2282 11.8492 63.0999 13.1779 63.7463 13.1599C64.3927 13.142 64.2798 12.2673 64.7236 12.2801C65.1673 12.293 64.9518 12.9137 65.788 13.0291C66.6242 13.1445 66.8038 11.939 67.2834 11.957C67.7656 11.9749 68.0144 12.7803 68.4633 12.7547C68.9404 12.729 68.8942 12.4238 69.3508 12.4058C69.8074 12.3879 70.1562 13.3959 71.1642 13.1882C71.5952 13.0984 71.9902 12.6367 72.298 12.1904V11.88C71.9876 12.3263 71.5952 12.788 71.1642 12.8778Z" fill="#F99F10"/>
<path d="M77.0919 21.1037H57.6314C57.1979 21.1037 56.8439 21.4577 56.8439 21.8912V21.9758C57.4646 22.9633 58.4214 24.4408 59.5089 24.6665C61.4096 25.0615 62.0688 23.1557 62.9281 23.1916C63.7899 23.2275 63.7053 23.7995 64.603 23.8482C65.4495 23.8944 65.9188 22.3785 66.8269 22.3426C67.7349 22.3067 68.0709 24.5793 69.6483 24.3638C71.2258 24.1483 70.8205 22.9761 71.6567 22.9531C72.4929 22.93 72.2826 24.5793 73.5009 24.6152C74.7219 24.6511 74.4782 22.1451 75.5427 22.1297C76.6072 22.1143 76.4404 24.5921 77.1561 24.6639C77.5023 24.6973 77.7306 24.4998 77.8743 24.2869V21.8937C77.8768 21.4577 77.5229 21.1037 77.0919 21.1037Z" fill="#FCB429"/>
<path d="M77.1612 24.3228C76.443 24.251 76.6123 21.7732 75.5478 21.7886C74.4833 21.8039 74.7244 24.3099 73.5061 24.274C72.2851 24.2381 72.498 22.5888 71.6618 22.6119C70.8257 22.635 71.2309 23.8072 69.6534 24.0227C68.076 24.2381 67.74 21.9656 66.832 22.0015C65.924 22.0374 65.4546 23.5558 64.6081 23.5071C63.7104 23.4584 63.795 22.8864 62.9332 22.8505C62.0713 22.8146 61.4147 24.7204 59.514 24.3253C58.4444 24.1022 57.498 22.6658 56.8772 21.6808C56.8593 21.7475 56.849 21.8168 56.849 21.8912V21.9758C57.4698 22.9633 58.4265 24.4408 59.5141 24.6665C61.4147 25.0615 62.0739 23.1557 62.9332 23.1916C63.795 23.2275 63.7104 23.7995 64.6081 23.8483C65.4546 23.8944 65.924 22.3785 66.832 22.3426C67.74 22.3067 68.076 24.5793 69.6535 24.3638C71.2309 24.1484 70.8257 22.9762 71.6618 22.9531C72.498 22.93 72.2877 24.5793 73.5061 24.6152C74.727 24.6511 74.4833 22.1451 75.5478 22.1297C76.6123 22.1143 76.4456 24.5921 77.1612 24.6639C77.5075 24.6973 77.7357 24.4998 77.8794 24.2869V23.9483C77.7332 24.1612 77.5049 24.3587 77.1612 24.3228Z" fill="#F99F10"/>
</g>
<defs>
<clipPath id="clip0_7_158">
<rect width="23.0849" height="23.0849" fill="white" transform="translate(56 3)"/>
</clipPath>
</defs>
</svg>
