<svg width="111" height="36" viewBox="0 0 111 36" fill="none" xmlns="http://www.w3.org/2000/svg">
<path d="M1.39633 15.1177C1.39633 14.147 1.597 13.2837 1.99833 12.5277C2.409 11.7623 2.98767 11.1697 3.73433 10.7497C4.481 10.3203 5.33967 10.1057 6.31033 10.1057C7.54233 10.1057 8.57833 10.437 9.41833 11.0997C10.2583 11.753 10.7997 12.6443 11.0423 13.7737H8.08833C7.911 13.4003 7.66367 13.1157 7.34633 12.9197C7.03833 12.7237 6.679 12.6257 6.26833 12.6257C5.63367 12.6257 5.125 12.8543 4.74233 13.3117C4.369 13.7597 4.18233 14.3617 4.18233 15.1177C4.18233 15.883 4.369 16.4943 4.74233 16.9517C5.125 17.3997 5.63367 17.6237 6.26833 17.6237C6.679 17.6237 7.03833 17.5257 7.34633 17.3297C7.66367 17.1337 7.911 16.849 8.08833 16.4757H11.0423C10.7997 17.605 10.2583 18.501 9.41833 19.1637C8.57833 19.817 7.54233 20.1437 6.31033 20.1437C5.33967 20.1437 4.481 19.9337 3.73433 19.5137C2.98767 19.0843 2.409 18.4917 1.99833 17.7357C1.597 16.9703 1.39633 16.0977 1.39633 15.1177ZM15.0857 13.6057C15.3937 13.1577 15.767 12.803 16.2057 12.5417C16.6444 12.2803 17.1157 12.1497 17.6197 12.1497V15.0757H16.8497C16.2524 15.0757 15.809 15.1923 15.5197 15.4257C15.2304 15.659 15.0857 16.065 15.0857 16.6437V20.0737H12.3417V12.2197H15.0857V13.6057ZM26.1074 16.0557C26.1074 16.2703 26.0934 16.485 26.0654 16.6997H20.8714C20.8994 17.129 21.0161 17.451 21.2214 17.6657C21.4361 17.871 21.7068 17.9737 22.0334 17.9737C22.4908 17.9737 22.8174 17.7683 23.0134 17.3577H25.9394C25.8181 17.899 25.5801 18.3843 25.2254 18.8137C24.8801 19.2337 24.4414 19.565 23.9094 19.8077C23.3774 20.0503 22.7894 20.1717 22.1454 20.1717C21.3708 20.1717 20.6801 20.0083 20.0734 19.6817C19.4761 19.355 19.0048 18.8883 18.6594 18.2817C18.3234 17.675 18.1554 16.961 18.1554 16.1397C18.1554 15.3183 18.3234 14.609 18.6594 14.0117C18.9954 13.405 19.4621 12.9383 20.0594 12.6117C20.6661 12.285 21.3614 12.1217 22.1454 12.1217C22.9201 12.1217 23.6061 12.2803 24.2034 12.5977C24.8008 12.915 25.2674 13.3723 25.6034 13.9697C25.9394 14.5577 26.1074 15.253 26.1074 16.0557ZM23.3074 15.3697C23.3074 15.0337 23.1954 14.7723 22.9714 14.5857C22.7474 14.3897 22.4674 14.2917 22.1314 14.2917C21.7954 14.2917 21.5201 14.385 21.3054 14.5717C21.0908 14.749 20.9508 15.015 20.8854 15.3697H23.3074ZM26.7824 16.1397C26.7824 15.3277 26.927 14.6183 27.2164 14.0117C27.515 13.405 27.9164 12.9383 28.4204 12.6117C28.9337 12.285 29.503 12.1217 30.1284 12.1217C30.6697 12.1217 31.1364 12.229 31.5284 12.4437C31.9204 12.6583 32.2237 12.9477 32.4384 13.3117V12.2197H35.1824V20.0737H32.4384V18.9817C32.2237 19.3457 31.9157 19.635 31.5144 19.8497C31.1224 20.0643 30.6604 20.1717 30.1284 20.1717C29.503 20.1717 28.9337 20.0083 28.4204 19.6817C27.9164 19.355 27.515 18.8883 27.2164 18.2817C26.927 17.6657 26.7824 16.9517 26.7824 16.1397ZM32.4384 16.1397C32.4384 15.6357 32.2984 15.239 32.0184 14.9497C31.7477 14.6603 31.4117 14.5157 31.0104 14.5157C30.5997 14.5157 30.259 14.6603 29.9884 14.9497C29.7177 15.2297 29.5824 15.6263 29.5824 16.1397C29.5824 16.6437 29.7177 17.045 29.9884 17.3437C30.259 17.633 30.5997 17.7777 31.0104 17.7777C31.4117 17.7777 31.7477 17.633 32.0184 17.3437C32.2984 17.0543 32.4384 16.653 32.4384 16.1397ZM47.008 12.1497C47.9973 12.1497 48.772 12.4483 49.332 13.0457C49.9013 13.643 50.186 14.4597 50.186 15.4957V20.0737H47.442V15.8597C47.442 15.4397 47.3253 15.113 47.092 14.8797C46.8587 14.6463 46.5413 14.5297 46.14 14.5297C45.7387 14.5297 45.4213 14.6463 45.188 14.8797C44.9547 15.113 44.838 15.4397 44.838 15.8597V20.0737H42.094V15.8597C42.094 15.4397 41.9773 15.113 41.744 14.8797C41.52 14.6463 41.2073 14.5297 40.806 14.5297C40.3953 14.5297 40.0733 14.6463 39.84 14.8797C39.6067 15.113 39.49 15.4397 39.49 15.8597V20.0737H36.746V12.2197H39.49V13.2557C39.7327 12.9197 40.0453 12.6537 40.428 12.4577C40.82 12.2523 41.268 12.1497 41.772 12.1497C42.3507 12.1497 42.864 12.2757 43.312 12.5277C43.7693 12.7797 44.1287 13.1343 44.39 13.5917C44.67 13.1623 45.0387 12.817 45.496 12.5557C45.9533 12.285 46.4573 12.1497 47.008 12.1497ZM60.1454 12.2197L55.1614 23.8117H52.1794L54.0554 19.7377L50.8354 12.2197H53.8874L55.5394 16.6717L57.1354 12.2197H60.1454ZM1.16433 27.5447C1.16433 27.0227 1.27233 26.5667 1.48833 26.1767C1.70433 25.7867 2.00433 25.4867 2.38833 25.2767C2.77833 25.0667 3.22233 24.9617 3.72033 24.9617C4.36233 24.9617 4.90233 25.1387 5.34033 25.4927C5.77833 25.8407 6.06033 26.3297 6.18633 26.9597H4.31433C4.20633 26.6297 3.99633 26.4647 3.68433 26.4647C3.46233 26.4647 3.28533 26.5577 3.15333 26.7437C3.02733 26.9237 2.96433 27.1907 2.96433 27.5447C2.96433 27.8987 3.02733 28.1687 3.15333 28.3547C3.28533 28.5407 3.46233 28.6337 3.68433 28.6337C4.00233 28.6337 4.21233 28.4687 4.31433 28.1387H6.18633C6.06033 28.7627 5.77833 29.2517 5.34033 29.6057C4.90233 29.9597 4.36233 30.1367 3.72033 30.1367C3.22233 30.1367 2.77833 30.0317 2.38833 29.8217C2.00433 29.6117 1.70433 29.3117 1.48833 28.9217C1.27233 28.5317 1.16433 28.0727 1.16433 27.5447ZM6.63113 27.5447C6.63113 27.0227 6.72413 26.5667 6.91013 26.1767C7.10213 25.7867 7.36013 25.4867 7.68413 25.2767C8.01413 25.0667 8.38013 24.9617 8.78213 24.9617C9.13013 24.9617 9.43013 25.0307 9.68213 25.1687C9.93413 25.3067 10.1291 25.4927 10.2671 25.7267V25.0247H12.0311V30.0737H10.2671V29.3717C10.1291 29.6057 9.93113 29.7917 9.67313 29.9297C9.42113 30.0677 9.12413 30.1367 8.78213 30.1367C8.38013 30.1367 8.01413 30.0317 7.68413 29.8217C7.36013 29.6117 7.10213 29.3117 6.91013 28.9217C6.72413 28.5257 6.63113 28.0667 6.63113 27.5447ZM10.2671 27.5447C10.2671 27.2207 10.1771 26.9657 9.99713 26.7797C9.82313 26.5937 9.60713 26.5007 9.34913 26.5007C9.08513 26.5007 8.86613 26.5937 8.69213 26.7797C8.51813 26.9597 8.43113 27.2147 8.43113 27.5447C8.43113 27.8687 8.51813 28.1267 8.69213 28.3187C8.86613 28.5047 9.08513 28.5977 9.34913 28.5977C9.60713 28.5977 9.82313 28.5047 9.99713 28.3187C10.1771 28.1327 10.2671 27.8747 10.2671 27.5447ZM14.8003 25.7267C14.9383 25.4927 15.1333 25.3067 15.3853 25.1687C15.6373 25.0307 15.9343 24.9617 16.2763 24.9617C16.6783 24.9617 17.0413 25.0667 17.3653 25.2767C17.6953 25.4867 17.9533 25.7867 18.1393 26.1767C18.3313 26.5667 18.4273 27.0227 18.4273 27.5447C18.4273 28.0667 18.3313 28.5257 18.1393 28.9217C17.9533 29.3117 17.6953 29.6117 17.3653 29.8217C17.0413 30.0317 16.6783 30.1367 16.2763 30.1367C15.9343 30.1367 15.6373 30.0677 15.3853 29.9297C15.1393 29.7917 14.9443 29.6057 14.8003 29.3717V32.4857H13.0363V25.0247H14.8003V25.7267ZM16.6363 27.5447C16.6363 27.2147 16.5463 26.9597 16.3663 26.7797C16.1923 26.5937 15.9763 26.5007 15.7183 26.5007C15.4603 26.5007 15.2413 26.5937 15.0613 26.7797C14.8873 26.9657 14.8003 27.2207 14.8003 27.5447C14.8003 27.8747 14.8873 28.1327 15.0613 28.3187C15.2413 28.5047 15.4603 28.5977 15.7183 28.5977C15.9763 28.5977 16.1923 28.5047 16.3663 28.3187C16.5463 28.1267 16.6363 27.8687 16.6363 27.5447ZM20.9175 25.7267C21.0555 25.4927 21.2505 25.3067 21.5025 25.1687C21.7545 25.0307 22.0515 24.9617 22.3935 24.9617C22.7955 24.9617 23.1585 25.0667 23.4825 25.2767C23.8125 25.4867 24.0705 25.7867 24.2565 26.1767C24.4485 26.5667 24.5445 27.0227 24.5445 27.5447C24.5445 28.0667 24.4485 28.5257 24.2565 28.9217C24.0705 29.3117 23.8125 29.6117 23.4825 29.8217C23.1585 30.0317 22.7955 30.1367 22.3935 30.1367C22.0515 30.1367 21.7545 30.0677 21.5025 29.9297C21.2565 29.7917 21.0615 29.6057 20.9175 29.3717V32.4857H19.1535V25.0247H20.9175V25.7267ZM22.7535 27.5447C22.7535 27.2147 22.6635 26.9597 22.4835 26.7797C22.3095 26.5937 22.0935 26.5007 21.8355 26.5007C21.5775 26.5007 21.3585 26.5937 21.1785 26.7797C21.0045 26.9657 20.9175 27.2207 20.9175 27.5447C20.9175 27.8747 21.0045 28.1327 21.1785 28.3187C21.3585 28.5047 21.5775 28.5977 21.8355 28.5977C22.0935 28.5977 22.3095 28.5047 22.4835 28.3187C22.6635 28.1267 22.7535 27.8687 22.7535 27.5447ZM30.4367 25.0247V30.0737H28.6637V29.3537C28.5137 29.5817 28.3067 29.7677 28.0427 29.9117C27.7787 30.0497 27.4757 30.1187 27.1337 30.1187C26.5457 30.1187 26.0807 29.9267 25.7387 29.5427C25.4027 29.1527 25.2347 28.6247 25.2347 27.9587V25.0247H26.9897V27.7337C26.9897 28.0217 27.0647 28.2497 27.2147 28.4177C27.3707 28.5797 27.5747 28.6607 27.8267 28.6607C28.0847 28.6607 28.2887 28.5797 28.4387 28.4177C28.5887 28.2497 28.6637 28.0217 28.6637 27.7337V25.0247H30.4367ZM31.1526 27.5447C31.1526 27.0227 31.2606 26.5667 31.4766 26.1767C31.6926 25.7867 31.9926 25.4867 32.3766 25.2767C32.7666 25.0667 33.2106 24.9617 33.7086 24.9617C34.3506 24.9617 34.8906 25.1387 35.3286 25.4927C35.7666 25.8407 36.0486 26.3297 36.1746 26.9597H34.3026C34.1946 26.6297 33.9846 26.4647 33.6726 26.4647C33.4506 26.4647 33.2736 26.5577 33.1416 26.7437C33.0156 26.9237 32.9526 27.1907 32.9526 27.5447C32.9526 27.8987 33.0156 28.1687 33.1416 28.3547C33.2736 28.5407 33.4506 28.6337 33.6726 28.6337C33.9906 28.6337 34.2006 28.4687 34.3026 28.1387H36.1746C36.0486 28.7627 35.7666 29.2517 35.3286 29.6057C34.8906 29.9597 34.3506 30.1367 33.7086 30.1367C33.2106 30.1367 32.7666 30.0317 32.3766 29.8217C31.9926 29.6117 31.6926 29.3117 31.4766 28.9217C31.2606 28.5317 31.1526 28.0727 31.1526 27.5447ZM36.6194 27.5447C36.6194 27.0227 36.7274 26.5667 36.9434 26.1767C37.1594 25.7867 37.4594 25.4867 37.8434 25.2767C38.2334 25.0667 38.6774 24.9617 39.1754 24.9617C39.8174 24.9617 40.3574 25.1387 40.7954 25.4927C41.2334 25.8407 41.5154 26.3297 41.6414 26.9597H39.7694C39.6614 26.6297 39.4514 26.4647 39.1394 26.4647C38.9174 26.4647 38.7404 26.5577 38.6084 26.7437C38.4824 26.9237 38.4194 27.1907 38.4194 27.5447C38.4194 27.8987 38.4824 28.1687 38.6084 28.3547C38.7404 28.5407 38.9174 28.6337 39.1394 28.6337C39.4574 28.6337 39.6674 28.4687 39.7694 28.1387H41.6414C41.5154 28.7627 41.2334 29.2517 40.7954 29.6057C40.3574 29.9597 39.8174 30.1367 39.1754 30.1367C38.6774 30.1367 38.2334 30.0317 37.8434 29.8217C37.4594 29.6117 37.1594 29.3117 36.9434 28.9217C36.7274 28.5317 36.6194 28.0727 36.6194 27.5447ZM43.2652 24.5567C42.9532 24.5567 42.7012 24.4727 42.5092 24.3047C42.3232 24.1307 42.2302 23.9147 42.2302 23.6567C42.2302 23.3927 42.3232 23.1737 42.5092 22.9997C42.7012 22.8257 42.9532 22.7387 43.2652 22.7387C43.5712 22.7387 43.8172 22.8257 44.0032 22.9997C44.1952 23.1737 44.2912 23.3927 44.2912 23.6567C44.2912 23.9147 44.1952 24.1307 44.0032 24.3047C43.8172 24.4727 43.5712 24.5567 43.2652 24.5567ZM44.1382 25.0247V30.0737H42.3742V25.0247H44.1382ZM48.4458 24.9797C49.0278 24.9797 49.4898 25.1747 49.8318 25.5647C50.1738 25.9487 50.3448 26.4707 50.3448 27.1307V30.0737H48.5808V27.3647C48.5808 27.0767 48.5058 26.8517 48.3558 26.6897C48.2058 26.5217 48.0048 26.4377 47.7528 26.4377C47.4888 26.4377 47.2818 26.5217 47.1318 26.6897C46.9818 26.8517 46.9068 27.0767 46.9068 27.3647V30.0737H45.1428V25.0247H46.9068V25.7447C47.0628 25.5167 47.2728 25.3337 47.5368 25.1957C47.8008 25.0517 48.1038 24.9797 48.4458 24.9797ZM53.6617 30.1367C53.1577 30.1367 52.7047 30.0317 52.3027 29.8217C51.9067 29.6117 51.5947 29.3117 51.3667 28.9217C51.1387 28.5317 51.0247 28.0727 51.0247 27.5447C51.0247 27.0227 51.1387 26.5667 51.3667 26.1767C51.6007 25.7867 51.9157 25.4867 52.3117 25.2767C52.7137 25.0667 53.1667 24.9617 53.6707 24.9617C54.1747 24.9617 54.6247 25.0667 55.0207 25.2767C55.4227 25.4867 55.7377 25.7867 55.9657 26.1767C56.1997 26.5667 56.3167 27.0227 56.3167 27.5447C56.3167 28.0667 56.1997 28.5257 55.9657 28.9217C55.7377 29.3117 55.4227 29.6117 55.0207 29.8217C54.6187 30.0317 54.1657 30.1367 53.6617 30.1367ZM53.6617 28.6067C53.9077 28.6067 54.1117 28.5167 54.2737 28.3367C54.4417 28.1507 54.5257 27.8867 54.5257 27.5447C54.5257 27.2027 54.4417 26.9417 54.2737 26.7617C54.1117 26.5817 53.9107 26.4917 53.6707 26.4917C53.4307 26.4917 53.2297 26.5817 53.0677 26.7617C52.9057 26.9417 52.8247 27.2027 52.8247 27.5447C52.8247 27.8927 52.9027 28.1567 53.0587 28.3367C53.2147 28.5167 53.4157 28.6067 53.6617 28.6067Z" fill="#699B6E"/>
<g clip-path="url(#clip0_7_204)">
<path d="M97.6624 33.987H86.5172C83.5378 33.987 80.6976 32.7261 78.6993 30.516H105.48C103.482 32.7261 100.642 33.987 97.6624 33.987Z" fill="#81CCB5"/>
<path d="M92.0898 30.206C85.2337 30.206 79.6757 24.648 79.6757 17.7919V11.3756H104.504V17.7919C104.504 24.648 98.9459 30.206 92.0898 30.206Z" fill="#FFAB64"/>
<path d="M102.963 11.3757C103.013 11.1086 103.041 10.8335 103.041 10.5518C103.041 8.11308 101.064 6.13617 98.6249 6.13617C98.2627 6.13617 97.9108 6.18012 97.5741 6.26259C97.4264 6.29873 97.0901 6.13554 97.0583 6.00968C96.4779 3.71299 94.3992 2.01298 91.9222 2.01298C89.4134 2.01298 87.3128 3.75687 86.764 6.09834C86.7489 6.16296 86.5994 6.26126 86.5374 6.24705C86.2214 6.17491 85.8925 6.13617 85.5547 6.13617C83.116 6.13617 81.139 8.11315 81.139 10.5519C81.139 10.8335 81.1665 11.1087 81.2169 11.3758L102.963 11.3757Z" fill="#FFCAAB"/>
<path d="M105.282 20.964C108.493 20.6133 111 17.8864 111 14.5839V11.3757C111 10.7386 110.483 10.222 109.846 10.222H104.581C104.568 10.222 104.555 10.2234 104.542 10.2239C104.529 10.2236 104.517 10.222 104.504 10.222H104.184C104.013 7.30399 101.585 4.98241 98.6251 4.98241C98.4011 4.98241 98.1775 4.99591 97.9559 5.0227C97.0172 2.53821 94.632 0.859289 91.9225 0.859289C89.2083 0.859289 86.8422 2.52084 85.8988 4.99317C85.7843 4.986 85.6696 4.98241 85.5548 4.98241C82.5946 4.98241 80.1673 7.30399 79.996 10.222H79.6759C79.0387 10.222 78.5222 10.7386 78.5222 11.3757V17.792C78.5222 22.6811 81.1219 26.9741 85.0112 29.3624H78.6993H76.1538C75.5165 29.3623 75 29.8789 75 30.516C75 31.1531 75.5165 31.6698 76.1538 31.6698H78.2041C80.3928 33.8814 83.3928 35.1408 86.5171 35.1408H97.6624C100.787 35.1408 103.787 33.8815 105.975 31.6698H108.026C108.663 31.6698 109.18 31.1531 109.18 30.516C109.18 29.8789 108.663 29.3623 108.026 29.3623H105.48H99.1685C102.189 27.5075 104.431 24.5036 105.282 20.964ZM97.6624 32.8334H86.5172C84.9218 32.8334 83.3666 32.4245 81.9938 31.6699H102.186C100.813 32.4245 99.2579 32.8334 97.6624 32.8334ZM108.692 14.5839C108.692 16.4864 107.393 18.0908 105.636 18.5578C105.65 18.3043 105.658 18.0491 105.658 17.792V12.5295H108.692V14.5839H108.692ZM85.5547 7.28993C85.798 7.28993 86.0424 7.31749 86.2804 7.37184C86.961 7.52759 87.7268 7.04587 87.8874 6.36159C88.3283 4.48038 89.9875 3.16673 91.9224 3.16673C93.8227 3.16673 95.4747 4.45212 95.9399 6.29283C96.1455 7.10473 97.1518 7.55353 97.8487 7.38323C98.1015 7.32136 98.3627 7.28993 98.6251 7.28993C100.312 7.28993 101.705 8.57763 101.87 10.222H82.3094C82.4752 8.57763 83.8673 7.28993 85.5547 7.28993ZM92.0899 29.0523C85.881 29.0523 80.8296 24.001 80.8296 17.7919V12.5294H81.217H102.963H103.35V17.7919C103.35 18.096 103.338 18.3973 103.314 18.6955H88.1032C87.4659 18.6955 86.9494 19.2121 86.9494 19.8492C86.9494 20.4863 87.4659 21.003 88.1032 21.003H102.883C101.497 25.6524 97.1835 29.0523 92.0899 29.0523Z" fill="black"/>
<path d="M84.6422 21.0033C84.5671 21.0033 84.491 20.9953 84.416 20.9803C84.3433 20.9653 84.2706 20.9434 84.2003 20.9145C84.1311 20.8857 84.0642 20.8499 84.0019 20.8084C83.9384 20.7668 83.8796 20.7184 83.8265 20.6653C83.7734 20.6122 83.725 20.5533 83.6823 20.4899C83.6408 20.4276 83.605 20.3607 83.5761 20.2903C83.5473 20.221 83.5254 20.1485 83.5104 20.0746C83.4954 20.0007 83.4885 19.9246 83.4885 19.8496C83.4885 19.7747 83.4954 19.6984 83.5104 19.6234C83.5254 19.5507 83.5473 19.478 83.5761 19.4078C83.605 19.3385 83.6408 19.2715 83.6823 19.2092C83.725 19.1457 83.7734 19.087 83.8265 19.0339C84.0942 18.7651 84.4922 18.6416 84.8672 18.7178C84.9411 18.7327 85.0138 18.7547 85.0829 18.7835C85.1533 18.8123 85.2203 18.8481 85.2826 18.8897C85.346 18.9323 85.4048 18.9808 85.4579 19.0339C85.511 19.087 85.5594 19.1458 85.601 19.2092C85.6426 19.2715 85.6783 19.3385 85.7072 19.4078C85.736 19.478 85.7579 19.5507 85.7729 19.6234C85.7879 19.6985 85.796 19.7747 85.796 19.8496C85.796 19.9246 85.7879 20.0008 85.7729 20.0746C85.7579 20.1485 85.736 20.2212 85.7072 20.2903C85.6783 20.3607 85.6426 20.4276 85.601 20.4899C85.5594 20.5533 85.511 20.6122 85.4579 20.6653C85.4048 20.7184 85.346 20.7668 85.2826 20.8084C85.2203 20.8499 85.1533 20.8856 85.0829 20.9145C85.0137 20.9434 84.9411 20.9653 84.8672 20.9803C84.7933 20.9952 84.7172 21.0033 84.6422 21.0033Z" fill="black"/>
</g>
<defs>
<clipPath id="clip0_7_204">
<rect width="36" height="36" fill="white" transform="translate(75)"/>
</clipPath>
</defs>
</svg>
