<svg width="85" height="32" viewBox="0 0 85 32" fill="none" xmlns="http://www.w3.org/2000/svg">
<path d="M0.826972 11.0962C0.779784 10.4045 0.880814 9.77946 1.13006 9.2212C1.38551 8.65584 1.76907 8.20536 2.28075 7.86975C2.79198 7.5275 3.39345 7.33278 4.08518 7.28559C4.96314 7.2257 5.71753 7.41145 6.34835 7.84285C6.97872 8.2676 7.40783 8.87647 7.63566 9.66947L5.53055 9.81308C5.38603 9.55565 5.19593 9.36481 4.96026 9.24056C4.73124 9.11586 4.47041 9.06349 4.17776 9.08346C3.72547 9.11431 3.3741 9.30199 3.12363 9.64651C2.87936 9.98391 2.77561 10.422 2.81236 10.9607C2.84956 11.5061 3.01231 11.9327 3.30059 12.2405C3.59507 12.5411 3.96845 12.676 4.42073 12.6452C4.71338 12.6252 4.96469 12.5379 5.17465 12.3833C5.39127 12.2282 5.55368 12.0133 5.66191 11.7386L7.76701 11.595C7.64899 12.4116 7.30677 13.0764 6.74038 13.5895C6.17353 14.0959 5.45113 14.3791 4.57317 14.439C3.88144 14.4862 3.25932 14.3782 2.70681 14.1152C2.15384 13.8456 1.71265 13.4514 1.38325 12.9326C1.06004 12.4067 0.874615 11.7946 0.826972 11.0962ZM12.1641 8.19785C12.8026 8.15429 13.3229 8.33597 13.7248 8.74289C14.133 9.1427 14.362 9.70843 14.4119 10.4401L14.6345 13.7025L12.679 13.8359L12.4742 10.8329C12.4524 10.5136 12.3522 10.2698 12.1737 10.1016C11.9947 9.92672 11.7656 9.8488 11.4862 9.86786C11.1936 9.88782 10.9704 9.99659 10.8169 10.1942C10.6628 10.3851 10.5967 10.6402 10.6185 10.9594L10.8234 13.9625L8.8679 14.0959L8.36426 6.71303L10.3197 6.57963L10.496 9.16362C10.6517 8.89908 10.8706 8.68034 11.1528 8.50739C11.4413 8.32735 11.7784 8.22416 12.1641 8.19785ZM18.3162 13.5215C17.7575 13.5596 17.2474 13.4775 16.7859 13.2751C16.331 13.0722 15.9625 12.7633 15.6802 12.3482C15.398 11.9331 15.2369 11.4329 15.197 10.8476C15.1575 10.2689 15.2494 9.75481 15.4726 9.30524C15.7025 8.85521 16.029 8.49883 16.4521 8.23609C16.8819 7.9729 17.3761 7.82225 17.9348 7.78413C18.4935 7.74602 19.0003 7.82839 19.4552 8.03123C19.9167 8.23362 20.2885 8.54236 20.5708 8.95745C20.8597 9.37208 21.0239 9.86873 21.0633 10.4474C21.1028 11.026 21.0078 11.5437 20.7784 12.0004C20.5551 12.4499 20.2286 12.8063 19.7989 13.0695C19.3691 13.3327 18.8749 13.4834 18.3162 13.5215ZM18.2005 11.8254C18.4732 11.8068 18.6925 11.6916 18.8585 11.4798C19.0307 11.2609 19.1038 10.9619 19.0779 10.5828C19.0521 10.2037 18.9392 9.92073 18.7394 9.7339C18.5462 9.54661 18.3166 9.46204 18.0505 9.48019C17.7845 9.49834 17.5685 9.61331 17.4025 9.8251C17.2365 10.0369 17.1665 10.3323 17.1923 10.7115C17.2186 11.0972 17.3251 11.384 17.5116 11.5717C17.6982 11.7595 17.9278 11.844 18.2005 11.8254ZM22.6206 7.01343C22.2748 7.03702 21.9891 6.96296 21.7635 6.79125C21.5442 6.61243 21.4248 6.38002 21.4053 6.09402C21.3853 5.80136 21.4718 5.55156 21.6649 5.34461C21.8645 5.13721 22.1373 5.02171 22.4832 4.99811C22.8224 4.97497 23.1017 5.05281 23.321 5.23163C23.547 5.41 23.67 5.6455 23.6899 5.93816C23.7095 6.22416 23.6194 6.47086 23.4197 6.67827C23.2262 6.87857 22.9599 6.99029 22.6206 7.01343ZM23.6238 7.4662L24.0056 13.0632L22.0502 13.1966L21.6683 7.5996L23.6238 7.4662ZM24.6087 10.2055C24.5692 9.62687 24.6544 9.11321 24.8644 8.66455C25.0744 8.21588 25.3842 7.86064 25.794 7.5988C26.2105 7.33652 26.6947 7.18655 27.2468 7.14889C27.9584 7.10034 28.5704 7.25571 29.0827 7.61501C29.5946 7.96766 29.9442 8.48841 30.1315 9.17725L28.0563 9.31882C27.9117 8.96117 27.6664 8.79414 27.3205 8.81774C27.0744 8.83453 26.8852 8.951 26.753 9.16717C26.6269 9.37624 26.5773 9.67698 26.604 10.0694C26.6308 10.4618 26.7211 10.7564 26.8748 10.953C27.0352 11.1492 27.2385 11.2389 27.4845 11.2221C27.8371 11.1981 28.0574 10.9993 28.1455 10.6258L30.2207 10.4842C30.1282 11.1855 29.8526 11.7489 29.3938 12.1744C28.935 12.6 28.3498 12.837 27.6381 12.8856C27.0861 12.9232 26.5859 12.8404 26.1377 12.6371C25.6962 12.4333 25.3409 12.1235 25.072 11.7075C24.803 11.2915 24.6486 10.7908 24.6087 10.2055ZM36.3316 9.34567C36.342 9.49865 36.3425 9.6523 36.3329 9.80664L32.6315 10.0591C32.6724 10.3637 32.7712 10.5875 32.9279 10.7305C33.0909 10.8664 33.2888 10.9264 33.5216 10.9105C33.8475 10.8883 34.0703 10.7261 34.19 10.4239L36.2751 10.2817C36.215 10.6733 36.069 11.0308 35.8371 11.354C35.6114 11.6701 35.3149 11.9275 34.9476 12.1263C34.5803 12.3251 34.1672 12.4402 33.7082 12.4715C33.1562 12.5091 32.656 12.4263 32.2078 12.223C31.7663 12.0192 31.4077 11.7096 31.1321 11.2941C30.8632 10.8781 30.7087 10.3774 30.6688 9.79211C30.6289 9.2068 30.7141 8.69315 30.9245 8.25113C31.1345 7.80247 31.4444 7.44722 31.8542 7.18539C32.2706 6.92311 32.7582 6.77291 33.3169 6.73479C33.8689 6.69713 34.3655 6.77685 34.8066 6.97396C35.2477 7.17106 35.6025 7.47428 35.871 7.88362C36.139 8.28632 36.2925 8.77366 36.3316 9.34567ZM34.3029 8.99292C34.2865 8.75348 34.194 8.57269 34.0253 8.45056C33.8561 8.32177 33.6518 8.26555 33.4124 8.28188C33.173 8.29821 32.9813 8.37811 32.8374 8.52157C32.693 8.65838 32.6062 8.85475 32.5769 9.11067L34.3029 8.99292ZM41.8455 11.9163C41.2868 11.9545 40.7767 11.8723 40.3152 11.6699C39.8603 11.4671 39.4918 11.1581 39.2095 10.743C38.9273 10.3279 38.7662 9.82775 38.7263 9.24244C38.6868 8.66379 38.7787 8.14968 39.0019 7.70011C39.2318 7.25008 39.5583 6.8937 39.9814 6.63096C40.4112 6.36777 40.9054 6.21712 41.4641 6.179C42.0228 6.14089 42.5296 6.22325 42.9845 6.4261C43.446 6.62849 43.8178 6.93723 44.1001 7.35232C44.389 7.76695 44.5532 8.26359 44.5926 8.84225C44.6321 9.4209 44.5371 9.93857 44.3077 10.3952C44.0844 10.8448 43.7579 11.2012 43.3282 11.4644C42.8984 11.7276 42.4042 11.8782 41.8455 11.9163ZM41.7298 10.2203C42.0025 10.2017 42.2218 10.0865 42.3878 9.87471C42.56 9.65581 42.6331 9.35681 42.6072 8.97769C42.5814 8.59857 42.4685 8.3156 42.2687 8.12876C42.0755 7.94148 41.8459 7.85691 41.5798 7.87506C41.3138 7.89321 41.0978 8.00818 40.9318 8.21996C40.7658 8.43175 40.6958 8.7272 40.7216 9.10632C40.7479 9.49209 40.8544 9.77885 41.0409 9.96659C41.2275 10.1543 41.4571 10.2389 41.7298 10.2203ZM48.3315 7.41447L47.4536 7.47436L47.7245 11.4451L45.759 11.5792L45.4882 7.60844L44.8796 7.64996L44.7686 6.02373L45.3772 5.98222L45.3738 5.93233C45.3248 5.214 45.4969 4.65099 45.8901 4.24328C46.2894 3.82847 46.8848 3.59407 47.6763 3.54008C47.836 3.52919 47.9592 3.52412 48.0462 3.52487L48.1598 5.191C48.1062 5.18798 48.0328 5.18964 47.9396 5.196C47.7268 5.21051 47.5739 5.27106 47.4809 5.37764C47.3875 5.47756 47.3414 5.63439 47.3426 5.84814L48.2206 5.78825L48.3315 7.41447ZM12.2022 20.4236C12.2544 21.1898 12.1226 21.9024 11.8068 22.5615C11.502 23.2077 11.0036 23.7469 10.3114 24.179C9.63035 24.5983 8.77502 24.8431 7.74542 24.9133L6.00346 25.0322L6.29503 29.3062L2.77521 29.5464L1.91153 16.8858L7.1733 16.5268C8.19094 16.4574 9.06518 16.5782 9.79604 16.8892C10.5389 17.1993 11.1115 17.6594 11.514 18.2695C11.9164 18.8795 12.1458 19.5975 12.2022 20.4236ZM7.2131 22.1351C8.20679 22.0673 8.6726 21.5785 8.61052 20.6686C8.54764 19.7468 8.01935 19.3197 7.02566 19.3875L5.62491 19.4831L5.81235 22.2307L7.2131 22.1351ZM13.2731 23.7605C13.2021 22.7189 13.3256 21.7963 13.6436 20.9928C13.9736 20.1885 14.4476 19.5548 15.0655 19.0916C15.6954 18.6277 16.4114 18.3684 17.2136 18.3136C17.9079 18.2663 18.5159 18.3631 19.0376 18.6042C19.5592 18.8452 19.9736 19.1898 20.2808 19.638L20.1852 18.2372L23.7051 17.9971L24.3923 28.0717L20.8725 28.3118L20.777 26.911C20.5334 27.3967 20.1637 27.7948 19.6677 28.1053C19.1836 28.415 18.6004 28.5931 17.918 28.6396C17.1158 28.6944 16.3712 28.5347 15.6842 28.1606C15.0091 27.7856 14.4535 27.2221 14.0173 26.4701C13.5922 25.7052 13.3442 24.802 13.2731 23.7605ZM20.5283 23.2655C20.4842 22.619 20.2699 22.1225 19.8854 21.7758C19.5129 21.4284 19.0692 21.2722 18.5544 21.3073C18.0276 21.3433 17.6033 21.5586 17.2814 21.9535C16.9587 22.3363 16.8199 22.857 16.8648 23.5154C16.9089 24.1619 17.1176 24.6649 17.4909 25.0243C17.8634 25.3718 18.3131 25.5275 18.8399 25.4916C19.3547 25.4565 19.773 25.2415 20.0949 24.8467C20.4287 24.451 20.5732 23.924 20.5283 23.2655ZM30.6986 27.7678C29.7888 27.8298 28.9644 27.7357 28.2257 27.4854C27.4981 27.2223 26.9068 26.8417 26.4519 26.3435C26.0081 25.8325 25.7393 25.2434 25.6457 24.5763L29.0578 24.3435C29.1277 24.6635 29.2945 24.9047 29.5582 25.0671C29.8219 25.2296 30.1393 25.2981 30.5104 25.2728C30.7977 25.2532 31.0211 25.1778 31.1806 25.0467C31.34 24.9155 31.4132 24.7541 31.4001 24.5626C31.383 24.3112 31.2326 24.135 30.9491 24.0341C30.6656 23.9331 30.2017 23.8325 29.5573 23.7321C28.8292 23.6374 28.2196 23.5166 27.7284 23.3697C27.2373 23.2228 26.7983 22.9581 26.4113 22.5755C26.0364 22.1921 25.8252 21.6533 25.7778 20.9589C25.737 20.3603 25.8619 19.8105 26.1524 19.3096C26.4422 18.7967 26.8886 18.3753 27.4915 18.0455C28.1064 17.7149 28.8569 17.5194 29.7428 17.4589C31.0597 17.3691 32.1174 17.6217 32.9157 18.2167C33.7141 18.8118 34.2091 19.632 34.4007 20.6774L31.222 20.8942C31.1401 20.575 30.9797 20.3394 30.7408 20.1873C30.5131 20.0224 30.2136 19.9527 29.8425 19.978C29.5552 19.9976 29.3373 20.0666 29.1891 20.1849C29.0527 20.3025 28.9911 20.457 29.0042 20.6486C29.0205 20.888 29.1709 21.0642 29.4552 21.1771C29.7387 21.278 30.1903 21.3735 30.8098 21.4636C31.5508 21.5694 32.1672 21.7017 32.6592 21.8606C33.1631 22.0187 33.6093 22.301 33.9979 22.7075C34.3976 23.1012 34.6224 23.6632 34.6722 24.3935C34.7122 24.9801 34.5746 25.5188 34.2592 26.0094C33.9559 26.4991 33.4963 26.9033 32.8806 27.222C32.276 27.5279 31.5487 27.7098 30.6986 27.7678ZM42.3444 23.834L42.549 26.8331L41.0225 26.9372C38.4485 27.1128 37.0745 25.9255 36.9006 23.3755L36.6739 20.0532L35.4348 20.1377L35.2351 17.2105L36.4742 17.126L36.3076 14.6837L39.8454 14.4423L40.012 16.8847L41.8437 16.7597L42.0434 19.6869L40.2117 19.8119L40.442 23.188C40.4608 23.4634 40.5341 23.6568 40.662 23.7684C40.8019 23.8791 41.0215 23.9243 41.3208 23.9039L42.3444 23.834ZM43.2445 21.7159C43.1734 20.6743 43.2969 19.7517 43.615 18.9482C43.945 18.1439 44.419 17.5102 45.0369 17.047C45.6668 16.5831 46.3828 16.3238 47.1849 16.269C47.8793 16.2217 48.4873 16.3185 49.0089 16.5596C49.5305 16.8006 49.9449 17.1452 50.2522 17.5934L50.1566 16.1926L53.6764 15.9525L54.3637 26.0271L50.8439 26.2672L50.7483 24.8664C50.5048 25.3521 50.135 25.7502 49.639 26.0607C49.155 26.3704 48.5717 26.5485 47.8893 26.595C47.0872 26.6498 46.3426 26.4901 45.6555 26.116C44.9805 25.741 44.4248 25.1775 43.9886 24.4255C43.5636 23.6606 43.3155 22.7574 43.2445 21.7159ZM50.4996 21.2209C50.4555 20.5744 50.2412 20.0779 49.8567 19.7312C49.4842 19.3838 49.0406 19.2276 48.5258 19.2627C47.999 19.2987 47.5747 19.514 47.2528 19.9089C46.9301 20.2917 46.7912 20.8124 46.8361 21.4708C46.8802 22.1173 47.089 22.6203 47.4623 22.9797C47.8348 23.3272 48.2844 23.4829 48.8112 23.447C49.326 23.4119 49.7444 23.1969 50.0662 22.8021C50.4001 22.4064 50.5445 21.8794 50.4996 21.2209Z" fill="#944B3C"/>
<g clip-path="url(#clip0_7_95)">
<path d="M71.6486 10.7473C64.3584 10.8408 59.91 13.9405 60.0684 18.1878C60.235 22.6809 65.7701 25.3236 72.2173 25.3175C79.5603 25.3114 83.767 21.7527 83.8605 18.4031C83.9701 14.497 80.0417 10.6417 71.6486 10.7473Z" fill="#DBDAD8"/>
<path d="M71.6527 10.3959C64.7891 10.4853 60.5986 13.457 60.7469 17.5277C60.9033 21.8339 66.4222 24.4136 72.1889 24.3628C78.8453 24.3039 83.0663 20.9463 83.1556 17.7348C83.2592 13.9892 79.5583 10.2923 71.6527 10.3959Z" fill="#F6F6F6"/>
<path d="M66.4527 13.8897C66.4527 13.8897 65.1323 14.0989 64.2955 14.8748C63.4586 15.6508 63.1641 17.6394 64.5677 19.3984C65.9713 21.1575 67.3708 20.8934 67.3708 20.8934C67.3708 20.8934 67.9619 21.5353 68.4839 21.8278C69.0059 22.1203 69.7616 22.5814 70.0338 22.8536C70.3059 23.1258 70.9113 23.7088 71.3033 23.6072C71.4475 23.5706 71.543 23.4508 71.5836 23.402C71.6628 23.3045 71.5734 23.2273 71.543 23.1461C71.5003 23.0405 69.9302 21.9314 69.9302 21.9314L69.8672 21.5759C69.8672 21.5759 70.6634 21.8908 71.1022 22.1833C71.543 22.4758 72.2884 22.9328 72.5911 22.8942C72.9039 22.8536 72.9445 22.7378 72.973 22.6972C73.1334 22.4758 72.8186 22.0573 72.8186 22.0573C72.8186 22.0573 73.0908 21.8908 73.6148 21.9111C74.1389 21.9314 76.5256 22.2463 77.6367 21.2611C78.2969 20.6761 78.4614 20.2089 78.4858 19.9266C78.502 19.7336 78.5244 19.6239 78.5244 19.6239C78.5244 19.6239 80.1311 19.8148 80.7791 18.8723C81.427 17.9298 81.555 16.6095 81.1975 16.0022C80.842 15.3948 80.4439 14.8708 80.4439 14.8708C80.4439 14.8708 80.3627 14.3406 79.867 14.0095C79.343 13.6581 78.5995 13.4895 78.5995 13.4895L66.4527 13.8897Z" fill="#FFA726"/>
<path d="M74.7666 20.8427C74.7666 20.8427 75.4369 20.5908 75.8147 20.3816C76.227 20.152 76.5683 19.8575 76.7572 20.0261C76.9461 20.1927 76.6333 20.5806 76.1702 20.6964C75.4999 20.863 74.7666 20.8427 74.7666 20.8427Z" fill="#F6F6F6"/>
<path d="M65.5406 19.1852C65.5244 19.2116 65.7214 19.5548 66.0911 19.7966C66.41 20.0038 66.737 20.1419 66.7797 20.0383C66.8142 19.953 66.7289 19.9266 66.5644 19.762C66.4506 19.6483 66.3755 19.4959 66.3755 19.4959C66.3755 19.4959 66.1866 19.4959 65.9713 19.4188C65.7174 19.3273 65.5406 19.1852 65.5406 19.1852Z" fill="#F6F6F6"/>
<path d="M73.0522 16.055C73.0684 16.0814 73.43 16.5628 73.9541 16.5262C74.4781 16.4897 74.9453 15.8681 74.9453 15.8681C74.9453 15.8681 73.5498 15.6508 73.5397 15.6711C73.5295 15.6934 73.0522 16.055 73.0522 16.055Z" fill="#F7DF92"/>
<path d="M80.0539 15.533C80.0539 15.533 80.4073 14.8342 79.8772 14.3731C79.347 13.91 78.7356 13.8816 78.7356 13.8816L77.919 14.3345C77.919 14.3345 78.764 14.3731 79.1378 14.5702C79.5115 14.7672 79.6192 15.0333 79.5115 15.1409C79.4039 15.2486 79.0139 15.0109 78.374 15.0109C77.7342 15.0109 77.4661 15.1612 77.4661 15.1612L77.525 15.7117C77.525 15.7117 78.9997 15.5452 79.6009 16.1342C80.2001 16.7233 80.3464 18.0416 79.1195 18.4153C77.8906 18.7891 76.6414 17.3428 75.1769 17.5703C73.8951 17.7673 73.4158 19.2806 73.4158 19.2806C73.4158 19.2806 74.084 18.5128 75.1464 18.2284C75.9244 18.0192 77.202 18.7992 77.202 18.7992L76.4159 18.8581C76.4159 18.8581 75.774 18.4072 74.9209 18.7017C73.9764 19.0267 73.2005 20.217 71.8334 20.4527C70.7914 20.6334 69.4142 20.3836 68.362 19.695C67.3098 19.0064 66.4994 17.7795 66.3551 17.5216C66.2576 17.3448 66.1114 17.0767 66.2353 16.9914C66.3633 16.902 66.5136 17.2352 66.6801 17.4525C66.8447 17.6658 68.5265 20.2109 71.3317 19.9895C74.2039 19.7641 73.1598 17.3834 73.1598 17.3834C73.1598 17.3834 73.8423 17.5947 74.4944 17.4139C75.4795 17.1397 75.8837 16.313 75.8837 16.313L75.2256 16.2053C75.2256 16.2053 74.6365 16.8939 73.8586 16.835C73.0826 16.7761 72.6581 16.1952 72.6581 16.1952L72.0183 16.4511L72.4611 16.9427C72.4611 16.9427 71.9695 16.7944 71.5267 16.9122C71.0839 17.03 70.83 17.2697 71.0148 17.5419C71.1814 17.7877 71.5978 17.5236 71.7237 17.483C71.9309 17.4139 72.4814 17.4444 72.6683 17.9359C72.8551 18.4275 72.7272 19.2441 71.5572 19.372C70.3872 19.5 68.9308 18.9881 67.8989 18.0355C66.867 17.0828 66.997 16.6623 66.3592 16.313C65.7742 15.9941 65.4675 16.4186 65.5 16.9325C65.5345 17.5012 66.0119 18.2995 66.0119 18.2995C66.0119 18.2995 65.2055 17.6902 65.0572 16.8736C64.9089 16.057 65.0572 15.665 65.4695 15.6447C65.8819 15.6244 65.9225 15.8905 66.0301 15.7828C66.1378 15.6752 65.5975 14.9277 64.85 15.3705C64.1248 15.7991 64.4417 16.9853 64.529 17.3002C64.655 17.7612 65.1059 18.6245 65.7458 18.8805C66.215 19.0673 66.3856 18.9292 66.3856 18.9292C66.3856 18.9292 67.2306 19.9022 68.0187 20.3653C68.8048 20.8284 70.1434 21.3484 71.0189 21.7912C71.8944 22.2341 72.5037 22.7053 72.7211 22.7744C72.9384 22.8434 73.2228 22.5489 72.9973 22.2442C72.7719 21.9395 72.5058 21.8014 72.3189 21.6734C72.132 21.5455 71.5023 21.2306 71.5023 21.2306C71.5023 21.2306 71.8761 21.2794 72.1909 21.2611C72.5058 21.2408 72.6236 21.192 72.6236 21.192C72.6236 21.192 72.6134 21.6044 72.9587 21.6734C73.302 21.7425 73.6798 21.5739 74.2669 21.643C75.1708 21.7506 77.07 21.7608 77.789 20.6497C78.504 19.5427 77.7525 19.0531 77.7525 19.0531C77.7525 19.0531 79.6273 19.5772 80.4642 18.2305C81.3275 16.8269 80.0539 15.533 80.0539 15.533ZM74.5147 19.4858C75.1545 19.0572 75.6319 19.177 75.6319 19.177C75.6319 19.177 75.1951 19.5102 74.6081 19.8331C73.9987 20.1683 73.495 20.2739 73.495 20.2739C73.564 20.2434 74.1267 19.7458 74.5147 19.4858ZM76.292 20.8833C75.1545 21.2245 73.7692 20.8894 73.7692 20.8894C73.7692 20.8894 74.8762 20.5156 75.4836 20.0688C76.093 19.6219 77.0009 19.175 77.3483 19.6097C77.6651 20.0078 76.9278 20.6923 76.292 20.8833Z" fill="#F7DF92"/>
<path d="M75.3617 17.2372C75.3536 17.2738 76.032 17.1823 76.7694 17.483C77.5067 17.7816 79.0626 18.6448 79.5603 17.6394C80.0153 16.7172 79.2861 16.1566 78.5914 16.0855C78.1059 16.0347 77.7383 16.0266 77.5433 16.12C77.2914 16.2398 77.2731 16.6461 77.6692 16.64C78.0653 16.6339 79.0769 16.5059 78.89 17.227C78.7336 17.8323 77.4884 17.0239 76.944 16.8736C76.0665 16.6319 75.4084 17.028 75.3617 17.2372Z" fill="#F7DF92"/>
<path d="M78.3964 19.3903C78.4431 19.4634 78.4715 19.5711 78.4797 19.632C78.4959 19.7397 78.4878 19.8758 78.4878 19.8819C78.4919 19.9327 80.777 20.3287 81.4839 18.2752C81.9044 17.0544 81.4006 15.9575 81.1467 15.5797C80.8948 15.1998 80.5292 14.7794 80.4439 14.8078C80.3606 14.8362 80.4622 15.338 80.6409 15.6508C80.8806 16.0712 81.4615 17.2473 80.9212 18.2345C80.0823 19.7762 78.3964 19.3903 78.3964 19.3903Z" fill="#F7DF92"/>
<path d="M67.0742 14.5417C67.0823 14.7266 67.3708 15.4233 68.2605 16.5811C68.8556 17.355 69.658 17.7734 70.0927 17.8202C70.5741 17.873 70.5903 17.3083 70.2044 17.16C69.8184 17.0117 69.4 16.7781 69.1136 16.5141C68.5123 15.9575 68.1711 15.2466 68.1711 15.2466L67.6084 14.6169L67.0742 14.5417Z" fill="#F7DF92"/>
<path d="M70.2978 18.202C69.5625 18.0598 68.6159 17.7044 67.6816 16.2622C66.7472 14.82 66.4181 14.1334 65.6726 13.9933C64.9272 13.8531 63.8425 14.2817 63.3956 15.5939C63.0991 16.4653 63.2473 18.7972 64.917 20.2292C66.5867 21.6613 67.1453 21.383 67.3931 21.1148C67.5658 20.928 67.5333 20.6375 67.5333 20.6375C67.5333 20.6375 67.8705 21.0844 68.5875 21.5434C69.0344 21.8298 69.6681 22.1569 70.0398 22.4677C70.5964 22.9348 70.8564 23.2741 71.1834 23.4223C71.482 23.5584 71.8009 23.3736 71.5917 23.075C71.3825 22.7764 70.9458 22.3884 70.5476 22.0411C70.2612 21.7913 69.8184 21.5434 69.8184 21.5434C69.8184 21.5434 69.2944 21.3647 68.7073 21.0966C67.7526 20.6598 67.1148 20.0627 67.0559 20.0423C67.0051 20.0261 67.0864 20.5989 66.668 20.5603C66.2495 20.5197 64.9475 19.5548 64.4092 18.4905C63.942 17.5663 63.7856 16.2642 64.1167 15.5817C64.5189 14.7489 65.2156 14.7367 65.5731 14.7895C66.0403 14.8586 66.3287 15.4355 66.668 15.9331C67.0072 16.4308 68.2666 18.6083 70.0602 18.9475C72.0102 19.3152 72.3981 18.1614 72.1198 18.0314C71.8416 17.9014 71.4312 18.4214 70.2978 18.202Z" fill="#F7DF92"/>
<path d="M66.9036 12.675C66.9036 12.675 65.4249 13.1483 65.3964 13.9039C65.3781 14.3711 66.5583 14.6311 67.3322 15.0434C68.1041 15.4578 68.7439 16.4145 69.8672 16.6948C71.025 16.9813 71.9269 16.5384 72.4124 16.4125C72.8978 16.2866 73.6067 16.0367 74.1633 16.118C74.7199 16.1992 75.6969 16.4938 76.4708 16.3231C77.2427 16.1525 77.7099 15.7402 77.982 15.2222C78.1994 14.8098 78.2339 14.3813 78.2339 14.3813C78.2339 14.3813 79.0424 14.0745 79.0952 13.5444C79.1642 12.8619 78.0349 12.5084 78.0349 12.5084L66.9036 12.675Z" fill="#BC2A16"/>
<path d="M66.1906 12.9837C66.2048 13.0792 66.7675 13.2437 67.3423 13.2295C67.9172 13.2153 68.3884 13.3392 68.6626 13.6541C68.9369 13.9689 68.9247 14.8525 70.0155 15.2486C71.1753 15.6711 72.6439 14.8545 73.9175 14.7855C75.1911 14.7164 75.5831 15.0617 76.4322 14.6514C77.2812 14.2411 77.2528 13.3778 77.4864 13.063C77.72 12.7481 78.0612 12.5145 78.0612 12.5145C78.0612 12.5145 77.4011 12.2769 76.9217 12.0027C76.4423 11.7284 75.8614 11.2856 75.4044 11.0845C74.925 10.8733 74.5269 10.7778 74.2973 10.6945C74.1612 10.6438 73.4015 10.1664 72.5931 10.1948C71.7847 10.2212 70.7244 10.6133 70.3669 10.7494C70.0114 10.8855 69.0242 10.8997 68.3681 11.503C67.712 12.1063 67.7141 12.3358 67.0966 12.5653C66.6558 12.7298 66.1906 12.9837 66.1906 12.9837Z" fill="#DC4E20"/>
<path d="M74.3156 13.2031C74.2851 13.5302 74.537 13.8572 75.0306 13.8572C75.5405 13.8572 75.7456 13.4489 75.6847 13.1523C75.6116 12.7989 75.3089 12.6405 74.9189 12.6527C74.602 12.6628 74.3441 12.8863 74.3156 13.2031Z" fill="#BC2A16"/>
<path d="M73.5194 13.8673C73.2634 13.9791 73.2208 14.2695 73.2837 14.3975C73.3548 14.5397 73.5194 14.6331 73.7834 14.5905C73.9459 14.5661 74.1917 14.3386 74.1206 14.1009C74.0394 13.8267 73.7591 13.7617 73.5194 13.8673Z" fill="#BC2A16"/>
<path d="M68.425 12.7745C68.4717 13.1808 68.8841 13.4591 69.5076 13.1828C70.178 12.8862 70.0784 12.3459 69.855 12.0697C69.6295 11.7934 69.2091 11.8077 68.9369 11.9275C68.6078 12.0697 68.3641 12.2444 68.425 12.7745Z" fill="#BC2A16"/>
<path d="M71.2241 4.615C71.0067 5.005 71.1103 5.20812 71.1611 5.83172C71.2119 6.45531 71.3337 7.60906 71.3337 7.60906C71.3337 7.60906 71.0798 7.58469 71.0941 7.79391C71.1083 8.00312 72.0975 11.7244 72.0548 11.7386C72.0122 11.7528 71.8537 13.2864 71.9553 13.3392C71.9573 13.3392 72.1097 13.4408 72.325 13.1828C72.5606 12.8984 72.4733 11.6695 72.3758 11.0419C72.2783 10.4142 72.0101 9.61797 71.8598 9.16094C71.6994 8.66734 71.7217 8.36062 71.7217 8.36062C71.7217 8.36062 71.807 8.29359 71.8619 8.25094C71.9167 8.20828 71.9756 8.10672 71.9756 8.10672C71.9756 8.10672 71.935 8.63484 72.1381 9.42094C72.2437 9.83125 72.5423 10.5239 72.648 11.2308C72.7962 12.2322 72.6195 12.8883 72.713 13.0264C72.8734 13.262 73.1619 13.0589 73.2837 12.5084C73.3589 12.1733 73.2289 10.7677 72.9709 10.0953C72.713 9.42297 72.6297 8.98625 72.587 8.63688C72.5586 8.41141 72.5951 8.06406 72.5951 8.06406C72.5951 8.06406 72.6845 8.19812 72.8572 8.16766C72.9933 8.14328 73.0826 8.01734 73.0826 8.01734L72.7759 7.54406L72.4306 7.59688C72.4306 7.59688 72.2498 7.31453 72.2112 7.06266C72.1726 6.81078 72.063 5.82359 72.0305 5.79313C72 5.76266 71.5287 4.82219 71.5287 4.82219L71.2241 4.615Z" fill="#FBC11A"/>
<path d="M69.5016 5.31375C69.5016 5.31375 69.3736 5.16141 69.1197 5.34219C68.9653 5.45188 68.9958 5.74234 69.0202 6.10188C69.0425 6.42078 69.1339 7.03625 69.2497 7.36938C69.4203 7.86094 69.8814 8.34438 70.2714 8.33219C70.6614 8.32 70.1516 7.8325 69.9078 7.12969C69.7189 6.58328 69.6681 5.89063 69.6438 5.83578C69.6194 5.78297 69.5016 5.31375 69.5016 5.31375Z" fill="#FBC11A"/>
<path d="M67.6917 6.33344C67.708 6.43297 67.8156 6.63609 68.0533 6.59953C68.2869 6.565 72.323 5.62047 72.323 5.62047L72.1483 5.18172C72.1483 5.18172 69.1705 5.94344 68.9958 5.99625C68.8231 6.04906 67.8684 6.25422 67.8055 6.28266C67.7222 6.32125 67.6917 6.33344 67.6917 6.33344Z" fill="#ADADAD"/>
<path d="M67.7892 6.94891C67.7892 6.94891 67.775 6.97938 67.8461 7.11141C67.8745 7.16625 67.9416 7.25766 68.1528 7.22719C68.3031 7.20485 72.7902 6.51016 72.7902 6.51016L72.7516 6.15672L72.5484 5.97594L67.7892 6.94891Z" fill="#ADADAD"/>
<path d="M68.0106 7.65984C68.0106 7.65984 68.0005 7.83047 68.1691 7.88734C68.4026 7.96656 72.1848 7.63344 72.8328 7.54203C73.4808 7.45062 74.5451 7.24141 75.4633 6.64422C76.3814 6.04703 76.6922 4.79781 76.8648 4.38141C77.0375 3.96703 77.6631 3.11391 78.5162 2.87422C79.3673 2.6325 81.2909 2.16531 82.1278 2.00687C82.9647 1.84844 83.3567 1.72047 83.5375 1.50109C83.7183 1.28172 83.6817 0.942499 83.6817 0.942499C83.6817 0.942499 81.035 1.365 80.9598 1.40156C80.8847 1.44016 77.8236 2.38266 77.8236 2.38266L75.9244 4.25344L73.3609 6.72141C73.3609 6.72141 71.868 7.15812 71.8375 7.16625C71.8091 7.17234 68.0106 7.65984 68.0106 7.65984Z" fill="#ADADAD"/>
<path d="M82.8753 0.662187C83.1637 0.609374 83.5355 0.572812 83.633 0.725156C83.7305 0.875468 83.6736 1.05219 83.6736 1.05219C83.6736 1.05219 80.9903 1.74281 80.2469 1.91953C79.5034 2.09625 78.0511 2.59187 77.7241 2.77875C77.397 2.96562 76.9359 3.40641 76.6353 3.84922C76.3347 4.29203 75.9447 5.47828 75.4145 6.045C74.8844 6.61172 73.6351 7.08094 72.6622 7.26578C71.6892 7.45062 68.0289 7.75125 68.0289 7.75125C68.0289 7.75125 67.9456 7.53187 68.0269 7.49531C68.1061 7.46078 68.7886 7.39781 68.7886 7.39781L72.4184 6.89406C72.5342 6.87578 72.6926 6.78844 72.6845 6.64625C72.6764 6.50406 72.6703 6.31109 72.4672 6.30094C72.2641 6.29281 68.0594 7.09516 67.9009 7.08297C67.7831 7.07484 67.7445 6.84937 67.8461 6.82094C67.9476 6.7925 72.2783 5.92922 72.3494 5.87437C72.4205 5.82156 72.26 5.42344 72.1544 5.39703C72.0487 5.37062 67.9253 6.41266 67.8258 6.435C67.7242 6.45734 67.6125 6.25625 67.7648 6.16687C67.9151 6.0775 70.0845 5.52906 70.4562 5.42344C70.828 5.31781 73.5194 4.70641 74.1755 4.53781C74.8316 4.36922 75.4511 4.02391 75.7416 3.72328C76.0341 3.42266 76.812 2.69547 77.2812 2.44766C77.7505 2.19984 79.3206 1.50109 80.6369 1.16391C81.8089 0.867343 82.5869 0.717031 82.8753 0.662187Z" fill="#D0D0D2"/>
<path d="M72.6195 4.55812L72.3006 4.69016L72.8856 5.76062L73.0095 7.15203L72.9913 7.80609C72.9913 7.80609 73.4788 7.92187 73.4788 7.85891C73.4788 7.79594 73.5681 6.34562 73.558 6.31922C73.5498 6.29281 73.3284 5.06187 73.2919 5.03547C73.2573 5.00906 72.6195 4.55812 72.6195 4.55812Z" fill="#FFA724"/>
<path d="M69.4508 6.33344C69.4569 6.38625 69.4772 6.54875 69.7108 6.54062C69.9444 6.53453 69.9505 6.35172 69.9444 6.18312C69.9383 6.01453 69.9058 5.64891 69.9058 5.58391C69.9058 5.51891 69.8936 5.3625 69.9972 5.3625C70.182 5.3625 70.3587 5.83578 70.4197 6.57109C70.4928 7.45469 70.3892 7.70453 70.2186 7.77359C70.1089 7.81828 70.0703 7.80406 69.9565 7.90562C69.8875 7.96656 69.9403 8.2225 70.1211 8.31391C70.1861 8.34641 70.3222 8.35859 70.4319 8.34641C70.9214 8.29156 71.0047 7.31656 70.958 6.66656C70.8808 5.60422 70.7406 5.41328 70.5294 5.12891C70.243 4.745 69.859 4.81 69.6701 4.91359C69.4812 5.01719 69.3878 5.25484 69.402 5.58187C69.4203 5.915 69.4508 6.33344 69.4508 6.33344Z" fill="#FCC01E"/>
<path d="M69.8063 4.92578C69.7799 5.04359 69.8977 5.14719 69.9891 5.22437C70.0805 5.30156 70.2105 5.47828 70.3019 5.71187C70.3547 5.84797 70.438 6.41469 70.7183 6.35578C70.9986 6.29687 70.8361 5.67937 70.7386 5.47219C70.6411 5.265 70.5213 5.00703 70.2369 4.87297C70.0256 4.77547 69.8245 4.8425 69.8063 4.92578Z" fill="#FDDD9C"/>
<path d="M71.935 4.24531C71.935 4.24531 71.7319 4.20266 71.4881 4.35297C71.3662 4.42813 71.1895 4.59875 71.1895 4.73484C71.1895 4.87094 71.1712 4.92375 71.2241 4.97656C71.2769 5.02938 71.3703 5.09844 71.4637 5.26094C71.6181 5.525 71.8192 5.82766 71.8781 6.16485C71.9817 6.77219 71.9736 7.25766 71.8111 7.50953C71.6486 7.76141 71.5856 7.74516 71.5856 7.74516L72.1442 7.99906C72.1442 7.99906 72.2803 7.70656 72.2742 7.58875C72.2681 7.47094 72.2356 5.48235 72.2356 5.48235C72.2356 5.48235 72.5058 5.81344 72.585 6.22172C72.6642 6.63 72.717 7.08703 72.6906 7.28406C72.6622 7.49735 72.6033 7.76547 72.6033 7.76547L73.1172 8.04781C73.1172 8.04781 73.1984 7.97875 73.233 7.70656C73.2553 7.53391 73.2472 6.99359 73.1923 6.49391C73.1558 6.15469 73.0867 6.03891 73.0867 6.03891L72.4428 4.80594L72.5728 4.47485L72.8328 4.67594L73.1273 5.22031L73.2817 5.68953C73.2817 5.68953 73.4645 6.25625 73.4645 6.77625C73.4645 7.29625 73.2106 7.78375 73.2106 7.78375L72.912 8.16156C72.912 8.16156 72.847 8.48656 73.1131 8.54547C73.3792 8.60438 73.6006 8.25906 73.7509 7.88125C73.8241 7.69844 73.952 7.33891 73.9622 6.93266C73.9744 6.50203 73.8647 6.0186 73.7448 5.56766C73.5112 4.69016 73.0197 4.40781 72.7211 4.21281C72.4205 4.01781 71.935 4.24531 71.935 4.24531Z" fill="#FBC11A"/>
<path d="M71.5572 4.51547C71.5572 4.51547 71.348 4.57234 71.285 4.68812C71.1916 4.86078 71.3845 4.99078 71.4739 5.09031C71.5775 5.20812 71.7908 5.51078 71.9086 5.76672C72.0447 6.05922 72.0873 6.54875 72.0914 6.81281C72.0975 7.35313 71.9167 7.67203 71.8903 7.72891C71.8639 7.78781 71.8964 7.91781 72.0589 7.94422C72.2214 7.97063 72.3981 7.67406 72.4875 7.22922C72.6053 6.65031 72.4448 5.98812 72.3839 5.785C72.2498 5.34625 72.0061 4.97047 72.0203 4.93187C72.0325 4.89328 72.3006 5.09437 72.5281 5.66109C72.6744 6.02672 72.7597 6.32125 72.7861 6.4025C72.8389 6.57109 72.9811 6.63406 73.0908 6.54469C73.2634 6.4025 73.1233 5.86016 72.9262 5.39703C72.78 5.05375 72.5017 4.69828 72.5098 4.68C72.5261 4.6475 72.8653 4.79578 73.0562 5.11875C73.2248 5.40516 73.3142 5.71187 73.5031 5.69969C73.692 5.6875 73.6981 5.20406 73.4158 4.79578C73.2045 4.48906 72.8206 4.25547 72.6906 4.19859C72.5261 4.12547 72.323 4.04422 72.1361 4.1275C72.0426 4.16812 71.998 4.2575 71.998 4.2575C71.998 4.2575 71.8558 4.19453 71.673 4.29406C71.5409 4.36719 71.5572 4.51547 71.5572 4.51547Z" fill="#FDDD9C"/>
<path d="M71.4678 7.81422C71.4353 7.78781 71.1631 7.71062 71.0981 7.87922C71.0331 8.04781 70.9966 8.41344 71.092 8.87453C71.2424 9.60375 71.6344 10.6194 71.7624 11.3648C71.9695 12.5734 71.7705 13.1198 71.807 13.2255C71.8659 13.388 72.0731 13.3819 72.1381 13.2316C72.197 13.0955 72.2417 12.7827 72.2478 12.3013C72.2559 11.6634 72.1706 11.0134 72.0264 10.5523C71.8842 10.0912 71.6425 9.26859 71.5328 8.78313C71.4089 8.23875 71.4678 7.81422 71.4678 7.81422Z" fill="#FDDD9C"/>
</g>
<defs>
<clipPath id="clip0_7_95">
<rect width="26" height="26" fill="white" transform="translate(59)"/>
</clipPath>
</defs>
</svg>
