<svg width="96" height="31" viewBox="0 0 96 31" fill="none" xmlns="http://www.w3.org/2000/svg">
<path d="M1.2072 12.1844C1.2072 11.2831 1.39353 10.4814 1.7662 9.77944C2.14753 9.06877 2.68487 8.51844 3.3782 8.12844C4.07153 7.72977 4.86887 7.53044 5.7702 7.53044C6.9142 7.53044 7.8762 7.8381 8.6562 8.45344C9.4362 9.0601 9.93887 9.88777 10.1642 10.9364L7.4212 10.9364C7.25653 10.5898 7.02687 10.3254 6.7322 10.1434C6.4462 9.96144 6.11253 9.87044 5.7312 9.87044C5.14187 9.87044 4.66953 10.0828 4.3142 10.5074C3.96753 10.9234 3.7942 11.4824 3.7942 12.1844C3.7942 12.8951 3.96753 13.4628 4.3142 13.8874C4.66953 14.3034 5.14187 14.5114 5.7312 14.5114C6.11253 14.5114 6.4462 14.4204 6.7322 14.2384C7.02687 14.0564 7.25653 13.7921 7.4212 13.4454L10.1642 13.4454C9.93887 14.4941 9.4362 15.3261 8.6562 15.9414C7.8762 16.5481 6.9142 16.8514 5.7702 16.8514C4.86887 16.8514 4.07153 16.6564 3.3782 16.2664C2.68487 15.8678 2.14753 15.3174 1.7662 14.6154C1.39353 13.9048 1.2072 13.0944 1.2072 12.1844ZM13.9188 10.7804C14.2048 10.3644 14.5514 10.0351 14.9588 9.79244C15.3661 9.54977 15.8038 9.42844 16.2718 9.42844V12.1454H15.5568C15.0021 12.1454 14.5904 12.2538 14.3218 12.4704C14.0531 12.6871 13.9188 13.0641 13.9188 13.6014L13.9188 16.7864H11.3708L11.3708 9.49344H13.9188V10.7804ZM24.1532 13.0554C24.1532 13.2548 24.1402 13.4541 24.1142 13.6534H19.2912C19.3172 14.0521 19.4255 14.3511 19.6162 14.5504C19.8155 14.7411 20.0669 14.8364 20.3702 14.8364C20.7949 14.8364 21.0982 14.6458 21.2802 14.2644H23.9972C23.8845 14.7671 23.6635 15.2178 23.3342 15.6164C23.0135 16.0064 22.6062 16.3141 22.1122 16.5394C21.6182 16.7648 21.0722 16.8774 20.4742 16.8774C19.7549 16.8774 19.1135 16.7258 18.5502 16.4224C17.9955 16.1191 17.5579 15.6858 17.2372 15.1224C16.9252 14.5591 16.7692 13.8961 16.7692 13.1334C16.7692 12.3708 16.9252 11.7121 17.2372 11.1574C17.5492 10.5941 17.9825 10.1608 18.5372 9.85744C19.1005 9.5541 19.7462 9.40244 20.4742 9.40244C21.1935 9.40244 21.8305 9.54977 22.3852 9.84444C22.9399 10.1391 23.3732 10.5638 23.6852 11.1184C23.9972 11.6644 24.1532 12.3101 24.1532 13.0554ZM21.5532 12.4184C21.5532 12.1064 21.4492 11.8638 21.2412 11.6904C21.0332 11.5084 20.7732 11.4174 20.4612 11.4174C20.1492 11.4174 19.8935 11.5041 19.6942 11.6774C19.4949 11.8421 19.3649 12.0891 19.3042 12.4184H21.5532ZM24.78 13.1334C24.78 12.3794 24.9143 11.7208 25.183 11.1574C25.4603 10.5941 25.833 10.1608 26.301 9.85744C26.7776 9.5541 27.3063 9.40244 27.887 9.40244C28.3896 9.40244 28.823 9.5021 29.187 9.70144C29.551 9.90077 29.8326 10.1694 30.032 10.5074V9.49344H32.58V16.7864L30.032 16.7864V15.7724C29.8326 16.1104 29.5466 16.3791 29.174 16.5784C28.81 16.7778 28.381 16.8774 27.887 16.8774C27.3063 16.8774 26.7776 16.7258 26.301 16.4224C25.833 16.1191 25.4603 15.6858 25.183 15.1224C24.9143 14.5504 24.78 13.8874 24.78 13.1334ZM30.032 13.1334C30.032 12.6654 29.902 12.2971 29.642 12.0284C29.3906 11.7598 29.0786 11.6254 28.706 11.6254C28.3246 11.6254 28.0083 11.7598 27.757 12.0284C27.5056 12.2884 27.38 12.6568 27.38 13.1334C27.38 13.6014 27.5056 13.9741 27.757 14.2514C28.0083 14.5201 28.3246 14.6544 28.706 14.6544C29.0786 14.6544 29.3906 14.5201 29.642 14.2514C29.902 13.9828 30.032 13.6101 30.032 13.1334ZM43.5609 9.42844C44.4796 9.42844 45.1989 9.70577 45.7189 10.2604C46.2476 10.8151 46.5119 11.5734 46.5119 12.5354V16.7864H43.9639V12.8734C43.9639 12.4834 43.8556 12.1801 43.6389 11.9634C43.4222 11.7468 43.1276 11.6384 42.7549 11.6384C42.3822 11.6384 42.0876 11.7468 41.8709 11.9634C41.6542 12.1801 41.5459 12.4834 41.5459 12.8734V16.7864H38.9979V12.8734C38.9979 12.4834 38.8896 12.1801 38.6729 11.9634C38.4649 11.7468 38.1746 11.6384 37.8019 11.6384C37.4206 11.6384 37.1216 11.7468 36.9049 11.9634C36.6882 12.1801 36.5799 12.4834 36.5799 12.8734V16.7864L34.0319 16.7864V9.49344L36.5799 9.49344V10.4554C36.8052 10.1434 37.0956 9.89644 37.4509 9.71444C37.8149 9.52377 38.2309 9.42844 38.6989 9.42844C39.2362 9.42844 39.7129 9.54544 40.1289 9.77944C40.5536 10.0134 40.8872 10.3428 41.1299 10.7674C41.3899 10.3688 41.7322 10.0481 42.1569 9.80544C42.5816 9.5541 43.0496 9.42844 43.5609 9.42844ZM55.7599 9.49344L51.1319 20.2574H48.3629L50.1049 16.4744L47.1149 9.49344H49.9489L51.4829 13.6274L52.9649 9.49344H55.7599ZM1.0792 24.6004C1.0792 23.9764 1.2082 23.4214 1.4662 22.9354C1.7302 22.4434 2.1022 22.0624 2.5822 21.7924C3.0622 21.5164 3.6142 21.3784 4.2382 21.3784C5.0302 21.3784 5.6962 21.5914 6.2362 22.0174C6.7762 22.4374 7.1242 23.0104 7.2802 23.7364L5.3812 23.7364C5.2672 23.4964 5.1082 23.3134 4.9042 23.1874C4.7062 23.0614 4.4752 22.9984 4.2112 22.9984C3.8032 22.9984 3.4762 23.1454 3.2302 23.4394C2.9902 23.7274 2.8702 24.1144 2.8702 24.6004C2.8702 25.0924 2.9902 25.4854 3.2302 25.7794C3.4762 26.0674 3.8032 26.2114 4.2112 26.2114C4.4752 26.2114 4.7062 26.1484 4.9042 26.0224C5.1082 25.8964 5.2672 25.7134 5.3812 25.4734L7.2802 25.4734C7.1242 26.1994 6.7762 26.7754 6.2362 27.2014C5.6962 27.6214 5.0302 27.8314 4.2382 27.8314C3.6142 27.8314 3.0622 27.6964 2.5822 27.4264C2.1022 27.1504 1.7302 26.7694 1.4662 26.2834C1.2082 25.7914 1.0792 25.2304 1.0792 24.6004ZM10.4645 27.8494C9.96051 27.8494 9.50751 27.7444 9.10551 27.5344C8.70951 27.3244 8.39751 27.0244 8.16951 26.6344C7.94151 26.2444 7.82751 25.7854 7.82751 25.2574C7.82751 24.7354 7.94151 24.2794 8.16951 23.8894C8.40351 23.4994 8.71851 23.1994 9.11451 22.9894C9.51651 22.7794 9.96951 22.6744 10.4735 22.6744C10.9775 22.6744 11.4275 22.7794 11.8235 22.9894C12.2255 23.1994 12.5405 23.4994 12.7685 23.8894C13.0025 24.2794 13.1195 24.7354 13.1195 25.2574C13.1195 25.7794 13.0025 26.2384 12.7685 26.6344C12.5405 27.0244 12.2255 27.3244 11.8235 27.5344C11.4215 27.7444 10.9685 27.8494 10.4645 27.8494ZM10.4645 26.3194C10.7105 26.3194 10.9145 26.2294 11.0765 26.0494C11.2445 25.8634 11.3285 25.5994 11.3285 25.2574C11.3285 24.9154 11.2445 24.6544 11.0765 24.4744C10.9145 24.2944 10.7135 24.2044 10.4735 24.2044C10.2335 24.2044 10.0325 24.2944 9.87051 24.4744C9.70851 24.6544 9.62751 24.9154 9.62751 25.2574C9.62751 25.6054 9.70551 25.8694 9.86151 26.0494C10.0175 26.2294 10.2185 26.3194 10.4645 26.3194ZM15.6012 21.1264L15.6012 27.7864H13.8372L13.8372 21.1264L15.6012 21.1264ZM16.3177 25.2574C16.3177 24.7354 16.4107 24.2794 16.5967 23.8894C16.7887 23.4994 17.0497 23.1994 17.3797 22.9894C17.7097 22.7794 18.0757 22.6744 18.4777 22.6744C18.8017 22.6744 19.0897 22.7434 19.3417 22.8814C19.5997 23.0134 19.8007 23.1964 19.9447 23.4304L19.9447 21.1264H21.7177L21.7177 27.7864H19.9447V27.0844C19.8067 27.3184 19.6117 27.5044 19.3597 27.6424C19.1077 27.7804 18.8107 27.8494 18.4687 27.8494C18.0667 27.8494 17.7007 27.7444 17.3707 27.5344C17.0467 27.3244 16.7887 27.0244 16.5967 26.6344C16.4107 26.2384 16.3177 25.7794 16.3177 25.2574ZM19.9537 25.2574C19.9537 24.9334 19.8637 24.6784 19.6837 24.4924C19.5097 24.3064 19.2937 24.2134 19.0357 24.2134C18.7717 24.2134 18.5527 24.3064 18.3787 24.4924C18.2047 24.6724 18.1177 24.9274 18.1177 25.2574C18.1177 25.5814 18.2047 25.8394 18.3787 26.0314C18.5527 26.2174 18.7717 26.3104 19.0357 26.3104C19.2937 26.3104 19.5097 26.2174 19.6837 26.0314C19.8637 25.8454 19.9537 25.5874 19.9537 25.2574ZM24.2296 24.6004C24.2296 23.9764 24.3586 23.4214 24.6166 22.9354C24.8806 22.4434 25.2526 22.0624 25.7326 21.7924C26.2126 21.5164 26.7646 21.3784 27.3886 21.3784C28.1806 21.3784 28.8466 21.5914 29.3866 22.0174C29.9266 22.4374 30.2746 23.0104 30.4306 23.7364H28.5316C28.4176 23.4964 28.2586 23.3134 28.0546 23.1874C27.8566 23.0614 27.6256 22.9984 27.3616 22.9984C26.9536 22.9984 26.6266 23.1454 26.3806 23.4394C26.1406 23.7274 26.0206 24.1144 26.0206 24.6004C26.0206 25.0924 26.1406 25.4854 26.3806 25.7794C26.6266 26.0674 26.9536 26.2114 27.3616 26.2114C27.6256 26.2114 27.8566 26.1484 28.0546 26.0224C28.2586 25.8964 28.4176 25.7134 28.5316 25.4734H30.4306C30.2746 26.1994 29.9266 26.7754 29.3866 27.2014C28.8466 27.6214 28.1806 27.8314 27.3886 27.8314C26.7646 27.8314 26.2126 27.6964 25.7326 27.4264C25.2526 27.1504 24.8806 26.7694 24.6166 26.2834C24.3586 25.7914 24.2296 25.2304 24.2296 24.6004ZM33.6149 27.8494C33.1109 27.8494 32.6579 27.7444 32.2559 27.5344C31.8599 27.3244 31.5479 27.0244 31.3199 26.6344C31.0919 26.2444 30.9779 25.7854 30.9779 25.2574C30.9779 24.7354 31.0919 24.2794 31.3199 23.8894C31.5539 23.4994 31.8689 23.1994 32.2649 22.9894C32.6669 22.7794 33.1199 22.6744 33.6239 22.6744C34.1279 22.6744 34.5779 22.7794 34.9739 22.9894C35.3759 23.1994 35.6909 23.4994 35.9189 23.8894C36.1529 24.2794 36.2699 24.7354 36.2699 25.2574C36.2699 25.7794 36.1529 26.2384 35.9189 26.6344C35.6909 27.0244 35.3759 27.3244 34.9739 27.5344C34.5719 27.7444 34.1189 27.8494 33.6149 27.8494ZM33.6149 26.3194C33.8609 26.3194 34.0649 26.2294 34.2269 26.0494C34.3949 25.8634 34.4789 25.5994 34.4789 25.2574C34.4789 24.9154 34.3949 24.6544 34.2269 24.4744C34.0649 24.2944 33.8639 24.2044 33.6239 24.2044C33.3839 24.2044 33.1829 24.2944 33.0209 24.4744C32.8589 24.6544 32.7779 24.9154 32.7779 25.2574C32.7779 25.6054 32.8559 25.8694 33.0119 26.0494C33.1679 26.2294 33.3689 26.3194 33.6149 26.3194ZM39.7146 24.2044H38.9226V27.7864L37.1496 27.7864V24.2044H36.6006V22.7374H37.1496V22.6924C37.1496 22.0444 37.3386 21.5494 37.7166 21.2074C38.1006 20.8594 38.6496 20.6854 39.3636 20.6854C39.5076 20.6854 39.6186 20.6884 39.6966 20.6944V22.1974C39.6486 22.1914 39.5826 22.1884 39.4986 22.1884C39.3066 22.1884 39.1656 22.2334 39.0756 22.3234C38.9856 22.4074 38.9346 22.5454 38.9226 22.7374H39.7146V24.2044ZM43.072 24.2044H42.28V27.7864H40.507V24.2044H39.958V22.7374H40.507V22.6924C40.507 22.0444 40.696 21.5494 41.074 21.2074C41.458 20.8594 42.007 20.6854 42.721 20.6854C42.865 20.6854 42.976 20.6884 43.054 20.6944V22.1974C43.006 22.1914 42.94 22.1884 42.856 22.1884C42.664 22.1884 42.523 22.2334 42.433 22.3234C42.343 22.4074 42.292 22.5454 42.28 22.7374H43.072V24.2044ZM48.5264 25.2034C48.5264 25.3414 48.5174 25.4794 48.4994 25.6174H45.1604C45.1784 25.8934 45.2534 26.1004 45.3854 26.2384C45.5234 26.3704 45.6974 26.4364 45.9074 26.4364C46.2014 26.4364 46.4114 26.3044 46.5374 26.0404H48.4184C48.3404 26.3884 48.1874 26.7004 47.9594 26.9764C47.7374 27.2464 47.4554 27.4594 47.1134 27.6154C46.7714 27.7714 46.3934 27.8494 45.9794 27.8494C45.4814 27.8494 45.0374 27.7444 44.6474 27.5344C44.2634 27.3244 43.9604 27.0244 43.7384 26.6344C43.5224 26.2444 43.4144 25.7854 43.4144 25.2574C43.4144 24.7294 43.5224 24.2734 43.7384 23.8894C43.9544 23.4994 44.2544 23.1994 44.6384 22.9894C45.0284 22.7794 45.4754 22.6744 45.9794 22.6744C46.4774 22.6744 46.9184 22.7764 47.3024 22.9804C47.6864 23.1844 47.9864 23.4784 48.2024 23.8624C48.4184 24.2404 48.5264 24.6874 48.5264 25.2034ZM46.7264 24.7624C46.7264 24.5464 46.6544 24.3784 46.5104 24.2584C46.3664 24.1324 46.1864 24.0694 45.9704 24.0694C45.7544 24.0694 45.5774 24.1294 45.4394 24.2494C45.3014 24.3634 45.2114 24.5344 45.1694 24.7624H46.7264ZM54.0723 25.2034C54.0723 25.3414 54.0633 25.4794 54.0453 25.6174H50.7063C50.7243 25.8934 50.7993 26.1004 50.9313 26.2384C51.0693 26.3704 51.2433 26.4364 51.4533 26.4364C51.7473 26.4364 51.9573 26.3044 52.0833 26.0404H53.9643C53.8863 26.3884 53.7333 26.7004 53.5053 26.9764C53.2833 27.2464 53.0013 27.4594 52.6593 27.6154C52.3173 27.7714 51.9393 27.8494 51.5253 27.8494C51.0273 27.8494 50.5833 27.7444 50.1933 27.5344C49.8093 27.3244 49.5063 27.0244 49.2843 26.6344C49.0683 26.2444 48.9603 25.7854 48.9603 25.2574C48.9603 24.7294 49.0683 24.2734 49.2843 23.8894C49.5003 23.4994 49.8003 23.1994 50.1843 22.9894C50.5743 22.7794 51.0213 22.6744 51.5253 22.6744C52.0233 22.6744 52.4643 22.7764 52.8483 22.9804C53.2323 23.1844 53.5323 23.4784 53.7483 23.8624C53.9643 24.2404 54.0723 24.6874 54.0723 25.2034ZM52.2723 24.7624C52.2723 24.5464 52.2003 24.3784 52.0563 24.2584C51.9123 24.1324 51.7323 24.0694 51.5163 24.0694C51.3003 24.0694 51.1233 24.1294 50.9853 24.2494C50.8473 24.3634 50.7573 24.5344 50.7153 24.7624H52.2723Z" fill="#944B3C"/>
<path d="M86.2063 17.4111L85.309 30.5198H72.6911L71.7027 16.1455C73.1117 16.1775 73.1327 17.4174 74.5837 17.4174C76.0488 17.4174 76.0488 16.1391 77.5209 16.1391C78.993 16.1391 78.993 17.4174 80.4651 17.4174C81.9442 17.4174 81.9442 16.1391 83.4163 16.1391C84.8323 16.1392 84.8884 17.3279 86.2063 17.4111Z" fill="#A26234"/>
<path d="M77.5209 21.2523C78.993 21.2523 78.993 22.5306 80.4651 22.5306C81.9442 22.5306 81.9442 21.2523 83.4163 21.2523C84.6932 21.2523 84.8726 22.2117 85.8605 22.4625L86.2063 17.4111C84.8884 17.3279 84.8323 16.1392 83.4163 16.1392C81.9442 16.1392 81.9442 17.4175 80.4651 17.4175C78.9929 17.4175 78.9929 16.1392 77.5209 16.1392C76.0487 16.1392 76.0487 17.4175 74.5837 17.4175C73.1327 17.4175 73.1116 16.1775 71.7027 16.1456L72.0576 21.3071C73.1183 21.5231 73.27 22.5306 74.5837 22.5306C76.0489 22.5306 76.0489 21.2523 77.5209 21.2523Z" fill="#8F572C"/>
<path d="M86.7109 10.0674L86.2062 17.4111C84.8884 17.328 84.8323 16.1392 83.4163 16.1392C81.9442 16.1392 81.9442 17.4175 80.4652 17.4175C78.9931 17.4175 78.9931 16.1392 77.521 16.1392C76.0489 16.1392 76.0489 17.4175 74.5838 17.4175C73.1328 17.4175 73.1117 16.1776 71.7028 16.1457L71.2892 10.0674H86.7109V10.0674Z" fill="#E7ECED"/>
<path d="M86.3605 4.95421V7.51074H71.6396V4.95421C71.6396 4.95421 72.6911 3.03674 79 3.03674C85.309 3.03674 86.3605 4.95421 86.3605 4.95421Z" fill="#E7ECED"/>
<path d="M88.4634 7.5108V10.0673H86.7109H71.2891H69.5366V7.5108H71.6396H86.3604H88.4634Z" fill="#CED2D4"/>
<path d="M82.505 25.7494L81.1917 28.3356L78.3553 27.1381L79.6685 24.5471L82.505 25.7494Z" fill="#E7ECED"/>
<path d="M78.6244 19.6545L79.7547 22.4614L76.676 23.487L75.5511 20.685L78.6244 19.6545Z" fill="#E7ECED"/>
<path d="M88.9901 7.0306H86.8871V4.84085L86.8315 4.73944C86.7125 4.52226 85.517 2.66467 79.5267 2.56126V0.960396H88.8139V0H79.3505C78.7808 0 78.4733 0.412083 78.4733 0.799765V2.56126C72.4829 2.66467 71.2876 4.52226 71.1685 4.73944L71.1129 4.84085V7.03054H69.0099V10.5475H70.794L72.1963 31H85.8036L87.2055 10.5475H88.9899V7.0306H88.9901ZM85.8338 5.10435V7.0306H79.5266V3.52184C84.1606 3.60576 85.5464 4.78909 85.8338 5.10435ZM72.1663 5.10139C72.278 4.97872 72.5736 4.70571 73.1895 4.42502C74.0463 4.03437 75.6476 3.57336 78.4734 3.52184V7.03054H72.1663V5.10139ZM70.0633 7.99093H78.4734V9.58719H70.0633V7.99093ZM78.4734 10.5475V15.8373C78.2146 15.7303 77.9057 15.659 77.521 15.659C76.5729 15.659 76.0805 16.0876 75.6848 16.4321C75.3479 16.7253 75.1045 16.9372 74.5839 16.9372C74.0584 16.9372 73.8137 16.7253 73.475 16.4321C73.167 16.1654 72.7983 15.8467 72.2015 15.7204L71.8496 10.5475H78.4734ZM73.1858 30.0397L72.2733 16.7706C72.4385 16.8596 72.5823 16.9837 72.7495 17.1286C73.1453 17.4713 73.6379 17.8977 74.5837 17.8977C75.5264 17.8977 76.0175 17.4702 76.412 17.1268C76.7505 16.8322 76.995 16.6194 77.5209 16.6194C78.0463 16.6194 78.291 16.8319 78.6298 17.1261C79.0257 17.4698 79.5183 17.8978 80.4651 17.8978C81.4158 17.8978 81.9102 17.4696 82.3073 17.1254C82.6463 16.8316 82.8913 16.6195 83.4162 16.6195C83.9399 16.6195 84.185 16.832 84.5244 17.1261C84.8053 17.3695 85.1396 17.658 85.6516 17.8029L84.814 30.0398H73.1858V30.0397ZM85.7215 16.7862C85.5594 16.6974 85.4168 16.5744 85.2501 16.43C84.8539 16.0865 84.3607 15.659 83.4162 15.659C82.4707 15.659 81.9778 16.086 81.5818 16.4291C81.2412 16.7241 80.9951 16.9373 80.465 16.9373C80.0312 16.9373 79.7887 16.7922 79.5266 16.5761V10.5476H86.1501L85.7215 16.7862ZM87.9367 9.58713H79.5266V7.99087H87.9367V9.58713Z" fill="black"/>
<path d="M78.9371 19.038L74.8758 20.3999L76.3623 24.1029L80.4308 22.7475L78.9371 19.038ZM76.2265 20.9702L78.3116 20.271L79.0784 22.1755L76.9896 22.8713L76.2265 20.9702Z" fill="black"/>
<path d="M77.6564 27.3723L81.4484 28.9731L83.2039 25.5161L79.412 23.9088L77.6564 27.3723ZM81.8062 25.9827L80.9351 27.698L79.0542 26.9039L79.9252 25.1853L81.8062 25.9827Z" fill="black"/>
<path d="M82.8556 18.8544H81.4536V19.8148H82.8556V18.8544Z" fill="white"/>
<path d="M84.2572 20.772H82.8552V21.7324H84.2572V20.772Z" fill="white"/>
<path d="M75.1445 25.2461H73.7425V26.2065H75.1445V25.2461Z" fill="white"/>
<path d="M76.5468 27.1637H75.1449V28.1241H76.5468V27.1637Z" fill="white"/>
</svg>
