<svg width="91" height="41" viewBox="0 0 91 41" fill="none" xmlns="http://www.w3.org/2000/svg">
<path d="M1.81157 23.8895C2.48336 23.168 3.02994 22.5513 3.45133 22.0394C3.87271 21.5275 4.2132 21.0162 4.4728 20.5055C4.73115 19.9869 4.82729 19.5182 4.76123 19.0994C4.72134 18.8465 4.63091 18.6583 4.48994 18.5348C4.35687 18.41 4.1797 18.365 3.95844 18.3999C3.72927 18.4361 3.56705 18.5629 3.47178 18.7804C3.37526 18.99 3.36024 19.2799 3.42673 19.6501L1.17458 20.0053C1.08734 19.2983 1.14982 18.6931 1.362 18.1899C1.57294 17.6788 1.89075 17.2804 2.31543 16.9948C2.73886 16.7012 3.2311 16.5102 3.79217 16.4217C4.76415 16.2684 5.52523 16.3953 6.0754 16.8026C6.62558 17.2098 6.96112 17.7967 7.08203 18.5632C7.21167 19.3851 7.05662 20.1992 6.6169 21.0055C6.18507 21.8107 5.60312 22.5625 4.87103 23.2611L7.83439 22.7937L8.13168 24.6784L2.08643 25.632L1.81157 23.8895ZM14.1875 17.0658L10.6315 17.6267L10.839 18.9425C10.9643 18.7607 11.1498 18.6019 11.3956 18.4659C11.6414 18.33 11.9224 18.2371 12.2384 18.1872C12.8074 18.0974 13.3021 18.153 13.7226 18.354C14.1509 18.5537 14.4896 18.8526 14.7387 19.2506C14.9877 19.6487 15.1522 20.1006 15.2319 20.6063C15.379 21.5388 15.2302 22.3155 14.7855 22.9363C14.3396 23.5493 13.6465 23.93 12.7061 24.0783C12.0502 24.1817 11.4638 24.1609 10.9468 24.0156C10.4365 23.8613 10.0232 23.6025 9.70673 23.2394C9.39029 22.8763 9.18698 22.4345 9.09681 21.9142L11.3608 21.5571C11.4132 21.7351 11.5171 21.8807 11.6727 21.9938C11.8282 22.107 12.0364 22.143 12.2971 22.1019C12.5737 22.0582 12.7682 21.9304 12.8805 21.7183C12.9928 21.5062 13.024 21.2421 12.9742 20.926C12.9256 20.6178 12.8137 20.3965 12.6387 20.2622C12.4623 20.1199 12.2319 20.0712 11.9474 20.1161C11.7341 20.1498 11.569 20.2325 11.4521 20.3643C11.3418 20.487 11.2873 20.6292 11.2886 20.791L9.02455 21.1481L8.19811 15.9089L13.8641 15.0152L14.1875 17.0658ZM15.989 18.9926C15.7746 17.6334 15.8823 16.5191 16.3121 15.6495C16.7418 14.7799 17.5494 14.2516 18.7347 14.0646C19.9201 13.8777 20.851 14.1317 21.5276 14.8268C22.212 15.5206 22.6615 16.5471 22.8759 17.9063C23.0928 19.2813 22.9863 20.4036 22.5566 21.2732C22.1268 22.1428 21.3153 22.6717 20.1221 22.8599C18.9288 23.0481 17.9939 22.7947 17.3174 22.0996C16.6487 21.4033 16.2059 20.3676 15.989 18.9926ZM20.5763 18.269C20.4641 17.5578 20.3037 17.0284 20.0949 16.6806C19.885 16.325 19.5469 16.184 19.0806 16.2575C18.6144 16.3311 18.3361 16.5693 18.2458 16.9723C18.1543 17.3674 18.1646 17.9206 18.2768 18.6318C18.3914 19.3588 18.5498 19.9007 18.7519 20.2576C18.9606 20.6053 19.302 20.7418 19.7762 20.667C20.2503 20.5922 20.5292 20.3579 20.6129 19.964C20.7032 19.561 20.691 18.996 20.5763 18.269ZM26.0756 15.0691C26.526 14.998 26.9315 15.0272 27.2921 15.1566C27.6606 15.2848 27.96 15.4886 28.1904 15.7681L28.0445 14.8435L30.3678 14.4771L31.4055 21.0557C31.504 21.68 31.474 22.2598 31.3154 22.795C31.1581 23.3381 30.8503 23.7997 30.3919 24.1798C29.9414 24.5586 29.3329 24.8085 28.5664 24.9294C27.5391 25.0915 26.6793 24.9801 25.9868 24.5953C25.2944 24.2104 24.8393 23.61 24.6215 22.794L26.9092 22.4331C26.9903 22.639 27.135 22.7863 27.3433 22.8749C27.5517 22.9635 27.806 22.9841 28.1063 22.9368C28.8965 22.8121 29.2218 22.3073 29.0822 21.4222L28.9476 20.5688C28.8145 20.9056 28.5923 21.1917 28.2812 21.4271C27.978 21.6612 27.6012 21.8138 27.1507 21.8848C26.6213 21.9683 26.1174 21.9061 25.6392 21.698C25.1688 21.4888 24.7667 21.1473 24.4328 20.6735C24.1055 20.1906 23.8877 19.6054 23.7793 18.9179C23.6708 18.2304 23.6986 17.6105 23.8625 17.0582C24.0344 16.5047 24.3118 16.056 24.6949 15.7121C25.0859 15.3669 25.5462 15.1526 26.0756 15.0691ZM28.568 18.1625C28.5007 17.7358 28.3292 17.4186 28.0535 17.2111C27.7857 17.0022 27.4819 16.9246 27.1421 16.9782C26.7944 17.0331 26.5253 17.2011 26.3348 17.4822C26.143 17.7554 26.0814 18.1093 26.1499 18.5439C26.2173 18.9707 26.3854 19.2924 26.6545 19.5091C26.9223 19.7179 27.2301 19.7949 27.5778 19.7401C27.9176 19.6865 28.1827 19.5191 28.3732 19.238C28.5717 18.9556 28.6366 18.5971 28.568 18.1625ZM40.3709 12.8384C41.2085 12.7063 41.9043 12.8557 42.4582 13.2867C43.02 13.7164 43.3701 14.3698 43.5085 15.247L44.1199 19.123L41.7966 19.4895L41.2338 15.9216C41.1777 15.566 41.0353 15.305 40.8066 15.1386C40.5779 14.9722 40.2936 14.9158 39.9538 14.9694C39.614 15.023 39.3609 15.1642 39.1945 15.3929C39.0281 15.6216 38.973 15.9138 39.0291 16.2694L39.5919 19.8373L37.2686 20.2038L36.7058 16.6359C36.6497 16.2803 36.5073 16.0193 36.2786 15.8529C36.0578 15.6852 35.7775 15.6282 35.4377 15.6818C35.09 15.7367 34.8329 15.8784 34.6665 16.1072C34.5001 16.3359 34.445 16.628 34.5011 16.9837L35.0639 20.5515L32.7406 20.918L31.6917 14.2682L34.0149 13.9018L34.1533 14.7789C34.3139 14.462 34.5431 14.195 34.8409 13.978C35.1454 13.7518 35.511 13.605 35.9377 13.5377C36.4276 13.4604 36.8791 13.4986 37.2921 13.6521C37.7129 13.8044 38.0645 14.0567 38.3469 14.409C38.5266 14.0081 38.7926 13.6664 39.1449 13.3841C39.496 13.0939 39.9046 12.912 40.3709 12.8384ZM48.2388 18.5583C47.6382 18.6531 47.0853 18.6391 46.58 18.5163C46.0814 18.3844 45.6663 18.1664 45.3349 17.8623C45.0101 17.5491 44.797 17.1737 44.6956 16.7362L46.9478 16.3809C47.013 16.5893 47.138 16.7397 47.3226 16.832C47.5073 16.9244 47.7221 16.9512 47.9671 16.9126C48.1567 16.8827 48.3006 16.8195 48.3988 16.723C48.497 16.6265 48.5361 16.5151 48.5161 16.3886C48.49 16.2227 48.3798 16.1145 48.1855 16.0642C47.9913 16.0138 47.6773 15.9743 47.2435 15.9455C46.7545 15.9255 46.3425 15.8811 46.0077 15.8124C45.6729 15.7438 45.3658 15.5938 45.0864 15.3625C44.8148 15.13 44.6429 14.7845 44.5706 14.3262C44.5083 13.9311 44.5589 13.5587 44.7224 13.2089C44.8846 12.8513 45.1562 12.5452 45.5372 12.2907C45.9261 12.035 46.413 11.861 46.9978 11.7688C47.867 11.6317 48.5842 11.7372 49.1494 12.0854C49.7145 12.4336 50.0915 12.9492 50.2802 13.6321L48.1821 13.963C48.1089 13.7559 47.9886 13.6089 47.821 13.5219C47.66 13.4258 47.4571 13.3971 47.2121 13.4358C47.0225 13.4657 46.8819 13.5243 46.7904 13.6116C46.7067 13.6977 46.6749 13.804 46.6949 13.9304C46.7198 14.0884 46.83 14.1966 47.0255 14.2548C47.2197 14.3052 47.5251 14.342 47.9419 14.3654C48.4401 14.3921 48.8573 14.4437 49.1933 14.5203C49.5372 14.5956 49.8502 14.7568 50.1321 15.0039C50.4207 15.2419 50.603 15.6019 50.6791 16.0839C50.7401 16.4711 50.6804 16.8369 50.4999 17.1812C50.3272 17.5243 50.0458 17.8198 49.6557 18.0676C49.2722 18.3063 48.7999 18.4698 48.2388 18.5583ZM3.45696 34.3975C3.32733 33.5756 3.38192 32.8179 3.62075 32.1242C3.86624 31.4213 4.27703 30.8423 4.85312 30.3869C5.42796 29.9237 6.1263 29.6273 6.94814 29.4976C7.99124 29.3331 8.91265 29.4753 9.71236 29.9242C10.5108 30.3651 11.0882 31.0475 11.4445 31.9713L8.94341 32.3658C8.7434 32.0734 8.49597 31.8654 8.20112 31.7418C7.91417 31.617 7.59684 31.582 7.24914 31.6369C6.71178 31.7216 6.31165 31.9832 6.04873 32.4215C5.79247 32.8507 5.71483 33.3853 5.8158 34.0254C5.91801 34.6734 6.1577 35.166 6.53488 35.5034C6.9187 35.8316 7.37929 35.9533 7.91665 35.8686C8.26435 35.8137 8.5555 35.6827 8.7901 35.4757C9.0326 35.2673 9.20399 34.9933 9.30427 34.6535L11.8053 34.259C11.7507 35.2476 11.4121 36.0785 10.7893 36.7517C10.1654 37.4171 9.33187 37.832 8.28877 37.9966C7.46693 38.1262 6.71187 38.0631 6.0236 37.8072C5.33407 37.5434 4.76498 37.1189 4.31631 36.5337C3.8743 35.9393 3.58785 35.2272 3.45696 34.3975ZM16.4929 36.7267C15.8291 36.8314 15.2106 36.7873 14.6376 36.5942C14.0724 36.3999 13.5991 36.0696 13.2178 35.6033C12.8365 35.137 12.591 34.5562 12.4813 33.8608C12.3729 33.1733 12.4283 32.549 12.6475 31.988C12.8747 31.4258 13.2272 30.9652 13.7052 30.6063C14.191 30.2462 14.7658 30.0138 15.4296 29.9091C16.0934 29.8044 16.7079 29.8492 17.2731 30.0435C17.8461 30.2366 18.3233 30.5663 18.7046 31.0326C19.0939 31.4976 19.3427 32.0739 19.4511 32.7614C19.5596 33.4489 19.5008 34.0777 19.2749 34.6479C19.0557 35.2089 18.7031 35.6694 18.2173 36.0295C17.7315 36.3896 17.1567 36.622 16.4929 36.7267ZM16.175 34.7116C16.499 34.6605 16.749 34.4996 16.9249 34.2289C17.1076 33.949 17.1633 33.5839 17.0923 33.1334C17.0212 32.683 16.8564 32.3567 16.5977 32.1545C16.347 31.9511 16.0635 31.8744 15.7475 31.9242C15.4314 31.9741 15.1853 32.1344 15.0094 32.4051C14.8334 32.6758 14.7809 33.0364 14.852 33.4868C14.9243 33.9452 15.0819 34.2767 15.3247 34.4813C15.5676 34.686 15.851 34.7628 16.175 34.7116ZM24.0286 35.538C23.3648 35.6427 22.7464 35.5986 22.1733 35.4055C21.6081 35.2112 21.1349 34.8809 20.7535 34.4146C20.3722 33.9483 20.1267 33.3675 20.017 32.6721C19.9086 31.9846 19.964 31.3603 20.1833 30.7993C20.4104 30.2371 20.763 29.7765 21.2409 29.4176C21.7267 29.0576 22.3015 28.8251 22.9653 28.7204C23.6291 28.6157 24.2436 28.6605 24.8088 28.8548C25.3819 29.0479 25.8591 29.3776 26.2404 29.8439C26.6296 30.3089 26.8784 30.8852 26.9869 31.5727C27.0953 32.2602 27.0366 32.889 26.8107 33.4592C26.5914 34.0202 26.2388 34.4807 25.753 34.8408C25.2672 35.2009 24.6924 35.4333 24.0286 35.538ZM23.7107 33.523C24.0347 33.4718 24.2847 33.3109 24.4607 33.0402C24.6433 32.7603 24.6991 32.3952 24.628 31.9447C24.557 31.4943 24.3921 31.168 24.1335 30.9659C23.8827 30.7624 23.5993 30.6857 23.2832 30.7355C22.9671 30.7854 22.7211 30.9457 22.5451 31.2164C22.3691 31.4871 22.3167 31.8477 22.3877 32.2981C22.46 32.7565 22.6176 33.088 22.8605 33.2926C23.1033 33.4973 23.3867 33.5741 23.7107 33.523ZM32.618 34.0981L30.3507 31.6616L30.7808 34.3879L28.4575 34.7544L27.0739 25.9828L29.3971 25.6164L30.1432 30.3459L31.5691 27.4483L34.3547 27.0089L32.2623 30.7648L35.451 33.6512L32.618 34.0981ZM36.1594 26.0925C35.7485 26.1573 35.3992 26.099 35.1114 25.9177C34.8303 25.7271 34.6629 25.462 34.6093 25.1222C34.5545 24.7745 34.6315 24.4667 34.8403 24.1989C35.057 23.9299 35.3708 23.7629 35.7817 23.6981C36.1848 23.6345 36.5268 23.698 36.808 23.8885C37.097 24.0778 37.2689 24.3463 37.3238 24.694C37.3774 25.0338 37.2958 25.3382 37.0791 25.6073C36.869 25.8672 36.5625 26.0289 36.1594 26.0925ZM37.4065 26.5275L38.4554 33.1773L36.1321 33.5438L35.0832 26.894L37.4065 26.5275ZM45.5953 28.5645C45.6239 28.7462 45.6407 28.9298 45.6457 29.1153L41.2481 29.809C41.3291 30.1688 41.4709 30.4258 41.6734 30.5802C41.8826 30.7253 42.1255 30.7761 42.4021 30.7325C42.7893 30.6714 43.0384 30.4539 43.1495 30.08L45.6269 29.6893C45.5965 30.1638 45.4598 30.6065 45.2168 31.0174C44.9805 31.4191 44.6534 31.7582 44.2354 32.0347C43.8173 32.3112 43.3357 32.4925 42.7905 32.5785C42.1346 32.682 41.528 32.6359 40.9707 32.4404C40.4213 32.2436 39.9599 31.9114 39.5865 31.4439C39.221 30.9751 38.9834 30.393 38.8737 29.6976C38.764 29.0022 38.8115 28.3792 39.0162 27.8286C39.2197 27.2701 39.5525 26.8126 40.0146 26.4563C40.4846 26.0987 41.0515 25.8675 41.7153 25.7628C42.3712 25.6593 42.9732 25.702 43.5214 25.8909C44.0695 26.0798 44.5257 26.4047 44.8899 26.8656C45.253 27.3186 45.4881 27.8849 45.5953 28.5645ZM43.133 28.3576C43.0881 28.0731 42.9583 27.8668 42.7438 27.7387C42.5279 27.6026 42.2778 27.5571 41.9933 27.6019C41.7088 27.6468 41.4882 27.7626 41.3313 27.9493C41.1733 28.1281 41.0903 28.3721 41.0823 28.6811L43.133 28.3576ZM49.9287 31.4525C49.3281 31.5472 48.7752 31.5332 48.2699 31.4105C47.7713 31.2786 47.3562 31.0606 47.0248 30.7565C46.7 30.4433 46.4869 30.0679 46.3855 29.6303L48.6377 29.2751C48.7029 29.4835 48.8279 29.6338 49.0125 29.7262C49.1972 29.8185 49.412 29.8454 49.657 29.8068C49.8466 29.7768 49.9905 29.7136 50.0887 29.6172C50.1869 29.5207 50.226 29.4092 50.206 29.2828C50.1799 29.1169 50.0697 29.0087 49.8754 28.9584C49.6812 28.908 49.3672 28.8684 48.9334 28.8397C48.4444 28.8196 48.0324 28.7753 47.6976 28.7066C47.3628 28.6379 47.0557 28.488 46.7763 28.2567C46.5047 28.0242 46.3328 27.6787 46.2605 27.2204C46.1982 26.8253 46.2488 26.4528 46.4123 26.1031C46.5745 25.7454 46.8461 25.4394 47.2271 25.1849C47.616 24.9292 48.1029 24.7552 48.6877 24.663C49.5569 24.5258 50.2741 24.6314 50.8393 24.9796C51.4044 25.3278 51.7814 25.8433 51.9701 26.5263L49.872 26.8572C49.7988 26.6501 49.6785 26.5031 49.5109 26.4161C49.3499 26.32 49.147 26.2913 48.902 26.3299C48.7124 26.3598 48.5718 26.4185 48.4803 26.5058C48.3966 26.5919 48.3648 26.6981 48.3848 26.8246C48.4097 26.9826 48.5199 27.0908 48.7154 27.149C48.9096 27.1994 49.215 27.2362 49.6318 27.2596C50.13 27.2863 50.5472 27.3379 50.8832 27.4145C51.2271 27.4898 51.5401 27.651 51.822 27.8981C52.1106 28.136 52.2929 28.496 52.369 28.9781C52.43 29.3653 52.3703 29.7311 52.1898 30.0754C52.0171 30.4185 51.7357 30.7139 51.3456 30.9618C50.9621 31.2004 50.4898 31.364 49.9287 31.4525Z" fill="#699B6E"/>
<path fill-rule="evenodd" clip-rule="evenodd" d="M70.4005 5.2458C70.258 5.446 70.2755 5.71843 70.4418 5.89866L82.6691 19.1588C82.8359 19.3389 83.1062 19.3783 83.3167 19.2526C86.5404 17.3278 88.4945 13.6172 87.9899 9.65744C87.3108 4.32732 82.4321 0.551385 77.102 1.23054C75.0227 1.49547 73.1803 2.39933 71.7462 3.71991C71.2451 4.18082 70.7945 4.69284 70.4005 5.2458Z" fill="#F8AC3A"/>
<path fill-rule="evenodd" clip-rule="evenodd" d="M76.3342 1.35923C81.3551 1.11968 85.8016 4.7838 86.4476 9.85395C86.9133 13.5084 85.2849 16.9505 82.4973 18.9725L82.6691 19.1588C82.8359 19.3389 83.1061 19.3783 83.3167 19.2526C86.5404 17.3278 88.4945 13.6172 87.9899 9.65743C87.3108 4.32732 82.4321 0.551381 77.102 1.23053C76.842 1.26366 76.5859 1.30675 76.3342 1.35923Z" fill="#F39404"/>
<path fill-rule="evenodd" clip-rule="evenodd" d="M65.1268 23.6163C65.2949 23.6713 65.48 23.6372 65.6169 23.5256L77.6471 13.7286C77.7841 13.617 77.8551 13.4432 77.8353 13.2673C77.8301 13.2229 77.8245 13.1787 77.8188 13.1339C77.1396 7.80377 72.261 4.02783 66.9308 4.70699C61.6007 5.38614 57.8248 10.2648 58.5039 15.5949C58.994 19.4414 61.6714 22.4788 65.1268 23.6163Z" fill="#F8AC3A"/>
<path fill-rule="evenodd" clip-rule="evenodd" d="M66.0347 4.86354C71.0002 4.69331 75.375 8.33726 76.0155 13.3637C76.0212 13.4084 76.0268 13.4527 76.0314 13.4971C76.0517 13.6729 75.9808 13.8468 75.8438 13.9584L64.3463 23.3213C64.6014 23.4306 64.8619 23.5287 65.1268 23.6163C65.2949 23.6713 65.48 23.6372 65.6169 23.5256L77.6471 13.7286C77.7841 13.617 77.855 13.4432 77.8352 13.2673C77.8301 13.2229 77.8245 13.1787 77.8188 13.1339C77.1396 7.80377 72.2609 4.02783 66.9308 4.70698C66.6271 4.74568 66.3282 4.79789 66.0347 4.86354Z" fill="#F39404"/>
<path fill-rule="evenodd" clip-rule="evenodd" d="M81.5821 28.6851C81.6939 28.5647 81.7418 28.3985 81.7113 28.2371C81.6814 28.0761 81.5764 27.9383 81.4292 27.8666C80.892 27.6044 80.4932 27.086 80.4121 26.4497C80.2842 25.4459 80.9953 24.5271 81.9986 24.3993C82.0604 24.3914 82.1215 24.3868 82.1826 24.3853C82.3442 24.3809 82.4946 24.3011 82.5894 24.1702C82.6841 24.0389 82.7119 23.8711 82.6649 23.7159C82.6358 23.6192 82.614 23.5179 82.6008 23.4139C82.4913 22.5547 82.9965 21.7574 83.7745 21.4658C83.9982 21.3823 84.1357 21.1561 84.1076 20.919C84.1048 20.8927 84.1015 20.8669 84.0982 20.8407C83.419 15.5106 78.5403 11.7346 73.2102 12.4138C67.8801 13.0929 64.1041 17.9716 64.7833 23.3017C65.4624 28.6318 70.3411 32.4078 75.6713 31.7286C78.03 31.4281 80.0842 30.3052 81.5821 28.6851Z" fill="#F8AC3A"/>
<path fill-rule="evenodd" clip-rule="evenodd" d="M66.2167 16.8638C67.7122 15.2655 69.7512 14.1592 72.0894 13.8613C77.3526 13.1907 82.1753 16.8639 82.9496 22.0867C83.156 21.8098 83.4399 21.591 83.7745 21.4657C83.9982 21.3823 84.1357 21.156 84.1076 20.919C84.1048 20.8927 84.1015 20.8669 84.0982 20.8407C83.419 15.5105 78.5403 11.7346 73.2102 12.4138C70.2182 12.795 67.7161 14.4991 66.2167 16.8638Z" fill="#F39404"/>
<path fill-rule="evenodd" clip-rule="evenodd" d="M71.9321 23.6C70.9182 23.7292 70.2032 24.6476 70.3302 25.6448C70.4573 26.642 71.3798 27.3517 72.3937 27.2226C73.4076 27.0934 74.1226 26.175 73.9956 25.1778C73.8685 24.1805 72.946 23.4708 71.9321 23.6ZM72.0634 24.6301C72.504 24.5739 72.9115 24.8751 72.9667 25.3089C73.022 25.7427 72.7031 26.1363 72.2624 26.1925C71.8218 26.2486 71.4144 25.9475 71.3591 25.5137C71.3038 25.0799 71.6227 24.6862 72.0634 24.6301Z" fill="#633001"/>
<path fill-rule="evenodd" clip-rule="evenodd" d="M66.8205 6.84096C65.8066 6.97015 65.0915 7.88851 65.2186 8.88575C65.3457 9.88298 66.2682 10.5927 67.2821 10.4635C68.296 10.3343 69.011 9.41595 68.8839 8.41872C68.7569 7.42148 67.8344 6.71178 66.8205 6.84096ZM66.9517 7.87104C67.3924 7.81489 67.7998 8.116 67.8551 8.54981C67.9104 8.98361 67.5915 9.37728 67.1508 9.43343C66.7102 9.48958 66.3027 9.18846 66.2474 8.75466C66.1922 8.32085 66.5111 7.92719 66.9517 7.87104Z" fill="#633001"/>
<path fill-rule="evenodd" clip-rule="evenodd" d="M71.5306 16.5732C70.5167 16.7024 69.8017 17.6208 69.9288 18.618C70.0558 19.6153 70.9783 20.325 71.9922 20.1958C73.0061 20.0666 73.7212 19.1482 73.5941 18.151C73.467 17.1538 72.5445 16.444 71.5306 16.5732ZM71.6619 17.6033C72.1025 17.5472 72.51 17.8483 72.5653 18.2821C72.6205 18.7159 72.3016 19.1095 71.861 19.1657C71.4203 19.2218 71.0129 18.9207 70.9576 18.4869C70.9023 18.0531 71.2212 17.6595 71.6619 17.6033Z" fill="#633001"/>
<path fill-rule="evenodd" clip-rule="evenodd" d="M77.1846 19.8547C76.1707 19.9839 75.4556 20.9022 75.5827 21.8995C75.7098 22.8967 76.6322 23.6064 77.6461 23.4772C78.66 23.348 79.3751 22.4297 79.248 21.4324C79.121 20.4352 78.1985 19.7255 77.1846 19.8547ZM77.3158 20.8847C77.7565 20.8286 78.1639 21.1297 78.2192 21.5635C78.2745 21.9973 77.9556 22.391 77.5149 22.4471C77.0742 22.5033 76.6668 22.2022 76.6115 21.7684C76.5562 21.3346 76.8752 20.9409 77.3158 20.8847Z" fill="#633001"/>
<path fill-rule="evenodd" clip-rule="evenodd" d="M62.9423 13.8243C61.9285 13.9535 61.2134 14.8718 61.3405 15.8691C61.4675 16.8663 62.39 17.576 63.4039 17.4468C64.4178 17.3176 65.1329 16.3993 65.0058 15.402C64.8787 14.4048 63.9562 13.6951 62.9423 13.8243ZM63.0736 14.8544C63.5143 14.7982 63.9217 15.0993 63.977 15.5331C64.0322 15.9669 63.7133 16.3606 63.2727 16.4167C62.832 16.4729 62.4246 16.1718 62.3693 15.738C62.314 15.3042 62.6329 14.9105 63.0736 14.8544Z" fill="#633001"/>
<path d="M62.4117 12.4552C62.7671 12.4099 63.0191 12.0899 62.9746 11.7404C62.93 11.391 62.6058 11.1444 62.2504 11.1897C61.8951 11.235 61.6431 11.555 61.6876 11.9044C61.7321 12.2539 62.0563 12.5005 62.4117 12.4552Z" fill="#633001"/>
<path d="M72.4407 11.015C72.7961 10.9697 73.0481 10.6497 73.0035 10.3002C72.959 9.95079 72.6348 9.70421 72.2794 9.74949C71.9241 9.79477 71.6721 10.1148 71.7166 10.4642C71.7611 10.8137 72.0853 11.0603 72.4407 11.015Z" fill="#633001"/>
<path d="M66.6468 13.5131C67.0022 13.4678 67.2542 13.1478 67.2097 12.7983C67.1652 12.4489 66.841 12.2023 66.4856 12.2476C66.1302 12.2929 65.8782 12.6129 65.9227 12.9623C65.9673 13.3118 66.2914 13.5584 66.6468 13.5131Z" fill="#633001"/>
<path d="M69.5266 22.6972C69.882 22.6519 70.134 22.3319 70.0895 21.9824C70.045 21.633 69.7208 21.3864 69.3654 21.4317C69.01 21.477 68.758 21.797 68.8025 22.1464C68.847 22.4959 69.1712 22.7424 69.5266 22.6972Z" fill="#633001"/>
<path d="M76.3024 26.8944C76.6578 26.8491 76.9098 26.5291 76.8653 26.1796C76.8207 25.8302 76.4966 25.5836 76.1412 25.6289C75.7858 25.6742 75.5338 25.9942 75.5783 26.3436C75.6228 26.6931 75.947 26.9397 76.3024 26.8944Z" fill="#633001"/>
<path fill-rule="evenodd" clip-rule="evenodd" d="M80.4935 7.97318C81.4426 7.5893 81.8947 6.5193 81.5085 5.58707C81.1243 4.65968 80.0474 4.2119 79.1035 4.59366C78.1544 4.97754 77.7023 6.04754 78.0885 6.97977C78.4727 7.90716 79.5496 8.35495 80.4935 7.97318ZM80.105 7.01084C79.691 7.17828 79.2159 6.98944 79.0473 6.58255C78.8807 6.18049 79.0824 5.72168 79.492 5.556C79.906 5.38856 80.3811 5.5774 80.5497 5.98429C80.7162 6.38635 80.5137 6.84552 80.105 7.01084Z" fill="#633001"/>
<path fill-rule="evenodd" clip-rule="evenodd" d="M84.3317 14.4597C85.2808 14.0759 85.733 13.0059 85.3468 12.0736C84.9625 11.1462 83.8856 10.6985 82.9418 11.0802C81.9927 11.4641 81.5405 12.5341 81.9268 13.4663C82.311 14.3937 83.3879 14.8415 84.3317 14.4597ZM83.9432 13.4974C83.5292 13.6648 83.0542 13.476 82.8856 13.0691C82.719 12.6671 82.9207 12.2082 83.3303 12.0426C83.7443 11.8751 84.2194 12.064 84.3879 12.4709C84.5545 12.8729 84.352 13.3321 83.9432 13.4974Z" fill="#633001"/>
<path d="M77.4463 17.9155C77.8017 17.8702 78.0537 17.5502 78.0092 17.2008C77.9646 16.8513 77.6404 16.6047 77.2851 16.65C76.9297 16.6953 76.6777 17.0153 76.7222 17.3647C76.7667 17.7142 77.0909 17.9608 77.4463 17.9155Z" fill="#633001"/>
<path d="M79.0383 9.55315C78.7065 9.68734 78.547 10.0603 78.682 10.3861C78.817 10.7119 79.1954 10.8673 79.5271 10.7331C79.8589 10.5989 80.0184 10.226 79.8834 9.90015C79.7484 9.57432 79.37 9.41897 79.0383 9.55315Z" fill="#633001"/>
<path d="M83.5664 7.55167C83.2346 7.68586 83.0751 8.05877 83.2101 8.3846C83.3451 8.71043 83.7235 8.86578 84.0552 8.7316C84.387 8.59741 84.5465 8.2245 84.4115 7.89867C84.2765 7.57284 83.8981 7.41749 83.5664 7.55167Z" fill="#633001"/>
<path d="M76.1649 4.16466C75.8332 4.29885 75.6737 4.67176 75.8086 4.99759C75.9436 5.32342 76.322 5.47877 76.6538 5.34459C76.9855 5.2104 77.145 4.83749 77.01 4.51166C76.875 4.18584 76.4967 4.03048 76.1649 4.16466Z" fill="#633001"/>
</svg>
