<svg width="70" height="23" viewBox="0 0 70 23" fill="none" xmlns="http://www.w3.org/2000/svg">
<path d="M10.6307 1.49432V9.95432H8.2787V5.28632L6.6827 9.95432H4.7147L3.1067 5.25032V9.95432H0.754703L0.754703 1.49432L3.5987 1.49432L5.7227 6.99032L7.7987 1.49432H10.6307ZM15.1015 10.0383C14.4295 10.0383 13.8255 9.89832 13.2895 9.61832C12.7615 9.33832 12.3455 8.93832 12.0415 8.41832C11.7375 7.89832 11.5855 7.28632 11.5855 6.58232C11.5855 5.88632 11.7375 5.27832 12.0415 4.75832C12.3535 4.23832 12.7735 3.83832 13.3015 3.55832C13.8375 3.27832 14.4415 3.13832 15.1135 3.13832C15.7855 3.13832 16.3855 3.27832 16.9135 3.55832C17.4495 3.83832 17.8695 4.23832 18.1735 4.75832C18.4855 5.27832 18.6415 5.88632 18.6415 6.58232C18.6415 7.27832 18.4855 7.89032 18.1735 8.41832C17.8695 8.93832 17.4495 9.33832 16.9135 9.61832C16.3775 9.89832 15.7735 10.0383 15.1015 10.0383ZM15.1015 7.99832C15.4295 7.99832 15.7015 7.87832 15.9175 7.63832C16.1415 7.39032 16.2535 7.03832 16.2535 6.58232C16.2535 6.12632 16.1415 5.77832 15.9175 5.53832C15.7015 5.29832 15.4335 5.17832 15.1135 5.17832C14.7935 5.17832 14.5255 5.29832 14.3095 5.53832C14.0935 5.77832 13.9855 6.12632 13.9855 6.58232C13.9855 7.04632 14.0895 7.39832 14.2975 7.63832C14.5055 7.87832 14.7735 7.99832 15.1015 7.99832ZM22.8265 7.73432L24.0865 3.22232H26.5945L24.2785 9.95432H21.3505L19.0345 3.22232L21.5425 3.22232L22.8265 7.73432ZM28.5794 2.59832C28.1634 2.59832 27.8274 2.48632 27.5714 2.26232C27.3234 2.03032 27.1994 1.74232 27.1994 1.39832C27.1994 1.04632 27.3234 0.754323 27.5714 0.522323C27.8274 0.290322 28.1634 0.174322 28.5794 0.174322C28.9874 0.174322 29.3154 0.290322 29.5634 0.522323C29.8194 0.754323 29.9474 1.04632 29.9474 1.39832C29.9474 1.74232 29.8194 2.03032 29.5634 2.26232C29.3154 2.48632 28.9874 2.59832 28.5794 2.59832ZM29.7434 3.22232V9.95432H27.3914V3.22232L29.7434 3.22232ZM37.5148 6.51032C37.5148 6.69432 37.5028 6.87832 37.4788 7.06232H33.0268C33.0508 7.43032 33.1508 7.70632 33.3268 7.89032C33.5108 8.06632 33.7428 8.15432 34.0228 8.15432C34.4148 8.15432 34.6948 7.97832 34.8628 7.62632H37.3708C37.2668 8.09032 37.0628 8.50632 36.7588 8.87432C36.4628 9.23432 36.0868 9.51832 35.6308 9.72632C35.1748 9.93432 34.6708 10.0383 34.1188 10.0383C33.4548 10.0383 32.8628 9.89832 32.3428 9.61832C31.8308 9.33832 31.4268 8.93832 31.1308 8.41832C30.8428 7.89832 30.6988 7.28632 30.6988 6.58232C30.6988 5.87832 30.8428 5.27032 31.1308 4.75832C31.4188 4.23832 31.8188 3.83832 32.3308 3.55832C32.8508 3.27832 33.4468 3.13832 34.1188 3.13832C34.7828 3.13832 35.3708 3.27432 35.8828 3.54632C36.3948 3.81832 36.7948 4.21032 37.0828 4.72232C37.3708 5.22632 37.5148 5.82232 37.5148 6.51032ZM35.1148 5.92232C35.1148 5.63432 35.0188 5.41032 34.8268 5.25032C34.6348 5.08232 34.3948 4.99832 34.1068 4.99832C33.8188 4.99832 33.5828 5.07832 33.3988 5.23832C33.2148 5.39032 33.0948 5.61832 33.0388 5.92232H35.1148ZM5.3657 13.6093V15.0133H3.6737V19.9543H1.9097L1.9097 15.0133H0.235703L0.235703 13.6093H5.3657ZM6.90934 14.4373C6.59734 14.4373 6.34534 14.3533 6.15334 14.1853C5.96734 14.0113 5.87434 13.7953 5.87434 13.5373C5.87434 13.2733 5.96734 13.0543 6.15334 12.8803C6.34534 12.7063 6.59734 12.6193 6.90934 12.6193C7.21534 12.6193 7.46134 12.7063 7.64734 12.8803C7.83934 13.0543 7.93534 13.2733 7.93534 13.5373C7.93534 13.7953 7.83934 14.0113 7.64734 14.1853C7.46134 14.3533 7.21534 14.4373 6.90934 14.4373ZM7.78234 14.9053V19.9543H6.01834V14.9053H7.78234ZM8.4989 17.4253C8.4989 16.9033 8.6069 16.4473 8.8229 16.0573C9.0389 15.6673 9.3389 15.3673 9.7229 15.1573C10.1129 14.9473 10.5569 14.8423 11.0549 14.8423C11.6969 14.8423 12.2369 15.0193 12.6749 15.3733C13.1129 15.7213 13.3949 16.2103 13.5209 16.8403H11.6489C11.5409 16.5103 11.3309 16.3453 11.0189 16.3453C10.7969 16.3453 10.6199 16.4383 10.4879 16.6243C10.3619 16.8043 10.2989 17.0713 10.2989 17.4253C10.2989 17.7793 10.3619 18.0493 10.4879 18.2353C10.6199 18.4213 10.7969 18.5143 11.0189 18.5143C11.3369 18.5143 11.5469 18.3493 11.6489 18.0193H13.5209C13.3949 18.6433 13.1129 19.1323 12.6749 19.4863C12.2369 19.8403 11.6969 20.0173 11.0549 20.0173C10.5569 20.0173 10.1129 19.9123 9.7229 19.7023C9.3389 19.4923 9.0389 19.1923 8.8229 18.8023C8.6069 18.4123 8.4989 17.9533 8.4989 17.4253ZM17.4127 19.9543L16.0177 17.8843V19.9543H14.2537L14.2537 13.2943H16.0177V16.8853L17.4127 14.9053H19.5277L17.5387 17.4433L19.5637 19.9543H17.4127ZM24.9048 17.3713C24.9048 17.5093 24.8958 17.6473 24.8778 17.7853H21.5388C21.5568 18.0613 21.6318 18.2683 21.7638 18.4063C21.9018 18.5383 22.0758 18.6043 22.2858 18.6043C22.5798 18.6043 22.7898 18.4723 22.9158 18.2083H24.7968C24.7188 18.5563 24.5658 18.8683 24.3378 19.1443C24.1158 19.4143 23.8338 19.6273 23.4918 19.7833C23.1498 19.9393 22.7718 20.0173 22.3578 20.0173C21.8598 20.0173 21.4158 19.9123 21.0258 19.7023C20.6418 19.4923 20.3388 19.1923 20.1168 18.8023C19.9008 18.4123 19.7928 17.9533 19.7928 17.4253C19.7928 16.8973 19.9008 16.4413 20.1168 16.0573C20.3328 15.6673 20.6328 15.3673 21.0168 15.1573C21.4068 14.9473 21.8538 14.8423 22.3578 14.8423C22.8558 14.8423 23.2968 14.9443 23.6808 15.1483C24.0648 15.3523 24.3648 15.6463 24.5808 16.0303C24.7968 16.4083 24.9048 16.8553 24.9048 17.3713ZM23.1048 16.9303C23.1048 16.7143 23.0328 16.5463 22.8888 16.4263C22.7448 16.3003 22.5648 16.2373 22.3488 16.2373C22.1328 16.2373 21.9558 16.2973 21.8178 16.4173C21.6798 16.5313 21.5898 16.7023 21.5478 16.9303H23.1048ZM28.6057 18.4513V19.9543H27.8407C26.5507 19.9543 25.9057 19.3153 25.9057 18.0373V16.3723H25.2847V14.9053H25.9057V13.6813H27.6787V14.9053H28.5967V16.3723H27.6787V18.0643C27.6787 18.2023 27.7087 18.3013 27.7687 18.3613C27.8347 18.4213 27.9427 18.4513 28.0927 18.4513H28.6057ZM31.5658 20.0173C31.1098 20.0173 30.7018 19.9423 30.3418 19.7923C29.9878 19.6363 29.7058 19.4263 29.4958 19.1623C29.2918 18.8923 29.1778 18.5893 29.1538 18.2533H30.8638C30.8878 18.4153 30.9628 18.5413 31.0888 18.6313C31.2148 18.7213 31.3708 18.7663 31.5568 18.7663C31.7008 18.7663 31.8148 18.7363 31.8988 18.6763C31.9828 18.6163 32.0248 18.5383 32.0248 18.4423C32.0248 18.3163 31.9558 18.2233 31.8178 18.1633C31.6798 18.1033 31.4518 18.0373 31.1338 17.9653C30.7738 17.8933 30.4738 17.8123 30.2338 17.7223C29.9938 17.6323 29.7838 17.4853 29.6038 17.2813C29.4298 17.0773 29.3428 16.8013 29.3428 16.4533C29.3428 16.1533 29.4238 15.8833 29.5858 15.6433C29.7478 15.3973 29.9848 15.2023 30.2968 15.0583C30.6148 14.9143 30.9958 14.8423 31.4398 14.8423C32.0998 14.8423 32.6188 15.0043 32.9968 15.3283C33.3748 15.6523 33.5938 16.0783 33.6538 16.6063H32.0608C32.0308 16.4443 31.9588 16.3213 31.8448 16.2373C31.7368 16.1473 31.5898 16.1023 31.4038 16.1023C31.2598 16.1023 31.1488 16.1293 31.0708 16.1833C30.9988 16.2373 30.9628 16.3123 30.9628 16.4083C30.9628 16.5283 31.0318 16.6213 31.1698 16.6873C31.3078 16.7473 31.5298 16.8103 31.8358 16.8763C32.2018 16.9543 32.5048 17.0413 32.7448 17.1373C32.9908 17.2333 33.2038 17.3893 33.3838 17.6053C33.5698 17.8153 33.6628 18.1033 33.6628 18.4693C33.6628 18.7633 33.5758 19.0273 33.4018 19.2613C33.2338 19.4953 32.9908 19.6813 32.6728 19.8193C32.3608 19.9513 31.9918 20.0173 31.5658 20.0173Z" fill="#699B6E"/>
<g clip-path="url(#clip0_7_185)">
<path d="M64.8915 1.0993L64.8912 1.09905C64.7676 0.975426 64.5717 0.967048 64.4351 1.07619C63.2841 1.99648 61.6553 2.02553 60.4747 1.16242C60.2376 0.98909 59.9102 1.01238 59.7025 1.22009L48.2589 12.6638C48.0533 12.8694 48.0243 13.1954 48.1964 13.4295C48.3787 13.6776 48.5215 13.9455 48.6248 14.2247C49.0201 15.2926 48.8384 16.5256 48.0795 17.4415C47.9678 17.5763 47.9742 17.773 48.098 17.8967L48.0981 17.8969C48.1971 17.9959 48.3461 18.0209 48.4744 17.9651C48.6915 17.8708 48.9535 17.9125 49.131 18.09C49.3086 18.2676 49.3502 18.5295 49.2559 18.7467C49.2001 18.875 49.2252 19.024 49.3242 19.1229L49.3579 19.1566C49.4569 19.2556 49.6058 19.2806 49.7341 19.2249C49.9512 19.1305 50.2132 19.1722 50.3907 19.3497C50.5683 19.5273 50.6099 19.7892 50.5156 20.0064C50.4598 20.1347 50.4849 20.2837 50.5839 20.3826L50.6176 20.4163C50.7166 20.5153 50.8655 20.5403 50.9938 20.4846C51.2109 20.3902 51.4729 20.4319 51.6504 20.6094C51.828 20.787 51.8696 21.0489 51.7753 21.2661C51.7195 21.3945 51.7446 21.5434 51.8436 21.6423L51.8773 21.676C51.9763 21.775 52.1252 21.8 52.2535 21.7443C52.4706 21.6499 52.7326 21.6916 52.9101 21.8691C53.0877 22.0467 53.1293 22.3086 53.035 22.5258C52.9792 22.6542 53.0043 22.8031 53.1033 22.902C53.2269 23.0256 53.4236 23.0325 53.558 22.9207C54.7215 21.9531 56.3879 21.9046 57.5863 22.7792C57.823 22.952 58.1497 22.9277 58.357 22.7206L69.7594 11.3182C69.9669 11.1107 69.9904 10.7838 69.8175 10.5467C68.9548 9.36383 68.9918 7.72571 69.9235 6.56492C70.033 6.42845 70.0247 6.23234 69.901 6.10864C69.8007 6.00839 69.6502 5.98364 69.5199 6.03946C69.3033 6.13223 69.0428 6.09025 68.866 5.91343C68.6892 5.73666 68.6472 5.4761 68.74 5.25954C68.7958 5.12926 68.771 4.97866 68.6708 4.87845L68.6414 4.84902C68.5411 4.74878 68.3905 4.72403 68.2603 4.77984C68.0437 4.87261 67.7831 4.83063 67.6064 4.65382C67.4296 4.47704 67.3875 4.21648 67.4803 3.99992C67.5362 3.86964 67.5114 3.71904 67.4112 3.61884L67.3817 3.5894C67.2815 3.48916 67.1309 3.46441 67.0006 3.52023C66.7841 3.61299 66.5235 3.57101 66.3468 3.3942C66.17 3.21739 66.1279 2.95687 66.2207 2.74031C66.2765 2.61003 66.2518 2.45942 66.1516 2.35922L66.1221 2.32979C66.0219 2.22954 65.8713 2.20479 65.741 2.26061C65.5245 2.35338 65.2639 2.3114 65.0871 2.13458C64.9104 1.95777 64.8683 1.69725 64.9611 1.48069C65.0165 1.35007 64.9917 1.19955 64.8915 1.0993Z" fill="#D9B43A"/>
<path d="M51.0505 9.8721L48.2587 12.6639C48.0532 12.8694 48.0241 13.1954 48.1962 13.4296C48.3578 13.6494 48.4883 13.885 48.5878 14.1302L63.0671 18.0099L66.9459 14.1312L51.0505 9.8721Z" fill="#BB9430"/>
<path d="M51.0505 9.87211L66.9459 14.1313L69.759 11.3182C69.9665 11.1107 69.99 10.7837 69.8171 10.5467C69.6649 10.3379 69.5412 10.1148 69.445 9.88285L54.9293 5.99335L51.0505 9.87211Z" fill="#E2C35A"/>
<path d="M60.0453 3.3966L50.4392 13.0026C50.2746 13.1672 50.2237 13.4119 50.3032 13.6307C50.6396 14.5572 50.6965 15.5633 50.4738 16.5167C50.4271 16.7166 50.4866 16.9263 50.6317 17.0715L53.9216 20.3613C54.0675 20.5073 54.2788 20.5666 54.4795 20.5185C55.4412 20.2882 56.4562 20.3413 57.3897 20.6782C57.6081 20.757 57.8521 20.7058 58.0163 20.5417L67.584 10.974C67.748 10.81 67.799 10.5666 67.721 10.3482C67.3947 9.43568 67.3376 8.44319 67.5501 7.49969C67.5943 7.30346 67.5316 7.09841 67.3894 6.9561L64.0368 3.60333C63.8953 3.46187 63.6918 3.3991 63.4964 3.44194C62.5594 3.64741 61.5737 3.58584 60.6665 3.25838C60.45 3.18026 60.208 3.23393 60.0453 3.3966Z" fill="#E2C35A"/>
<path d="M53.0374 10.4045L50.4392 13.0027C50.2747 13.1672 50.2237 13.412 50.3032 13.6307C50.4245 13.9648 50.5089 14.3094 50.5575 14.658L61.0803 17.4776L64.959 13.5988L53.0374 10.4045Z" fill="#D9B43A"/>
<path d="M53.0374 10.4045L64.959 13.5989L67.5839 10.9739C67.7479 10.81 67.799 10.5665 67.7209 10.3482C67.6056 10.0253 67.5245 9.69245 67.4764 9.35532L56.9162 6.52577L53.0374 10.4045Z" fill="#EBD37A"/>
<path d="M63.2181 5.47244L61.9584 6.7321C61.7845 6.90604 61.7845 7.18804 61.9584 7.36198C62.1323 7.53591 62.4143 7.53591 62.5883 7.36198L62.9032 7.04706L64.2678 8.41169C64.4417 8.58563 64.7238 8.58563 64.8977 8.41169C65.0716 8.23776 65.0716 7.95576 64.8977 7.78182L63.5331 6.41719L63.848 6.10227C64.0219 5.92834 64.0219 5.64634 63.848 5.4724C63.674 5.29851 63.392 5.29851 63.2181 5.47244Z" fill="#644D2D"/>
<path d="M60.4888 8.2017C59.8521 8.83837 59.8521 9.87442 60.4888 10.5111C61.1254 11.1477 62.1615 11.1477 62.7982 10.5111C63.0011 10.3082 63.1473 10.055 63.2211 9.77886C63.2845 9.5412 63.1433 9.29714 62.9057 9.23367C62.668 9.17025 62.424 9.31141 62.3605 9.54906C62.3271 9.67406 62.2607 9.78895 62.1683 9.88129C61.997 10.0527 61.7621 10.1226 61.5388 10.091L62.7982 8.83158C62.9721 8.65764 62.9721 8.37564 62.7982 8.2017C62.1615 7.56496 61.1254 7.56496 60.4888 8.2017ZM60.9089 9.46111C60.8773 9.23784 60.9473 9.00285 61.1186 8.83153C61.2899 8.66022 61.5248 8.59027 61.7481 8.62185L60.9089 9.46111Z" fill="#644D2D"/>
<path d="M59.7795 11.2204V9.98622C59.7795 9.74027 59.58 9.54086 59.3341 9.54086C59.0881 9.54086 58.8887 9.74027 58.8887 9.98622V11.4303L58.3894 10.931C58.2154 10.757 57.9334 10.757 57.7595 10.931C57.5855 11.1049 57.5855 11.3869 57.7595 11.5608L59.439 13.2404C59.613 13.4143 59.895 13.4143 60.0689 13.2404C60.2428 13.0664 60.2428 12.7844 60.0689 12.6105L59.7795 12.3211V12.1111H61.0136C61.1366 12.1111 61.248 12.0613 61.3286 11.9806C61.4091 11.9001 61.459 11.7887 61.459 11.6657C61.459 11.4198 61.2596 11.2204 61.0136 11.2204L59.7795 11.2204Z" fill="#644D2D"/>
<path d="M56.9618 12.9954C57.101 12.8562 57.2862 12.7795 57.4831 12.7795C57.7291 12.7795 57.9285 12.5801 57.9285 12.3341C57.9285 12.0881 57.7291 11.8887 57.4831 11.8887C56.5854 11.8887 55.8551 12.6191 55.8551 13.5168C55.8551 14.4144 56.5855 15.1447 57.4831 15.1448C57.932 15.1448 58.339 14.9622 58.6338 14.6674C58.9286 14.3726 59.1112 13.9656 59.1112 13.5168C59.1112 13.2709 58.9118 13.0714 58.6658 13.0714C58.4199 13.0714 58.2205 13.2709 58.2205 13.5168C58.2205 13.7138 58.1437 13.8989 58.0045 14.0382C57.8652 14.1774 57.6801 14.2541 57.4832 14.2541C57.0766 14.2541 56.7459 13.9233 56.7458 13.5168C56.7458 13.3198 56.8225 13.1347 56.9618 12.9954Z" fill="#644D2D"/>
<path d="M54.6104 14.0801C54.4364 14.254 54.4364 14.536 54.6104 14.71L56.2899 16.3895C56.4639 16.5635 56.7459 16.5635 56.9198 16.3895C57.0937 16.2156 57.0937 15.9336 56.9198 15.7597L55.2402 14.0801C55.0663 13.9062 54.7843 13.9062 54.6104 14.0801Z" fill="#644D2D"/>
<path d="M53.7496 14.9409L52.49 16.2005C52.316 16.3745 52.316 16.6565 52.49 16.8304C52.6639 17.0043 52.9459 17.0043 53.1199 16.8304L53.4348 16.5155L54.7994 17.8801C54.9733 18.0541 55.2553 18.0541 55.4293 17.8801C55.6032 17.7062 55.6032 17.4242 55.4293 17.2502L54.0646 15.8856L54.3795 15.5707C54.5534 15.3968 54.5534 15.1148 54.3795 14.9408C54.2056 14.7669 53.9235 14.7669 53.7496 14.9409Z" fill="#644D2D"/>
<path d="M52.4698 12.8142L52.8666 13.0258L53.1815 12.7108C53.2901 12.6022 53.4768 12.6955 53.4574 12.8488L53.3992 13.3099L53.8113 13.5297C53.9512 13.6043 53.9156 13.8131 53.7595 13.8328L53.3261 13.8876L53.2714 14.321C53.2517 14.477 53.0429 14.5126 52.9683 14.3727L52.7484 13.9606L52.2874 14.0188C52.1341 14.0382 52.0407 13.8516 52.1494 13.7429L52.4643 13.428L52.2528 13.0313C52.1774 12.8899 52.3285 12.7388 52.4698 12.8142Z" fill="#9E7325"/>
<path d="M54.9891 10.2949L55.3858 10.5065L55.7008 10.1915C55.8094 10.0829 55.996 10.1763 55.9767 10.3295L55.9184 10.7906L56.3306 11.0104C56.4705 11.085 56.4349 11.2938 56.2788 11.3136L55.8454 11.3683L55.7907 11.8017C55.771 11.9577 55.5622 11.9934 55.4876 11.8535L55.2677 11.4413L54.8067 11.4996C54.6534 11.5189 54.56 11.3323 54.6687 11.2237L54.9836 10.9087L54.772 10.512C54.6967 10.3705 54.8478 10.2195 54.9891 10.2949Z" fill="#9E7325"/>
<path d="M57.5085 7.77555L57.9052 7.98712L58.2202 7.67217C58.3288 7.56354 58.5154 7.65691 58.4961 7.81018L58.4378 8.27123L58.8499 8.49106C58.9898 8.56569 58.9542 8.77448 58.7982 8.7942L58.3648 8.84894L58.31 9.28232C58.2903 9.43838 58.0815 9.474 58.0069 9.3341L57.7871 8.92194L57.326 8.98021C57.1728 8.99959 57.0793 8.81293 57.188 8.70431L57.503 8.38935L57.2914 7.99262C57.216 7.85126 57.3671 7.70018 57.5085 7.77555Z" fill="#9E7325"/>
<path d="M60.0278 5.25627L60.4245 5.46785L60.7394 5.15289C60.8481 5.04426 61.0347 5.13763 61.0153 5.2909L60.9571 5.75195L61.3692 5.97178C61.5091 6.04641 61.4735 6.2552 61.3174 6.27492L60.8841 6.32966L60.8293 6.76304C60.8096 6.9191 60.6008 6.95472 60.5262 6.81482L60.3064 6.40266L59.8453 6.46093C59.692 6.48031 59.5986 6.29365 59.7073 6.18503L60.0223 5.87007L59.8107 5.47335C59.7354 5.33198 59.8864 5.1809 60.0278 5.25627Z" fill="#9E7325"/>
<path d="M57.0886 17.4329L57.4853 17.6445L57.8003 17.3296C57.9089 17.2209 58.0955 17.3143 58.0762 17.4676L58.0179 17.9286L58.43 18.1485C58.57 18.2231 58.5343 18.4319 58.3783 18.4516L57.9449 18.5063L57.8901 18.9397C57.8704 19.0958 57.6616 19.1314 57.587 18.9915L57.3672 18.5793L56.9061 18.6376C56.7529 18.657 56.6595 18.4703 56.7681 18.3617L57.0831 18.0467L56.8715 17.65C56.7961 17.5086 56.9472 17.3576 57.0886 17.4329Z" fill="#9E7325"/>
<path d="M59.6079 14.9137L60.0046 15.1252L60.3195 14.8103C60.4282 14.7017 60.6148 14.795 60.5954 14.9483L60.5372 15.4093L60.9493 15.6292C61.0892 15.7038 61.0536 15.9126 60.8976 15.9323L60.4642 15.987L60.4094 16.4204C60.3897 16.5765 60.1809 16.6121 60.1063 16.4722L59.8865 16.0601L59.4254 16.1183C59.2722 16.1377 59.1787 15.951 59.2874 15.8424L59.6024 15.5275L59.3908 15.1307C59.3155 14.9893 59.4665 14.8382 59.6079 14.9137Z" fill="#9E7325"/>
<path d="M62.1272 12.3943L62.5239 12.6059L62.8388 12.2909C62.9475 12.1823 63.1341 12.2757 63.1147 12.4289L63.0565 12.89L63.4686 13.1098C63.6085 13.1844 63.5729 13.3932 63.4169 13.4129L62.9834 13.4677L62.9287 13.9011C62.909 14.0571 62.7002 14.0927 62.6256 13.9528L62.4057 13.5407L61.9447 13.599C61.7914 13.6183 61.698 13.4317 61.8067 13.3231L62.1216 13.0081L61.91 12.6114C61.8348 12.47 61.9858 12.3189 62.1272 12.3943Z" fill="#9E7325"/>
<path d="M64.6465 9.87502L65.0433 10.0866L65.3582 9.77164C65.4668 9.66301 65.6534 9.75639 65.6341 9.90965L65.5758 10.3707L65.988 10.5905C66.1279 10.6652 66.0923 10.8739 65.9362 10.8937L65.5028 10.9484L65.4481 11.3818C65.4284 11.5379 65.2196 11.5735 65.145 11.4336L64.9251 11.0214L64.4641 11.0797C64.3108 11.0991 64.2174 10.9124 64.3261 10.8038L64.641 10.4888L64.4295 10.0921C64.3541 9.95065 64.5052 9.79961 64.6465 9.87502Z" fill="#9E7325"/>
</g>
<defs>
<clipPath id="clip0_7_185">
<rect width="22" height="22" fill="white" transform="translate(48 1)"/>
</clipPath>
</defs>
</svg>
