<svg width="99" height="40" viewBox="0 0 99 40" fill="none" xmlns="http://www.w3.org/2000/svg">
<g clip-path="url(#clip0_7_196)">
<path d="M98.3103 8.96555H89.6897C89.4992 8.96555 89.3448 9.11992 89.3448 9.31039V9.61625C89.3448 10.3589 88.7741 10.998 88.0323 11.033C87.2402 11.0703 86.5863 10.4391 86.5863 9.65523V9.31039C86.5863 9.11992 86.4319 8.96555 86.2414 8.96555H59.6897C59.3088 8.96555 59 9.27437 59 9.65523V30.3449C59 30.7258 59.3088 31.0346 59.6897 31.0346H86.2414C86.4319 31.0346 86.5863 30.8802 86.5863 30.6898V30.3839C86.5863 29.6412 87.157 29.0022 87.8988 28.9672C88.6909 28.9298 89.3448 29.5611 89.3448 30.3449V30.6898C89.3448 30.8802 89.4992 31.0346 89.6897 31.0346H98.3104C98.6913 31.0346 99.0001 30.7258 99.0001 30.3449V9.65515C99 9.2743 98.6912 8.96555 98.3103 8.96555ZM88.6552 26.8966C88.6552 27.2774 88.3467 27.5862 87.9655 27.5862C87.5843 27.5862 87.2758 27.2774 87.2758 26.8966V25.5173C87.2758 25.1364 87.5842 24.8276 87.9655 24.8276C88.3466 24.8276 88.6552 25.1364 88.6552 25.5173V26.8966ZM88.6552 22.7586C88.6552 23.1395 88.3467 23.4483 87.9655 23.4483C87.5843 23.4483 87.2758 23.1395 87.2758 22.7586V21.3793C87.2758 20.9984 87.5842 20.6896 87.9655 20.6896C88.3466 20.6896 88.6552 20.9984 88.6552 21.3793V22.7586ZM88.6552 18.6207C88.6552 19.0016 88.3467 19.3104 87.9655 19.3104C87.5843 19.3104 87.2758 19.0016 87.2758 18.6207V17.2414C87.2758 16.8605 87.5842 16.5517 87.9655 16.5517C88.3466 16.5517 88.6552 16.8605 88.6552 17.2414V18.6207ZM88.6552 14.4827C88.6552 14.8636 88.3467 15.1724 87.9655 15.1724C87.5843 15.1724 87.2758 14.8636 87.2758 14.4827V13.1034C87.2758 12.7226 87.5842 12.4137 87.9655 12.4137C88.3466 12.4137 88.6552 12.7226 88.6552 13.1034V14.4827Z" fill="#FF507D"/>
<path d="M88.6551 13.1034V14.4827C88.6551 14.8636 88.3467 15.1724 87.9655 15.1724V16.5517C88.3466 16.5517 88.6551 16.8605 88.6551 17.2414V18.6207C88.6551 19.0016 88.3467 19.3104 87.9655 19.3104V20.6897C88.3466 20.6897 88.6551 20.9985 88.6551 21.3794V22.7587C88.6551 23.1395 88.3467 23.4484 87.9655 23.4484V24.8277C88.3466 24.8277 88.6551 25.1365 88.6551 25.5173V26.8966C88.6551 27.2775 88.3467 27.5863 87.9655 27.5863V28.9656C88.7272 28.9656 89.3448 29.5832 89.3448 30.3449V30.6898C89.3448 30.8802 89.4991 31.0346 89.6896 31.0346H98.3103C98.6912 31.0346 99 30.7258 99 30.3449V9.65516C99 9.2743 98.6912 8.96547 98.3103 8.96547H89.6897C89.4992 8.96547 89.3448 9.11984 89.3448 9.31031V9.65516C89.3448 10.4169 88.7273 11.0345 87.9655 11.0345V12.4138C88.3467 12.4138 88.6551 12.7226 88.6551 13.1034Z" fill="#D23C69"/>
<path d="M99 19.3103H74.1724V8.96555H72.7931V19.3103H59V20.6897H72.7931V31.0345H74.1724V20.6897H99V19.3103Z" fill="#FFDC64"/>
<path d="M80.5613 20.6826C80.1077 20.3336 80.1077 19.6663 80.5613 19.3174C80.5644 19.3151 80.5674 19.3127 80.5705 19.3104H74.1724V12.9123C74.1701 12.9154 74.1677 12.9184 74.1654 12.9215C73.8164 13.3752 73.1491 13.3752 72.8002 12.9215C72.7979 12.9184 72.7955 12.9154 72.7932 12.9123V19.3104H66.3951C66.3981 19.3127 66.4012 19.3152 66.4042 19.3174C66.8579 19.6664 66.8579 20.3338 66.4042 20.6826C66.4012 20.6849 66.3981 20.6873 66.3951 20.6896H72.7931V27.0877C72.7955 27.0846 72.7979 27.0816 72.8002 27.0785C73.1491 26.6248 73.8165 26.6248 74.1653 27.0785C74.1677 27.0816 74.1701 27.0846 74.1723 27.0877V20.6896H80.5704C80.5674 20.6873 80.5643 20.6849 80.5613 20.6826Z" fill="#FFC850"/>
<path d="M75.9935 20C77.4553 19.5139 79.2195 18.7851 80.132 17.8724C80.7363 17.2684 81.0689 16.4655 81.0689 15.6116C81.0689 14.7576 80.7363 13.9541 80.1321 13.3506C79.5287 12.7465 78.7252 12.4138 77.8712 12.4138C77.0171 12.4138 76.2144 12.7465 75.6102 13.3506C74.6977 14.2632 73.9688 16.0273 73.4827 17.4891C72.9966 16.0273 72.2677 14.2632 71.3551 13.3506C70.7511 12.7465 69.9483 12.4138 69.0943 12.4138C68.2403 12.4138 67.4368 12.7465 66.8334 13.3506C66.2292 13.9541 65.8966 14.7575 65.8966 15.6116C65.8966 16.4655 66.2292 17.2684 66.8334 17.8725C67.746 18.7851 69.5101 19.514 70.9719 20.0001C69.5101 20.4862 67.746 21.215 66.8334 22.1277C66.2292 22.7317 65.8966 23.5345 65.8966 24.3884C65.8966 25.2424 66.2292 26.0459 66.8334 26.6494C67.4368 27.2535 68.2402 27.5862 69.0943 27.5862C69.9484 27.5862 70.7511 27.2535 71.3552 26.6494C72.2678 25.7368 72.9967 23.9727 73.4828 22.5109C73.9689 23.9727 74.6977 25.7368 75.6104 26.6494C76.2145 27.2535 77.0172 27.5862 77.8712 27.5862C78.7252 27.5862 79.5287 27.2535 80.1321 26.6494C80.7363 26.0459 81.0689 25.2425 81.0689 24.3884C81.0689 23.5344 80.7363 22.7316 80.1321 22.1275C79.2195 21.2149 77.4555 20.4861 75.9935 20ZM76.5856 14.3259C76.929 13.9824 77.3856 13.7931 77.8713 13.7931C78.3569 13.7931 78.8135 13.9823 79.157 14.3259C79.5004 14.6694 79.6897 15.1259 79.6897 15.6116C79.6897 16.0972 79.5005 16.5538 79.157 16.8973C78.2525 17.8017 75.9909 18.5945 74.4466 19.0363C74.8884 17.4919 75.681 15.2303 76.5856 14.3259ZM67.2759 15.6116C67.2759 15.1259 67.4651 14.6693 67.8086 14.3259C68.1521 13.9824 68.6087 13.7931 69.0943 13.7931C69.5799 13.7931 70.0366 13.9823 70.38 14.3259C71.2845 15.2303 72.0773 17.492 72.5191 19.0363C70.9748 18.5945 68.7132 17.8019 67.8086 16.8973C67.4651 16.5537 67.2759 16.0972 67.2759 15.6116ZM70.38 25.6741C69.6931 26.3611 68.4956 26.3611 67.8086 25.6741C67.4652 25.3307 67.2759 24.8741 67.2759 24.3884C67.2759 23.9028 67.4651 23.4462 67.8086 23.1027C68.7131 22.1983 70.9747 21.4055 72.5191 20.9637C72.0772 22.5081 71.2845 24.7697 70.38 25.6741ZM79.1569 25.6741C78.4699 26.3611 77.2725 26.3611 76.5855 25.6741C75.681 24.7697 74.8882 22.508 74.4464 20.9637C75.9907 21.4055 78.2523 22.1982 79.1569 23.1028C79.5003 23.4462 79.6896 23.9029 79.6896 24.3885C79.6897 24.8741 79.5005 25.3307 79.1569 25.6741Z" fill="#FFDC64"/>
</g>
<path d="M5.24641 20.3636L3.56641 17.2436H3.31441L3.31441 20.3636H0.962405L0.962405 11.9036L4.67041 11.9036C5.35041 11.9036 5.92641 12.0236 6.39841 12.2636C6.87041 12.4956 7.22641 12.8196 7.46641 13.2356C7.70641 13.6436 7.82641 14.1036 7.82641 14.6156C7.82641 15.1916 7.66641 15.6996 7.34641 16.1396C7.03441 16.5716 6.57441 16.8796 5.96641 17.0636L7.87441 20.3636H5.24641ZM3.31441 15.6356H4.47841C4.79841 15.6356 5.03841 15.5596 5.19841 15.4076C5.35841 15.2556 5.43841 15.0356 5.43841 14.7476C5.43841 14.4756 5.35441 14.2636 5.18641 14.1116C5.02641 13.9516 4.79041 13.8716 4.47841 13.8716L3.31441 13.8716L3.31441 15.6356ZM12.088 20.4476C11.104 20.4476 10.296 20.2156 9.664 19.7516C9.032 19.2796 8.692 18.6076 8.644 17.7356H11.152C11.176 18.0316 11.264 18.2476 11.416 18.3836C11.568 18.5196 11.764 18.5876 12.004 18.5876C12.22 18.5876 12.396 18.5356 12.532 18.4316C12.676 18.3196 12.748 18.1676 12.748 17.9756C12.748 17.7276 12.632 17.5356 12.4 17.3996C12.168 17.2636 11.792 17.1116 11.272 16.9436C10.72 16.7596 10.272 16.5836 9.928 16.4156C9.592 16.2396 9.296 15.9876 9.04 15.6596C8.792 15.3236 8.668 14.8876 8.668 14.3516C8.668 13.8076 8.804 13.3436 9.076 12.9596C9.348 12.5676 9.724 12.2716 10.204 12.0716C10.684 11.8716 11.228 11.7716 11.836 11.7716C12.82 11.7716 13.604 12.0036 14.188 12.4676C14.78 12.9236 15.096 13.5676 15.136 14.3996H12.58C12.572 14.1436 12.492 13.9516 12.34 13.8236C12.196 13.6956 12.008 13.6316 11.776 13.6316C11.6 13.6316 11.456 13.6836 11.344 13.7876C11.232 13.8916 11.176 14.0396 11.176 14.2316C11.176 14.3916 11.236 14.5316 11.356 14.6516C11.484 14.7636 11.64 14.8636 11.824 14.9516C12.008 15.0316 12.28 15.1356 12.64 15.2636C13.176 15.4476 13.616 15.6316 13.96 15.8156C14.312 15.9916 14.612 16.2436 14.86 16.5716C15.116 16.8916 15.244 17.2996 15.244 17.7956C15.244 18.2996 15.116 18.7516 14.86 19.1516C14.612 19.5516 14.248 19.8676 13.768 20.0996C13.296 20.3316 12.736 20.4476 12.088 20.4476ZM25.3853 13.1096L21.4853 13.1096V14.5526C21.6499 14.3792 21.8753 14.2406 22.1613 14.1366C22.4473 14.0326 22.7636 13.9806 23.1103 13.9806C23.7343 13.9806 24.2543 14.1236 24.6703 14.4096C25.0949 14.6956 25.4069 15.0726 25.6063 15.5406C25.8056 16.0086 25.9053 16.5199 25.9053 17.0746C25.9053 18.0972 25.6149 18.9032 25.0343 19.4926C24.4536 20.0732 23.6476 20.3636 22.6163 20.3636C21.8969 20.3636 21.2729 20.2422 20.7443 19.9996C20.2243 19.7482 19.8256 19.4016 19.5483 18.9596C19.2709 18.5176 19.1279 18.0106 19.1193 17.4386H21.6023C21.6283 17.6379 21.7149 17.8112 21.8623 17.9586C22.0096 18.1059 22.2263 18.1796 22.5123 18.1796C22.8156 18.1796 23.0453 18.0756 23.2013 17.8676C23.3573 17.6596 23.4353 17.3822 23.4353 17.0356C23.4353 16.6976 23.3529 16.4419 23.1883 16.2686C23.0236 16.0866 22.7853 15.9956 22.4733 15.9956C22.2393 15.9956 22.0486 16.0562 21.9013 16.1776C21.7626 16.2902 21.6803 16.4332 21.6543 16.6066H19.1713V10.8606L25.3853 10.8606V13.1096ZM26.9878 15.4756C26.9878 13.9849 27.2912 12.8106 27.8978 11.9526C28.5045 11.0946 29.4578 10.6656 30.7578 10.6656C32.0578 10.6656 33.0112 11.0946 33.6178 11.9526C34.2332 12.8106 34.5408 13.9849 34.5408 15.4756C34.5408 16.9836 34.2375 18.1666 33.6308 19.0246C33.0242 19.8826 32.0665 20.3116 30.7578 20.3116C29.4492 20.3116 28.4915 19.8826 27.8848 19.0246C27.2868 18.1666 26.9878 16.9836 26.9878 15.4756ZM32.0188 15.4756C32.0188 14.6956 31.9365 14.1019 31.7718 13.6946C31.6072 13.2786 31.2692 13.0706 30.7578 13.0706C30.2465 13.0706 29.9085 13.2786 29.7438 13.6946C29.5792 14.1019 29.4968 14.6956 29.4968 15.4756C29.4968 16.2729 29.5748 16.8796 29.7308 17.2956C29.8955 17.7029 30.2378 17.9066 30.7578 17.9066C31.2778 17.9066 31.6158 17.7029 31.7718 17.2956C31.9365 16.8796 32.0188 16.2729 32.0188 15.4756ZM35.5318 15.4756C35.5318 13.9849 35.8351 12.8106 36.4418 11.9526C37.0484 11.0946 38.0018 10.6656 39.3018 10.6656C40.6018 10.6656 41.5551 11.0946 42.1618 11.9526C42.7771 12.8106 43.0848 13.9849 43.0848 15.4756C43.0848 16.9836 42.7814 18.1666 42.1748 19.0246C41.5681 19.8826 40.6104 20.3116 39.3018 20.3116C37.9931 20.3116 37.0354 19.8826 36.4288 19.0246C35.8308 18.1666 35.5318 16.9836 35.5318 15.4756ZM40.5628 15.4756C40.5628 14.6956 40.4804 14.1019 40.3158 13.6946C40.1511 13.2786 39.8131 13.0706 39.3018 13.0706C38.7904 13.0706 38.4524 13.2786 38.2878 13.6946C38.1231 14.1019 38.0408 14.6956 38.0408 15.4756C38.0408 16.2729 38.1188 16.8796 38.2748 17.2956C38.4394 17.7029 38.7818 17.9066 39.3018 17.9066C39.8218 17.9066 40.1598 17.7029 40.3158 17.2956C40.4804 16.8796 40.5628 16.2729 40.5628 15.4756ZM7.71041 23.3136L5.28041 30.3636H2.77041L0.330405 23.3136H2.43041L4.03041 28.4036L5.62041 23.3136H7.71041ZM10.9311 30.4336C10.3711 30.4336 9.86778 30.3169 9.42111 30.0836C8.98111 29.8502 8.63444 29.5169 8.38111 29.0836C8.12778 28.6502 8.00111 28.1402 8.00111 27.5536C8.00111 26.9736 8.12778 26.4669 8.38111 26.0336C8.64111 25.6002 8.99111 25.2669 9.43111 25.0336C9.87778 24.8002 10.3811 24.6836 10.9411 24.6836C11.5011 24.6836 12.0011 24.8002 12.4411 25.0336C12.8878 25.2669 13.2378 25.6002 13.4911 26.0336C13.7511 26.4669 13.8811 26.9736 13.8811 27.5536C13.8811 28.1336 13.7511 28.6436 13.4911 29.0836C13.2378 29.5169 12.8878 29.8502 12.4411 30.0836C11.9944 30.3169 11.4911 30.4336 10.9311 30.4336ZM10.9311 28.7336C11.2044 28.7336 11.4311 28.6336 11.6111 28.4336C11.7978 28.2269 11.8911 27.9336 11.8911 27.5536C11.8911 27.1736 11.7978 26.8836 11.6111 26.6836C11.4311 26.4836 11.2078 26.3836 10.9411 26.3836C10.6744 26.3836 10.4511 26.4836 10.2711 26.6836C10.0911 26.8836 10.0011 27.1736 10.0011 27.5536C10.0011 27.9402 10.0878 28.2336 10.2611 28.4336C10.4344 28.6336 10.6578 28.7336 10.9311 28.7336ZM20.4185 24.7536L20.4185 30.3636L18.4485 30.3636L18.4485 29.5636C18.2819 29.8169 18.0519 30.0236 17.7585 30.1836C17.4652 30.3369 17.1285 30.4136 16.7485 30.4136C16.0952 30.4136 15.5785 30.2002 15.1985 29.7736C14.8252 29.3402 14.6385 28.7536 14.6385 28.0136L14.6385 24.7536L16.5885 24.7536V27.7636C16.5885 28.0836 16.6719 28.3369 16.8385 28.5236C17.0119 28.7036 17.2385 28.7936 17.5185 28.7936C17.8052 28.7936 18.0319 28.7036 18.1985 28.5236C18.3652 28.3369 18.4485 28.0836 18.4485 27.7636V24.7536H20.4185ZM21.214 27.5536C21.214 26.9736 21.334 26.4669 21.574 26.0336C21.814 25.6002 22.1473 25.2669 22.574 25.0336C23.0073 24.8002 23.5007 24.6836 24.054 24.6836C24.7673 24.6836 25.3673 24.8802 25.854 25.2736C26.3407 25.6602 26.654 26.2036 26.794 26.9036H24.714C24.594 26.5369 24.3607 26.3536 24.014 26.3536C23.7673 26.3536 23.5707 26.4569 23.424 26.6636C23.284 26.8636 23.214 27.1602 23.214 27.5536C23.214 27.9469 23.284 28.2469 23.424 28.4536C23.5707 28.6602 23.7673 28.7636 24.014 28.7636C24.3673 28.7636 24.6007 28.5802 24.714 28.2136H26.794C26.654 28.9069 26.3407 29.4502 25.854 29.8436C25.3673 30.2369 24.7673 30.4336 24.054 30.4336C23.5007 30.4336 23.0073 30.3169 22.574 30.0836C22.1473 29.8502 21.814 29.5169 21.574 29.0836C21.334 28.6502 21.214 28.1402 21.214 27.5536ZM31.2982 24.7036C31.9382 24.7036 32.4449 24.9202 32.8182 25.3536C33.1982 25.7802 33.3882 26.3602 33.3882 27.0936V30.3636L31.4282 30.3636L31.4282 27.3536C31.4282 27.0336 31.3449 26.7836 31.1782 26.6036C31.0116 26.4169 30.7882 26.3236 30.5082 26.3236C30.2149 26.3236 29.9849 26.4169 29.8182 26.6036C29.6516 26.7836 29.5682 27.0336 29.5682 27.3536L29.5682 30.3636H27.6082L27.6082 22.9636H29.5682V25.5536C29.7416 25.3002 29.9749 25.0969 30.2682 24.9436C30.5682 24.7836 30.9116 24.7036 31.2982 24.7036ZM39.8237 27.4936C39.8237 27.6469 39.8137 27.8002 39.7937 27.9536H36.0837C36.1037 28.2602 36.187 28.4902 36.3337 28.6436C36.487 28.7902 36.6804 28.8636 36.9137 28.8636C37.2404 28.8636 37.4737 28.7169 37.6137 28.4236H39.7037C39.617 28.8102 39.447 29.1569 39.1937 29.4636C38.947 29.7636 38.6337 30.0002 38.2537 30.1736C37.8737 30.3469 37.4537 30.4336 36.9937 30.4336C36.4404 30.4336 35.947 30.3169 35.5137 30.0836C35.087 29.8502 34.7504 29.5169 34.5037 29.0836C34.2637 28.6502 34.1437 28.1402 34.1437 27.5536C34.1437 26.9669 34.2637 26.4602 34.5037 26.0336C34.7437 25.6002 35.077 25.2669 35.5037 25.0336C35.937 24.8002 36.4337 24.6836 36.9937 24.6836C37.547 24.6836 38.037 24.7969 38.4637 25.0236C38.8904 25.2502 39.2237 25.5769 39.4637 26.0036C39.7037 26.4236 39.8237 26.9202 39.8237 27.4936ZM37.8237 27.0036C37.8237 26.7636 37.7437 26.5769 37.5837 26.4436C37.4237 26.3036 37.2237 26.2336 36.9837 26.2336C36.7437 26.2336 36.547 26.3002 36.3937 26.4336C36.2404 26.5602 36.1404 26.7502 36.0937 27.0036H37.8237ZM42.5858 25.7436C42.8058 25.4236 43.0725 25.1702 43.3858 24.9836C43.6991 24.7969 44.0358 24.7036 44.3958 24.7036V26.7936H43.8458C43.4191 26.7936 43.1025 26.8769 42.8958 27.0436C42.6891 27.2102 42.5858 27.5002 42.5858 27.9136V30.3636H40.6258V24.7536L42.5858 24.7536V25.7436Z" fill="#699B6E"/>
<defs>
<clipPath id="clip0_7_196">
<rect width="40" height="40" fill="white" transform="translate(59)"/>
</clipPath>
</defs>
</svg>
