<svg width="93" height="38" viewBox="0 0 93 38" fill="none" xmlns="http://www.w3.org/2000/svg">
<path d="M6.46806 19.0887C6.93336 19.1163 7.3248 19.2823 7.64238 19.5869C7.96601 19.883 8.16409 20.2517 8.23662 20.6932C8.34363 21.3444 8.20313 21.8914 7.81513 22.3342C7.42712 22.777 6.82788 23.065 6.01741 23.1981L2.22921 23.8206L0.971798 16.1682L4.6406 15.5654C5.42212 15.4369 6.06212 15.5101 6.56061 15.785C7.06634 16.0586 7.37092 16.5102 7.47437 17.1397C7.54809 17.5884 7.49052 17.9843 7.30166 18.3274C7.11885 18.6622 6.84099 18.9159 6.46806 19.0887ZM3.59867 18.8579L4.67326 18.6813C5.20874 18.5933 5.44022 18.3286 5.36769 17.8872C5.29278 17.4313 4.98758 17.2474 4.4521 17.3354L3.37751 17.5119L3.59867 18.8579ZM5.31229 21.5527C5.84777 21.4647 6.07866 21.1964 6.00493 20.7477C5.96689 20.5162 5.86539 20.3508 5.70045 20.2515C5.54275 20.1511 5.33364 20.1223 5.07314 20.1651L3.84658 20.3666L4.07488 21.756L5.31229 21.5527ZM14.8175 18.5528C14.8449 18.7192 14.8614 18.8874 14.867 19.0574L10.84 19.7191C10.9164 20.0484 11.0479 20.2832 11.2344 20.4235C11.427 20.5554 11.65 20.6005 11.9032 20.5589C12.2578 20.5006 12.4849 20.2998 12.5846 19.9564L14.8532 19.5836C14.828 20.0188 14.7054 20.4254 14.4851 20.8035C14.2708 21.1731 13.9729 21.4859 13.5914 21.7418C13.2098 21.9977 12.7694 22.1667 12.2701 22.2487C11.6695 22.3474 11.1132 22.3088 10.6012 22.1328C10.0965 21.9556 9.67159 21.6539 9.32656 21.2275C8.98877 20.7999 8.76755 20.2678 8.66292 19.631C8.55828 18.9942 8.59817 18.4228 8.78257 17.9169C8.96579 17.4037 9.26816 16.9825 9.68966 16.6531C10.1184 16.3225 10.6367 16.1073 11.2445 16.0074C11.8452 15.9087 12.3972 15.9444 12.9008 16.1143C13.4043 16.2842 13.8244 16.5794 14.161 16.9997C14.4964 17.4128 14.7153 17.9305 14.8175 18.5528ZM12.5593 18.3776C12.5164 18.1171 12.3963 17.9288 12.1989 17.8126C12.0002 17.6892 11.7707 17.6488 11.5101 17.6917C11.2496 17.7345 11.0481 17.8419 10.9054 18.014C10.7616 18.1788 10.6869 18.4029 10.6814 18.6862L12.5593 18.3776ZM19.495 19.1219L19.7929 20.9346L18.8703 21.0862C17.3145 21.3418 16.4099 20.699 16.1567 19.1577L15.8267 17.1496L15.0777 17.2727L14.787 15.5034L15.536 15.3803L15.2934 13.9041L17.4317 13.5527L17.6743 15.0289L18.7815 14.847L19.0722 16.6163L17.965 16.7982L18.3003 18.8389C18.3277 19.0053 18.3835 19.1187 18.4677 19.1792C18.5592 19.2385 18.6954 19.2533 18.8763 19.2236L19.495 19.1219ZM24.0636 18.3712L24.3615 20.1839L23.4389 20.3355C21.8831 20.5911 20.9785 19.9483 20.7253 18.407L20.3953 16.3989L19.6464 16.5219L19.3556 14.7527L20.1046 14.6296L19.862 13.1534L22.0003 12.802L22.2429 14.2782L23.3501 14.0963L23.6408 15.8656L22.5336 16.0475L22.8689 18.0882C22.8963 18.2546 22.9521 18.368 23.0363 18.4285C23.1278 18.4878 23.264 18.5026 23.4449 18.4729L24.0636 18.3712ZM30.6434 15.9523C30.6707 16.1188 30.6872 16.287 30.6929 16.457L26.6659 17.1187C26.7423 17.448 26.8738 17.6828 27.0603 17.823C27.2529 17.9549 27.4758 18 27.7291 17.9584C28.0837 17.9001 28.3108 17.6993 28.4104 17.356L30.679 16.9832C30.6539 17.4184 30.5312 17.825 30.3109 18.203C30.0967 18.5726 29.7988 18.8854 29.4172 19.1413C29.0357 19.3973 28.5953 19.5662 28.096 19.6483C27.4953 19.747 26.9391 19.7083 26.4271 19.5323C25.9223 19.3552 25.4975 19.0534 25.1524 18.627C24.8146 18.1995 24.5934 17.6673 24.4888 17.0305C24.3841 16.3937 24.424 15.8224 24.6084 15.3164C24.7917 14.8033 25.094 14.382 25.5155 14.0526C25.9443 13.7221 26.4626 13.5069 27.0704 13.407C27.671 13.3083 28.2231 13.3439 28.7267 13.5138C29.2302 13.6838 29.6503 13.9789 29.9869 14.3992C30.3223 14.8123 30.5411 15.33 30.6434 15.9523ZM28.3851 15.7772C28.3423 15.5167 28.2222 15.3283 28.0247 15.2121C27.8261 15.0887 27.5965 15.0484 27.336 15.0912C27.0755 15.134 26.8739 15.2414 26.7313 15.4135C26.5874 15.5784 26.5128 15.8024 26.5073 16.0857L28.3851 15.7772ZM33.3294 13.5602C33.5111 13.1736 33.7554 12.851 34.0622 12.5925C34.369 12.334 34.7178 12.1727 35.1086 12.1085L35.4813 14.377L34.8843 14.4751C34.4212 14.5512 34.0923 14.6982 33.8977 14.9159C33.7031 15.1337 33.6427 15.4669 33.7164 15.9156L34.1534 18.5749L32.0259 18.9245L31.0253 12.8351L33.1528 12.4856L33.3294 13.5602ZM39.766 9.4035L41.0858 17.4358L38.9584 17.7854L37.6385 9.75308L39.766 9.4035ZM47.5272 10.1236L48.5278 16.2129L46.3895 16.5643L46.2468 15.696C46.1111 16.0007 45.8983 16.266 45.6084 16.492C45.3174 16.7107 44.9656 16.854 44.5532 16.9218C43.844 17.0383 43.2451 16.8989 42.7566 16.5036C42.274 16.0998 41.9668 15.4963 41.8348 14.6931L41.2534 11.1545L43.37 10.8067L43.9068 14.0739C43.9639 14.4212 44.0995 14.6814 44.3137 14.8542C44.534 15.0187 44.7961 15.076 45.1 15.026C45.4112 14.9749 45.6411 14.8368 45.79 14.6117C45.9376 14.3793 45.9828 14.0895 45.9258 13.7422L45.3889 10.475L47.5272 10.1236ZM48.8901 13.021C48.7866 12.3914 48.8265 11.82 49.0097 11.3069C49.1929 10.7937 49.4953 10.3725 49.9168 10.0431C50.3456 9.71252 50.8602 9.4979 51.4608 9.39921C52.2351 9.27198 52.9215 9.37844 53.5199 9.71858C54.1171 10.0515 54.5541 10.5854 54.8309 11.3202L52.5732 11.6912C52.3775 11.3146 52.0916 11.1572 51.7153 11.219C51.4475 11.263 51.2525 11.4103 51.1302 11.6608C51.0139 11.9028 50.9908 12.2373 51.061 12.6643C51.1311 13.0912 51.2606 13.4043 51.4494 13.6037C51.6455 13.8019 51.8774 13.879 52.1451 13.835C52.5286 13.7719 52.7492 13.5313 52.8068 13.1131L55.0646 12.7421C55.0363 13.5197 54.7931 14.1653 54.335 14.6791C53.8769 15.1928 53.2607 15.5133 52.4864 15.6405C51.8858 15.7392 51.3295 15.7006 50.8175 15.5246C50.3128 15.3474 49.8915 15.045 49.5537 14.6175C49.2159 14.1899 48.9947 13.6578 48.8901 13.021ZM60.1417 14.3046L58.0491 12.0845L58.4593 14.581L56.3318 14.9306L55.012 6.89833L57.1394 6.54875L57.8511 10.8797L59.1411 8.21524L61.6919 7.7961L59.7961 11.2512L62.7359 13.8783L60.1417 14.3046ZM11.2629 34.4971L9.13541 34.8467L5.59967 31.0356L6.3024 35.3122L4.17493 35.6618L2.91751 28.0094L5.04498 27.6598L8.58963 31.5253L7.87799 27.1943L10.0055 26.8447L11.2629 34.4971ZM17.7809 30.2268C17.8082 30.3932 17.8247 30.5614 17.8303 30.7314L13.8033 31.3931C13.8797 31.7224 14.0112 31.9572 14.1978 32.0975C14.3904 32.2294 14.6133 32.2745 14.8666 32.2329C15.2211 32.1746 15.4483 31.9738 15.5479 31.6304L17.8165 31.2576C17.7914 31.6928 17.6687 32.0994 17.4484 32.4775C17.2342 32.8471 16.9363 33.1599 16.5547 33.4158C16.1732 33.6717 15.7327 33.8407 15.2334 33.9227C14.6328 34.0214 14.0765 33.9828 13.5645 33.8068C13.0598 33.6296 12.6349 33.3279 12.2899 32.9015C11.9521 32.4739 11.7309 31.9418 11.6262 31.305C11.5216 30.6682 11.5615 30.0968 11.7459 29.5909C11.9291 29.0777 12.2315 28.6565 12.653 28.3271C13.0817 27.9965 13.6 27.7813 14.2079 27.6814C14.8085 27.5827 15.3606 27.6184 15.8641 27.7883C16.3677 27.9582 16.7877 28.2534 17.1243 28.6737C17.4598 29.0868 17.6786 29.6045 17.7809 30.2268ZM15.5226 30.0516C15.4798 29.7911 15.3596 29.6028 15.1622 29.4866C14.9635 29.3632 14.734 29.3228 14.4735 29.3657C14.213 29.4085 14.0114 29.5159 13.8687 29.688C13.7249 29.8528 13.6502 30.0769 13.6448 30.3602L15.5226 30.0516ZM22.9624 32.5747L21.6147 31.2244L20.9978 32.8975L18.6641 33.281L20.1748 29.7888L17.5767 27.2059L19.9646 26.8135L21.3124 28.1639L21.9401 26.4889L24.2739 26.1055L22.7108 29.5505L25.3504 32.1823L22.9624 32.5747ZM29.2742 29.6759L29.572 31.4886L28.6494 31.6402C27.0936 31.8959 26.1891 31.253 25.9358 29.7117L25.6058 27.7036L24.8569 27.8267L24.5662 26.0574L25.3151 25.9344L25.0725 24.4581L27.2109 24.1068L27.4534 25.583L28.5606 25.4011L28.8513 27.1703L27.7442 27.3523L28.0795 29.3929C28.1068 29.5593 28.1626 29.6728 28.2469 29.7333C28.3384 29.7925 28.4746 29.8073 28.6555 29.7776L29.2742 29.6759ZM35.9204 28.5838L36.2183 30.3965L35.2956 30.5481C33.7398 30.8038 32.8353 30.1609 32.582 28.6196L32.2521 26.6115L31.5031 26.7346L31.2124 24.9653L31.9613 24.8423L31.7188 23.3661L33.8571 23.0147L34.0997 24.4909L35.2068 24.309L35.4975 26.0783L34.3904 26.2602L34.7257 28.3008C34.753 28.4672 34.8088 28.5807 34.8931 28.6412C34.9846 28.7005 35.1208 28.7152 35.3017 28.6855L35.9204 28.5838ZM37.1753 23.4058C36.799 23.4677 36.4785 23.4163 36.2136 23.2517C35.9548 23.0788 35.7998 22.8367 35.7487 22.5255C35.6964 22.2071 35.7651 21.9246 35.955 21.6779C36.1521 21.4299 36.4387 21.2751 36.815 21.2133C37.1841 21.1526 37.498 21.2088 37.7568 21.3818C38.0229 21.5536 38.182 21.7987 38.2344 22.1171C38.2855 22.4282 38.2125 22.7078 38.0154 22.9557C37.8244 23.1951 37.5444 23.3452 37.1753 23.4058ZM38.3209 23.7973L39.3215 29.8866L37.1941 30.2362L36.1935 24.1469L38.3209 23.7973ZM47.4799 22.2366C48.2469 22.1105 48.8856 22.2434 49.3959 22.6352C49.9134 23.0258 50.2381 23.6227 50.3701 24.4259L50.9533 27.9753L48.8259 28.3249L48.289 25.0577C48.2355 24.7321 48.1034 24.4937 47.8928 24.3425C47.6822 24.1913 47.4213 24.1413 47.1101 24.1924C46.7989 24.2435 46.5678 24.3744 46.4166 24.585C46.2654 24.7957 46.2166 25.0638 46.2701 25.3894L46.8069 28.6566L44.6795 29.0062L44.1426 25.739C44.0891 25.4134 43.957 25.175 43.7464 25.0238C43.543 24.8714 43.2857 24.8208 42.9746 24.8719C42.6562 24.9243 42.4214 25.0557 42.2702 25.2664C42.119 25.477 42.0702 25.7451 42.1237 26.0708L42.6605 29.338L40.5331 29.6875L39.5325 23.5982L41.66 23.2486L41.7919 24.0518C41.9373 23.7604 42.1458 23.5144 42.4175 23.3136C42.6953 23.1045 43.0295 22.9678 43.4203 22.9036C43.869 22.8299 44.283 22.8622 44.6625 23.0005C45.0491 23.1376 45.3729 23.3668 45.6338 23.6881C45.7962 23.3196 46.038 23.0049 46.3593 22.744C46.6794 22.4759 47.0529 22.3067 47.4799 22.2366ZM57.425 23.7126C57.4524 23.879 57.4688 24.0472 57.4745 24.2172L53.4475 24.8789C53.5239 25.2082 53.6554 25.443 53.8419 25.5833C54.0345 25.7151 54.2574 25.7603 54.5107 25.7186C54.8653 25.6604 55.0924 25.4596 55.192 25.1162L57.4606 24.7434C57.4355 25.1786 57.3128 25.5852 57.0925 25.9633C56.8783 26.3329 56.5804 26.6457 56.1989 26.9016C55.8173 27.1575 55.3769 27.3265 54.8776 27.4085C54.277 27.5072 53.7207 27.4686 53.2087 27.2926C52.7039 27.1154 52.2791 26.8136 51.934 26.3873C51.5962 25.9597 51.375 25.4276 51.2704 24.7908C51.1657 24.154 51.2056 23.5826 51.39 23.0767C51.5733 22.5635 51.8756 22.1422 52.2971 21.8129C52.7259 21.4823 53.2442 21.2671 53.852 21.1672C54.4526 21.0685 55.0047 21.1042 55.5083 21.2741C56.0118 21.444 56.4319 21.7391 56.7685 22.1595C57.1039 22.5725 57.3227 23.0902 57.425 23.7126ZM55.1667 23.5374C55.1239 23.2769 55.0038 23.0886 54.8063 22.9724C54.6077 22.8489 54.3781 22.8086 54.1176 22.8514C53.8571 22.8942 53.6555 23.0017 53.5129 23.1738C53.369 23.3386 53.2944 23.5627 53.2889 23.846L55.1667 23.5374Z" fill="#944B3C"/>
<path d="M75.605 3.90131C74.7098 3.98854 74.4311 4.63774 74.6167 5.82705C74.739 6.61029 75.2615 8.77611 74.0787 10.0151C72.9761 11.1701 72.6165 11.1127 71.3764 12.5847C70.1363 14.0567 68.9666 13.8934 67.3568 13.93C65.333 13.9776 66.9539 23.5213 68.3539 23.2177C69.3471 23.002 71.6099 22.5424 71.9741 22.5069C72.3399 22.4713 75.0098 23.9011 77.2116 23.7056C80.7785 23.3903 82.6911 22.6553 82.6911 22.6553L83.5356 20.5117L83.2778 14.2505L81.3185 11.4163C81.3185 11.4163 79.1105 11.9498 78.3855 11.1461C77.6622 10.3422 78.6998 9.16725 78.4579 6.68507C78.216 4.20288 76.0619 3.85678 75.605 3.90131Z" fill="url(#paint0_linear_6_3)"/>
<path d="M82.814 22.624L82.6376 22.2113C82.2328 22.2141 81.7306 22.4215 81.0255 22.4858C77.6535 22.7924 74.3507 22.2722 72.8764 21.4637C71.911 20.9343 71.4346 20.1504 70.8171 20.4497C70.0567 20.8187 67.8621 21.4902 66.9503 20.6725C67.331 22.1875 67.8574 23.3275 68.3539 23.2189C69.3472 23.0033 71.61 22.5437 71.9741 22.5082C72.34 22.4725 74.9348 23.8657 77.2117 23.7069C80.1564 23.5036 82.7218 22.8135 82.7218 22.8135L82.814 22.624Z" fill="url(#paint1_linear_6_3)"/>
<path d="M78.3872 11.146C77.6639 10.3421 78.7015 9.16708 78.4596 6.68491C78.2177 4.20272 76.0619 3.85679 75.605 3.9013C75.4853 3.91297 75.3786 3.93511 75.2846 3.96627C77.1589 3.88485 78.4792 5.80276 78.0388 7.9553C77.6832 9.70203 77.556 11.0861 78.4851 11.801C79.0866 12.2632 80.1722 12.0694 81.3185 11.4163C81.3185 11.4163 79.1105 11.9498 78.3872 11.146Z" fill="url(#paint2_linear_6_3)"/>
<path d="M78.598 12.0175C77.5313 12.4398 74.8355 13.4507 72.8964 15.2945C67.9861 19.9688 77.1131 19.6046 79.3323 22.9753C79.7576 23.6205 81.4379 19.1729 81.4379 19.1729L82.0198 18.1245L79.6249 13.8231L78.598 12.0175Z" fill="url(#paint3_linear_6_3)"/>
<path d="M78.795 12.362C77.7283 12.7843 73.4902 15.6942 73.6093 16.9164C73.9529 20.442 76.8852 18.4002 78.9678 22.396C79.2566 22.9488 80.1232 23.3543 80.1232 23.3543C80.756 22.81 81.4399 19.1755 81.4399 19.1755L82.0218 18.127L79.6269 13.8257L78.795 12.362Z" fill="url(#paint4_linear_6_3)"/>
<path d="M82.3784 22.9206L84.2756 20.648L83.8954 11.9619L78.5981 12.0175C77.4473 12.6945 77.382 13.474 77.9501 14.6583C78.1893 15.1572 77.4367 15.3802 77.5345 16.8906C77.6025 17.9373 78.3954 17.8659 78.4256 18.1754C78.4557 18.485 78.0585 18.4958 78.0147 19.4082C77.9529 20.7126 79.2045 20.6155 79.2313 20.8902C79.2581 21.1649 78.5795 21.3968 78.7254 22.4403C78.909 23.7648 76.0186 23.7751 73.9654 22.7531C73.1212 22.3336 72.4234 22.3503 71.8915 22.515C71.9251 22.5103 71.9536 22.5061 71.9755 22.5039C72.3413 22.4683 74.9608 23.9221 77.213 23.7027C79.8448 23.4491 81.6526 23.1395 82.3784 22.9206Z" fill="url(#paint5_linear_6_3)"/>
<path d="M81.8279 12.2777C80.2061 12.4357 79.4475 13.8887 80.1669 14.8793C80.8862 15.8698 79.2617 17.4307 79.512 18.0958C79.7608 18.7626 80.2497 20.4622 80.5288 20.724C80.8079 20.9858 80.2087 21.7 80.2087 21.7L82.2864 21.7161L84.1338 20.7996L83.5772 15.8042L83.4777 12.6524L81.8279 12.2777Z" fill="url(#paint6_linear_6_3)"/>
<path d="M75.605 3.9013C74.7099 3.98854 74.4311 4.63774 74.6167 5.82705C74.739 6.61029 75.2615 8.7761 74.0787 10.0151C72.9762 11.1701 72.6164 11.1112 71.3765 12.5847C70.5712 13.5419 69.7955 13.8068 68.9097 13.8858C68.4322 13.9279 67.9223 13.9174 67.3569 13.93C67.3861 14.2294 67.4865 14.2122 68.8422 14.3985C68.9975 14.42 69.1432 14.4308 69.2845 14.4317C69.3697 14.6067 69.4246 14.7862 69.4339 14.9687C69.482 15.969 69.856 17.1693 69.9256 15.8759C69.9533 15.3744 70.1336 14.7964 70.4145 14.2042C70.9 13.9823 71.2747 13.6186 71.5987 13.2056C72.2026 12.4352 72.725 11.7535 74.3237 10.6441C75.9224 9.53326 75.4517 6.95601 75.2306 6.10171C75.0096 5.2474 74.9762 3.96258 75.605 3.9013Z" fill="url(#paint7_radial_6_3)"/>
<path d="M82.9651 11.2164C81.0406 11.3408 77.5839 11.5823 77.6769 13.322C77.7436 14.5831 78.8172 14.8951 80.4204 14.7916C82.0236 14.6882 82.8253 14.6365 83.4899 14.5937C84.1546 14.551 86.2354 14.3365 86.1079 12.8188C85.9485 10.9212 82.9651 11.2164 82.9651 11.2164Z" fill="url(#paint8_linear_6_3)"/>
<path d="M80.4212 17.7856C79.9057 17.8226 78.4125 18.3041 78.3506 19.1537C78.3017 19.8216 78.774 20.6338 80.1219 20.7049C81.8291 20.7952 84.6472 20.6541 85.6612 20.215C86.1151 20.0181 86.482 19.5569 86.4397 18.9141C86.3992 18.2711 85.764 17.463 84.5607 17.5494C83.3575 17.6359 82.7353 17.7127 82.0459 17.7109C81.2182 17.705 80.8335 17.7557 80.4212 17.7856Z" fill="url(#paint9_linear_6_3)"/>
<path d="M80.1714 20.7589C79.5881 20.8158 78.9132 21.329 78.9851 22.0673C79.0571 22.8055 79.3329 23.3303 80.604 23.4162C81.8749 23.5007 83.862 23.128 84.5955 22.8482C85.1664 22.6298 85.3394 22.1347 85.2631 21.3513C85.1868 20.568 84.6087 20.4864 83.9917 20.5466C83.3747 20.6067 82.6357 20.777 82.2055 20.7984C81.005 20.8611 80.753 20.7023 80.1714 20.7589Z" fill="url(#paint10_linear_6_3)"/>
<path d="M82.8357 11.5826C81.1563 11.6905 78.1375 11.9011 78.2102 13.276C78.2631 14.2728 79.1987 14.5132 80.599 14.4237C81.9994 14.3342 85.6766 14.033 85.5715 12.8329C85.4407 11.3332 82.8357 11.5826 82.8357 11.5826Z" fill="url(#paint11_linear_6_3)"/>
<path d="M80.6105 18.1224C80.1627 18.1543 78.9175 18.3696 78.8755 19.1791C78.8473 19.7276 79.2402 20.3891 80.4129 20.4435C81.9001 20.5113 84.352 20.3853 85.2371 20.0203C85.6314 19.8572 85.9535 19.4781 85.9192 18.9518C85.885 18.4256 85.2626 17.8363 84.2167 17.9133C83.1706 17.9888 82.6241 18.1257 82.0217 18.1272C81.3002 18.1271 80.9689 18.0978 80.6105 18.1224Z" fill="url(#paint12_linear_6_3)"/>
<path d="M80.4455 21.0036C79.9414 21.0527 79.3542 21.4708 79.4121 22.0653C79.4701 22.6596 79.7051 23.0812 80.8037 23.1429C81.9023 23.2045 83.6229 22.8916 84.2575 22.6626C84.7523 22.4837 84.9039 22.0832 84.8424 21.4524C84.7809 20.8217 84.2813 20.7589 83.7469 20.811C83.2125 20.863 82.5728 21.0046 82.2021 21.0246C81.1661 21.0816 80.9495 20.9545 80.4455 21.0036Z" fill="url(#paint13_linear_6_3)"/>
<path d="M69.5845 22.9583C68.1872 22.5898 66.2592 15.8678 68.5782 13.9062C68.1968 13.9229 67.7931 13.9182 67.3567 13.9285C65.3328 13.976 66.9538 23.5198 68.3537 23.2161C68.6704 23.1486 69.1141 23.0555 69.5845 22.9583Z" fill="url(#paint14_linear_6_3)"/>
<path d="M79.3716 13.1628C79.3218 12.2156 80.1493 11.6787 81.2314 11.362C79.4749 11.5684 77.6077 12.0364 77.675 13.3208C77.7417 14.5819 78.8153 14.8939 80.4185 14.7905C80.5944 14.7792 80.7619 14.7687 80.9191 14.7578C80.0003 14.62 79.4247 14.1626 79.3716 13.1628Z" fill="url(#paint15_linear_6_3)"/>
<path d="M79.3821 11.7151C78.3776 12.0081 77.6327 12.5017 77.6752 13.3221C77.7315 14.3714 78.4826 14.7618 79.656 14.8059C77.2307 14.2266 77.8779 12.1536 79.3821 11.7151Z" fill="url(#paint16_linear_6_3)"/>
<path opacity="0.65" d="M77.6232 21.9052C77.4041 22.4679 76.1194 22.6269 74.7513 22.2614C73.3848 21.8957 72.4536 21.1414 72.6711 20.5789C72.8903 20.0162 74.1749 19.8573 75.5431 20.2228C76.9096 20.5899 77.8407 21.3427 77.6232 21.9052Z" fill="url(#paint17_radial_6_3)"/>
<path opacity="0.75" d="M84.58 12.9104C84.6372 13.6369 83.5462 14.0894 82.3235 14.2731C81.3222 14.4235 80.1464 13.919 80.1061 13.2085C80.0658 12.4979 80.1513 11.8558 82.2461 11.7148C83.4837 11.6323 84.5245 12.2014 84.58 12.9104Z" fill="url(#paint18_radial_6_3)"/>
<path opacity="0.75" d="M85.4252 19.2596C85.5162 20.263 84.2163 20.196 82.9941 20.3855C81.4434 20.6261 80.3692 20.3083 80.2986 19.6008C80.2296 18.893 80.7709 18.318 82.8627 18.1112C84.0949 17.9896 85.308 17.9697 85.4252 19.2596Z" fill="url(#paint19_radial_6_3)"/>
<path opacity="0.75" d="M84.5438 21.8995C84.6205 22.7561 83.4687 22.9857 82.3678 23.093C81.267 23.2003 80.0211 22.8141 79.9606 22.2111C79.9017 21.6066 80.3883 21.1161 82.2575 20.9311C83.3598 20.8207 84.4452 20.8 84.5438 21.8995Z" fill="url(#paint20_radial_6_3)"/>
<path d="M79.8 19.2166C79.8639 18.0572 80.887 18.025 82.0403 17.7923C80.69 17.8373 80.1257 17.8791 80.1257 17.8791C79.9999 17.8811 79.8599 17.8933 79.7145 17.9207C79.2859 18.046 78.8087 18.2657 78.5466 18.614C78.459 18.7457 78.3921 18.8975 78.3549 19.0742C78.3522 19.0994 78.3496 19.1246 78.3471 19.1513C78.3169 19.8203 78.7704 20.6314 80.1183 20.7025C80.3133 20.7128 80.5217 20.7204 80.7416 20.7239C80.8472 20.7253 80.9613 20.726 81.084 20.7272C81.1163 20.727 81.1504 20.7281 81.1827 20.7278C80.4239 20.5025 79.7537 20.069 79.8 19.2166Z" fill="url(#paint21_linear_6_3)"/>
<path d="M79.9986 17.8842C79.9073 17.8902 79.8132 17.9023 79.7145 17.9207C79.2828 18.0479 78.8023 18.2693 78.5407 18.6234C78.4564 18.7534 78.3927 18.9034 78.3566 19.0741C78.354 19.0993 78.353 19.1244 78.3488 19.1512C78.2772 19.8139 78.7261 20.5433 79.9106 20.6832C77.8417 19.9371 78.5085 18.0309 79.9986 17.8842Z" fill="url(#paint22_linear_6_3)"/>
<path d="M81.4477 20.8106C80.8555 20.7935 80.6047 20.7167 80.1714 20.7589C79.5881 20.8158 78.9132 21.329 78.9851 22.0673C79.0113 22.3361 79.0653 22.5759 79.1818 22.7758C79.2966 22.9406 79.4557 23.0894 79.6663 23.2068C79.8947 23.3152 80.1979 23.3883 80.6038 23.4147C80.8761 23.4322 81.1806 23.4304 81.4986 23.4112C80.8568 23.1642 79.8057 23.1008 79.9233 22.0551C80.0508 20.9013 80.8496 20.9775 81.4477 20.8106Z" fill="url(#paint23_linear_6_3)"/>
<path d="M80.1445 20.7616C79.5675 20.831 78.9125 21.3393 78.9835 22.0674C79.0495 22.7447 79.2867 23.2409 80.3049 23.3852C78.6701 22.676 79.0262 21.1786 80.1445 20.7616Z" fill="url(#paint24_linear_6_3)"/>
<path d="M86.1063 12.819C86.0914 12.6488 86.0545 12.4968 85.9986 12.36C86.2096 12.9365 85.6567 13.5845 84.0629 14.0289C83.0058 14.3226 80.1748 14.8376 78.1332 14.3544C78.6031 14.7575 79.4042 14.8584 80.4189 14.7933C82.0222 14.6899 82.8238 14.6381 83.4884 14.5954C84.1529 14.5512 86.2339 14.3381 86.1063 12.819Z" fill="url(#paint25_linear_6_3)"/>
<path d="M86.4373 18.8719C86.3737 18.237 85.7401 17.4625 84.5622 17.5479C83.3607 17.6342 82.7368 17.7111 82.0474 17.7093C81.2183 17.7065 80.8334 17.7558 80.4211 17.7857C80.1102 17.8086 79.351 17.9633 78.8573 18.2931C79.461 18.4118 80.4408 18.5818 81.7772 18.3768C84.9796 17.8843 85.9277 18.1308 86.4373 18.8719Z" fill="url(#paint26_linear_6_3)"/>
<path d="M79.4524 14.9869C78.7669 15.042 77.7117 15.4955 77.8025 16.7248C77.8934 17.9542 79.166 18.125 79.7147 18.0804C80.2635 18.0357 82.1912 17.9623 84.5604 17.7725C86.9295 17.5827 87.1381 16.4577 87.0958 15.8837C87.0535 15.3099 86.5309 14.3133 85.1057 14.4272C80.9888 14.7565 79.4524 14.9869 79.4524 14.9869Z" fill="url(#paint27_linear_6_3)"/>
<path d="M79.8545 15.306C79.2584 15.3538 78.3386 15.7119 78.4089 16.6601C78.4792 17.6083 79.5837 17.731 80.0615 17.6918C80.5394 17.654 82.0474 17.7081 84.2721 17.4164C86.3204 17.1479 86.5214 16.3815 86.4885 15.9388C86.4556 15.496 86.3068 14.7021 85.0689 14.8008C81.4893 15.0894 79.8545 15.306 79.8545 15.306Z" fill="url(#paint28_linear_6_3)"/>
<path d="M79.2609 16.4623C79.2074 15.197 80.2252 15.0935 81.3555 14.7647C80.011 14.9031 79.4508 14.987 79.4508 14.987C78.7652 15.0421 77.71 15.4955 77.8009 16.7249C77.8917 17.9542 79.1643 18.1251 79.7131 18.0804C79.9106 18.0641 80.2882 18.0449 80.8011 18.0169C80.0179 17.8204 79.3006 17.3929 79.2609 16.4623Z" fill="url(#paint29_linear_6_3)"/>
<path opacity="0.75" d="M85.8871 15.9488C86.032 16.947 84.7591 17.2617 83.5334 17.4325C82.3077 17.6033 80.8866 17.2005 80.7789 16.4965C80.6712 15.7925 81.1817 15.1985 83.2635 14.9076C84.4874 14.7355 85.7009 14.6671 85.8871 15.9488Z" fill="url(#paint30_radial_6_3)"/>
<path d="M79.3244 15.001C78.6431 15.0997 77.7172 15.5699 77.8024 16.7235C77.889 17.8916 79.043 18.1034 79.6283 18.0845C77.2998 17.5206 77.8251 15.263 79.3244 15.001Z" fill="url(#paint31_linear_6_3)"/>
<path d="M87.0803 15.7608C86.9604 17.6034 81.3633 17.8143 78.3196 17.7178C78.7624 18.0531 79.377 18.1076 79.7147 18.0806C80.2636 18.0374 82.1912 17.9625 84.5603 17.7727C86.9278 17.5831 87.138 16.4579 87.0957 15.884C87.0936 15.8446 87.0878 15.8026 87.0803 15.7608Z" fill="url(#paint32_linear_6_3)"/>
<path d="M84.6874 20.0708C83.6141 20.2165 80.7915 20.7997 78.6195 20.043C78.8867 20.3926 79.3675 20.6641 80.1219 20.7035C81.8291 20.7939 84.6471 20.6528 85.6611 20.2136C86.115 20.0168 86.4819 19.5556 86.4397 18.9128C86.4265 19.4759 85.848 19.9137 84.6874 20.0708Z" fill="url(#paint33_linear_6_3)"/>
<path d="M85.2462 22.0511C84.585 22.5835 83.3911 22.9757 81.6061 22.89C80.5033 22.8375 79.753 22.8564 79.2613 22.8925C79.4866 23.1787 79.8878 23.3669 80.6038 23.4145C81.8748 23.499 83.8619 23.1264 84.5953 22.8466C84.971 22.7029 85.1733 22.4382 85.2462 22.0511Z" fill="url(#paint34_linear_6_3)"/>
<path d="M79.1497 21.3807C80.4145 20.8438 81.1127 21.389 82.5102 21.2528C83.96 21.1115 84.602 20.5399 85.1629 20.9693C84.9578 20.5419 84.4856 20.4984 83.99 20.5467C83.373 20.6068 82.634 20.7771 82.2038 20.7985C81.0051 20.861 80.7529 20.7007 80.1696 20.7576C79.7938 20.7957 79.377 21.0241 79.1497 21.3807Z" fill="url(#paint35_linear_6_3)"/>
<path d="M68.3538 23.2179C69.3471 23.0023 71.6082 22.5428 71.9741 22.5071C68.4609 20.7883 69.5111 16.3023 70.5208 13.9857C70.6627 13.6609 70.7443 13.3976 70.779 13.1771C69.7471 14.0098 68.7069 13.8999 67.3552 13.9304C65.333 13.9778 66.9556 23.5214 68.3538 23.2179Z" fill="url(#paint36_linear_6_3)"/>
<path d="M70.2519 21.0405C69.8713 20.68 70.2506 21.4983 70.5849 22.0819C70.8682 22.5795 69.0512 22.4455 67.6948 22.7068C67.9106 23.0701 68.1356 23.2654 68.3555 23.2175C69.3488 23.0019 71.61 22.5424 71.9758 22.5068C71.4231 22.1792 70.6325 21.4009 70.2519 21.0405Z" fill="url(#paint37_radial_6_3)"/>
<path d="M71.9758 22.5068C71.6706 22.3268 71.2941 22.0084 70.9525 21.6984C70.9525 21.6984 69.3602 22.5945 67.5429 22.4224C67.8032 22.9633 68.0822 23.2765 68.3537 23.2163C69.3487 23.0005 71.61 22.5425 71.9758 22.5068Z" fill="url(#paint38_linear_6_3)"/>
<path opacity="0.75" d="M77.0627 7.8231C76.4238 8.00712 75.8206 7.28396 75.434 6.40764C75.1175 5.69178 75.3578 4.71769 75.9863 4.54787C76.6149 4.37954 77.2061 4.31751 77.7113 5.85124C78.0088 6.75678 77.6885 7.64328 77.0627 7.8231Z" fill="url(#paint39_radial_6_3)"/>
<path d="M80.1445 20.7618C79.7886 20.8287 79.481 21.0259 79.2808 21.2758C79.0772 21.5274 79.0002 21.8371 79.0533 22.1371C79.0844 22.4392 79.1687 22.7449 79.3915 22.9712C79.6128 23.199 79.9594 23.3149 80.3049 23.3854C79.9528 23.3522 79.58 23.2638 79.3219 23.0249C79.0623 22.7891 78.974 22.4588 78.9337 22.1502C78.8878 21.8363 78.9713 21.4878 79.2082 21.23C79.4348 20.9703 79.7832 20.7911 80.1445 20.7618Z" fill="#804B24"/>
<path d="M79.3018 18.0694C79.0744 18.181 78.8687 18.3228 78.7029 18.4901C78.5336 18.6563 78.4557 18.8693 78.41 19.082L78.4097 19.0791C78.3604 19.4639 78.4719 19.8565 78.7587 20.1454C79.0408 20.4377 79.4656 20.6061 79.9106 20.6845C79.4583 20.6538 78.9918 20.5114 78.6795 20.2059C78.5236 20.0553 78.409 19.8743 78.3439 19.6782C78.2772 19.4823 78.2787 19.2709 78.3035 19.0718L78.3049 19.0688C78.3546 18.8454 78.4583 18.6167 78.6496 18.4498C78.832 18.278 79.0657 18.1613 79.3018 18.0694Z" fill="#804B24"/>
<path d="M79.3245 15.001C78.9055 15.0844 78.5106 15.2754 78.2422 15.5598C77.9738 15.8441 77.8496 16.2113 77.8593 16.5727C77.852 16.9343 77.9557 17.2997 78.2205 17.5732C78.4839 17.8483 78.8843 18.0103 79.304 18.0735C78.8796 18.0489 78.4457 17.9107 78.1509 17.6269C77.8513 17.3466 77.7394 16.9496 77.7404 16.5755C77.7394 16.1985 77.8726 15.8012 78.1743 15.5091C78.4706 15.2147 78.8983 15.0454 79.3245 15.001Z" fill="#804B24"/>
<path d="M79.3837 11.7146C78.9406 11.8649 78.5049 12.057 78.1722 12.3447C77.8359 12.6313 77.68 13.0397 77.7491 13.4349C77.7809 13.8309 77.9703 14.2202 78.3466 14.4491C78.7164 14.6815 79.1925 14.7643 79.6592 14.8039C79.1894 14.8027 78.6974 14.7479 78.2917 14.5146C77.8779 14.285 77.6712 13.8577 77.6296 13.448C77.5637 13.0334 77.7386 12.5762 78.1087 12.2878C78.47 11.9959 78.9269 11.8296 79.3837 11.7146Z" fill="#804B24"/>
<path d="M78.6194 20.0431C78.9766 20.4777 79.5986 20.6606 80.1988 20.6726C80.8084 20.6939 81.4224 20.6898 82.0325 20.6641C82.6438 20.65 83.2566 20.6167 83.8667 20.5557C84.1716 20.5231 84.476 20.4861 84.7752 20.4305C85.0766 20.3806 85.3791 20.3233 85.6626 20.212C85.1042 20.4542 84.4818 20.5457 83.8749 20.6224C83.2642 20.6951 82.6492 20.7404 82.0338 20.7652C81.4192 20.7796 80.8041 20.7721 80.1917 20.7393C79.884 20.7253 79.5728 20.6749 79.2945 20.5612C79.0162 20.4475 78.7789 20.2652 78.6194 20.0431Z" fill="#804B24"/>
<path d="M78.3196 17.7162C78.5718 17.8941 78.8864 17.9969 79.2065 18.0332C79.5262 18.0828 79.8532 18.0333 80.1849 18.0142L82.1604 17.8715L84.1393 17.7638C84.7968 17.7349 85.4617 17.6774 86.0708 17.4318C85.4824 17.715 84.7981 17.8008 84.1444 17.8337L82.1689 17.9763L80.19 18.0841C79.8645 18.0967 79.5252 18.143 79.1961 18.0841C78.8709 18.0293 78.5595 17.907 78.3196 17.7162Z" fill="#804B24"/>
<path d="M85.1074 14.4271C84.6355 14.4746 84.1663 14.532 83.6939 14.5737L82.2798 14.7144L80.8688 14.8695C80.3988 14.9182 79.9269 14.9657 79.4598 15.0274L79.4564 15.0277C78.9921 15.0656 78.525 15.249 78.2191 15.5678C77.9062 15.8844 77.7861 16.3113 77.8043 16.7247C77.7875 16.518 77.7927 16.3092 77.8475 16.1029C77.9023 15.8965 78.0107 15.6996 78.1681 15.5332C78.4824 15.1959 78.9616 14.9967 79.4503 14.9476L79.4469 14.9479C80.3862 14.8065 81.3285 14.7147 82.2738 14.6358C83.2169 14.5512 84.1607 14.4739 85.1074 14.4271Z" fill="#804B24"/>
<defs>
<linearGradient id="paint0_linear_6_3" x1="81.5613" y1="13.1361" x2="74.7226" y2="14.1256" gradientUnits="userSpaceOnUse">
<stop offset="0.00132565" stop-color="#F0C492"/>
<stop offset="1" stop-color="#F8DBBA"/>
</linearGradient>
<linearGradient id="paint1_linear_6_3" x1="75.9952" y1="15.8803" x2="74.1454" y2="31.2957" gradientUnits="userSpaceOnUse">
<stop offset="0.3118" stop-color="#F0C492" stop-opacity="0"/>
<stop offset="1" stop-color="#E6AF74"/>
</linearGradient>
<linearGradient id="paint2_linear_6_3" x1="68.9237" y1="8.25674" x2="82.2724" y2="8.11743" gradientUnits="userSpaceOnUse">
<stop offset="0.3118" stop-color="#F0C492" stop-opacity="0"/>
<stop offset="1" stop-color="#E6AF74"/>
</linearGradient>
<linearGradient id="paint3_linear_6_3" x1="65.8626" y1="18.8115" x2="85.0542" y2="16.9412" gradientUnits="userSpaceOnUse">
<stop offset="0.3118" stop-color="#F0C492" stop-opacity="0"/>
<stop offset="1" stop-color="#E6AF74"/>
</linearGradient>
<linearGradient id="paint4_linear_6_3" x1="65.8071" y1="19.1881" x2="83.5913" y2="17.4551" gradientUnits="userSpaceOnUse">
<stop offset="0.3118" stop-color="#F0C492" stop-opacity="0"/>
<stop offset="1" stop-color="#E6AF74"/>
</linearGradient>
<linearGradient id="paint5_linear_6_3" x1="62.401" y1="19.2174" x2="98.0857" y2="16.2215" gradientUnits="userSpaceOnUse">
<stop stop-color="#D2A374" stop-opacity="0"/>
<stop offset="1" stop-color="#B88653"/>
</linearGradient>
<linearGradient id="paint6_linear_6_3" x1="78.8501" y1="17.6715" x2="83.497" y2="16.4929" gradientUnits="userSpaceOnUse">
<stop stop-color="#643800" stop-opacity="0"/>
<stop offset="1" stop-color="#643800"/>
</linearGradient>
<radialGradient id="paint7_radial_6_3" cx="0" cy="0" r="1" gradientUnits="userSpaceOnUse" gradientTransform="translate(67.6038 9.71503) rotate(-5.56589) scale(10.078 8.68797)">
<stop stop-color="#F0C492" stop-opacity="0"/>
<stop offset="1" stop-color="#F0C492"/>
</radialGradient>
<linearGradient id="paint8_linear_6_3" x1="81.9803" y1="14.8105" x2="81.4879" y2="6.9422" gradientUnits="userSpaceOnUse">
<stop offset="0.00132565" stop-color="#F0C492"/>
<stop offset="1" stop-color="#F8DBBA"/>
</linearGradient>
<linearGradient id="paint9_linear_6_3" x1="86.3596" y1="18.7776" x2="79.6231" y2="19.4341" gradientUnits="userSpaceOnUse">
<stop offset="0.00132565" stop-color="#F0C492"/>
<stop offset="1" stop-color="#F8DBBA"/>
</linearGradient>
<linearGradient id="paint10_linear_6_3" x1="86.6275" y1="21.5254" x2="79.8946" y2="22.1816" gradientUnits="userSpaceOnUse">
<stop offset="0.00132565" stop-color="#F0C492"/>
<stop offset="1" stop-color="#F8DBBA"/>
</linearGradient>
<linearGradient id="paint11_linear_6_3" x1="77.026" y1="13.5491" x2="80.5232" y2="13.1147" gradientUnits="userSpaceOnUse">
<stop offset="0.00132565" stop-color="#F0C492"/>
<stop offset="1" stop-color="#EFD8B7"/>
</linearGradient>
<linearGradient id="paint12_linear_6_3" x1="84.8559" y1="18.9659" x2="81.2811" y2="19.3143" gradientUnits="userSpaceOnUse">
<stop offset="0.00132565" stop-color="#F0C492"/>
<stop offset="1" stop-color="#EFD8B7"/>
</linearGradient>
<linearGradient id="paint13_linear_6_3" x1="84.7778" y1="24.9148" x2="79.1307" y2="16.2808" gradientUnits="userSpaceOnUse">
<stop offset="0.00132565" stop-color="#F0C492"/>
<stop offset="1" stop-color="#EFD8B7"/>
</linearGradient>
<linearGradient id="paint14_linear_6_3" x1="68.6888" y1="18.4927" x2="66.5825" y2="18.698" gradientUnits="userSpaceOnUse">
<stop offset="0.3118" stop-color="#F0C492" stop-opacity="0"/>
<stop offset="1" stop-color="#E6AF74"/>
</linearGradient>
<linearGradient id="paint15_linear_6_3" x1="79.8867" y1="13.1771" x2="77.9794" y2="13.363" gradientUnits="userSpaceOnUse">
<stop offset="0.3118" stop-color="#F0C492" stop-opacity="0"/>
<stop offset="1" stop-color="#E6AF74"/>
</linearGradient>
<linearGradient id="paint16_linear_6_3" x1="79.5487" y1="13.2575" x2="77.3552" y2="13.4713" gradientUnits="userSpaceOnUse">
<stop offset="0.3118" stop-color="#F0C492" stop-opacity="0"/>
<stop offset="1" stop-color="#E6AF74"/>
</linearGradient>
<radialGradient id="paint17_radial_6_3" cx="0" cy="0" r="1" gradientUnits="userSpaceOnUse" gradientTransform="translate(74.9387 20.8448) rotate(15.005) scale(2.63369 1.0991)">
<stop stop-color="#F8E6D2"/>
<stop offset="0.7237" stop-color="#F8E6D2" stop-opacity="0"/>
</radialGradient>
<radialGradient id="paint18_radial_6_3" cx="0" cy="0" r="1" gradientUnits="userSpaceOnUse" gradientTransform="translate(82.3706 12.9925) rotate(-3.81816) scale(2.30045 1.30204)">
<stop stop-color="#F8E6D2"/>
<stop offset="1" stop-color="#F8E6D2" stop-opacity="0"/>
</radialGradient>
<radialGradient id="paint19_radial_6_3" cx="0" cy="0" r="1" gradientUnits="userSpaceOnUse" gradientTransform="translate(82.8603 19.3653) rotate(-5.61277) scale(2.47174 1.14824)">
<stop stop-color="#F8E6D2"/>
<stop offset="1" stop-color="#F8E6D2" stop-opacity="0"/>
</radialGradient>
<radialGradient id="paint20_radial_6_3" cx="0" cy="0" r="1" gradientUnits="userSpaceOnUse" gradientTransform="translate(82.2488 22.0181) rotate(-5.61238) scale(2.26342 1.22056)">
<stop stop-color="#F8E6D2"/>
<stop offset="1" stop-color="#F8E6D2" stop-opacity="0"/>
</radialGradient>
<linearGradient id="paint21_linear_6_3" x1="80.7136" y1="19.2948" x2="77.9492" y2="19.5642" gradientUnits="userSpaceOnUse">
<stop offset="0.3118" stop-color="#F0C492" stop-opacity="0"/>
<stop offset="1" stop-color="#E6AF74"/>
</linearGradient>
<linearGradient id="paint22_linear_6_3" x1="80.118" y1="19.2689" x2="78.6289" y2="19.414" gradientUnits="userSpaceOnUse">
<stop offset="0.3118" stop-color="#F0C492" stop-opacity="0"/>
<stop offset="1" stop-color="#E6AF74"/>
</linearGradient>
<linearGradient id="paint23_linear_6_3" x1="80.8867" y1="22.1006" x2="77.6236" y2="21.7308" gradientUnits="userSpaceOnUse">
<stop offset="0.3118" stop-color="#F0C492" stop-opacity="0"/>
<stop offset="1" stop-color="#E6AF74"/>
</linearGradient>
<linearGradient id="paint24_linear_6_3" x1="80.5436" y1="22.0422" x2="79.1771" y2="22.1753" gradientUnits="userSpaceOnUse">
<stop offset="0.3118" stop-color="#F0C492" stop-opacity="0"/>
<stop offset="1" stop-color="#E6AF74"/>
</linearGradient>
<linearGradient id="paint25_linear_6_3" x1="81.8284" y1="12.6615" x2="82.8373" y2="16.2603" gradientUnits="userSpaceOnUse">
<stop stop-color="#E6AF74" stop-opacity="0"/>
<stop offset="1" stop-color="#E6AF74"/>
</linearGradient>
<linearGradient id="paint26_linear_6_3" x1="82.6436" y1="19.9027" x2="82.5732" y2="16.802" gradientUnits="userSpaceOnUse">
<stop stop-color="#D2A374" stop-opacity="0"/>
<stop offset="1" stop-color="#B88653"/>
</linearGradient>
<linearGradient id="paint27_linear_6_3" x1="86.0855" y1="15.9631" x2="79.3526" y2="16.6193" gradientUnits="userSpaceOnUse">
<stop offset="0.00132565" stop-color="#F0C492"/>
<stop offset="1" stop-color="#F8DBBA"/>
</linearGradient>
<linearGradient id="paint28_linear_6_3" x1="82.4136" y1="18.3387" x2="82.3456" y2="12.7047" gradientUnits="userSpaceOnUse">
<stop offset="0.00132565" stop-color="#F0C492"/>
<stop offset="1" stop-color="#EFD8B7"/>
</linearGradient>
<linearGradient id="paint29_linear_6_3" x1="81.0878" y1="16.3895" x2="77.2345" y2="16.765" gradientUnits="userSpaceOnUse">
<stop offset="0.3118" stop-color="#F0C492" stop-opacity="0"/>
<stop offset="1" stop-color="#E6AF74"/>
</linearGradient>
<radialGradient id="paint30_radial_6_3" cx="0" cy="0" r="1" gradientUnits="userSpaceOnUse" gradientTransform="translate(83.3199 16.1798) rotate(-7.9236) scale(2.62541 1.48559)">
<stop stop-color="#F8E6D2"/>
<stop offset="1" stop-color="#F8E6D2" stop-opacity="0"/>
</radialGradient>
<linearGradient id="paint31_linear_6_3" x1="79.2963" y1="16.5602" x2="78.0797" y2="16.6787" gradientUnits="userSpaceOnUse">
<stop offset="0.3118" stop-color="#F0C492" stop-opacity="0"/>
<stop offset="1" stop-color="#E6AF74"/>
</linearGradient>
<linearGradient id="paint32_linear_6_3" x1="82.4692" y1="15.9285" x2="83.4089" y2="19.9081" gradientUnits="userSpaceOnUse">
<stop stop-color="#E6AF74" stop-opacity="0"/>
<stop offset="1" stop-color="#E6AF74"/>
</linearGradient>
<linearGradient id="paint33_linear_6_3" x1="82.2643" y1="19.0783" x2="84.0798" y2="22.607" gradientUnits="userSpaceOnUse">
<stop stop-color="#E6AF74" stop-opacity="0"/>
<stop offset="1" stop-color="#E6AF74"/>
</linearGradient>
<linearGradient id="paint34_linear_6_3" x1="82.1905" y1="22.1896" x2="82.6114" y2="24.3918" gradientUnits="userSpaceOnUse">
<stop stop-color="#E6AF74" stop-opacity="0"/>
<stop offset="1" stop-color="#E6AF74"/>
</linearGradient>
<linearGradient id="paint35_linear_6_3" x1="82.2224" y1="21.8473" x2="82.0663" y2="20.2445" gradientUnits="userSpaceOnUse">
<stop stop-color="#FFBA47" stop-opacity="0"/>
<stop offset="1" stop-color="#C66F34"/>
</linearGradient>
<linearGradient id="paint36_linear_6_3" x1="69.2331" y1="18.6466" x2="65.3391" y2="27.3405" gradientUnits="userSpaceOnUse">
<stop offset="0.3118" stop-color="#F0C492" stop-opacity="0"/>
<stop offset="1" stop-color="#D2A374"/>
</linearGradient>
<radialGradient id="paint37_radial_6_3" cx="0" cy="0" r="1" gradientUnits="userSpaceOnUse" gradientTransform="translate(69.7925 22.0167) rotate(-5.56589) scale(1.73825 1.49849)">
<stop stop-color="#F0C492" stop-opacity="0"/>
<stop offset="1" stop-color="#F0C492"/>
</radialGradient>
<linearGradient id="paint38_linear_6_3" x1="69.661" y1="20.9988" x2="69.9997" y2="25.5295" gradientUnits="userSpaceOnUse">
<stop stop-color="#F0C492" stop-opacity="0"/>
<stop offset="1" stop-color="#E6AF74"/>
</linearGradient>
<radialGradient id="paint39_radial_6_3" cx="0" cy="0" r="1" gradientUnits="userSpaceOnUse" gradientTransform="translate(76.5824 6.17127) rotate(71.7998) scale(1.70206 1.14462)">
<stop stop-color="#F8E6D2"/>
<stop offset="1" stop-color="#F8E6D2" stop-opacity="0"/>
</radialGradient>
</defs>
</svg>
